<?xml version="1.0" encoding="utf-8"?>
<!-- Generator: Adobe Illustrator 26.5.0, SVG Export Plug-In . SVG Version: 6.00 Build 0)  -->
<svg version="1.1" xmlns="http://www.w3.org/2000/svg" xmlns:xlink="http://www.w3.org/1999/xlink" x="0px" y="0px"
	 viewBox="0 0 21 21" style="enable-background:new 0 0 21 21;" xml:space="preserve">
<style type="text/css">
	.st0{fill:#011F5B;stroke:#072057;stroke-width:0.5;stroke-miterlimit:10;}
	.st1{fill:#011F5B;}
	.st2{fill:none;stroke:#072057;stroke-width:0.5;stroke-miterlimit:10;}
	.st3{fill:none;stroke:#072057;stroke-width:0.25;stroke-miterlimit:10;}
	.st4{fill:#FFFFFF;stroke:#FFFFFF;stroke-width:0.25;stroke-miterlimit:10;}
	.st5{fill:#991D20;stroke:#092454;stroke-width:0.25;stroke-miterlimit:10;}
	.st6{fill:#FFFFFF;}
</style>
<g id="Layer_2">
	<rect x="0.8" y="3.3" class="st0" width="19.3" height="2.2"/>
	<path class="st1" d="M19.2,4.7H1.8c-0.6,0-1-0.4-1-1V2c0-0.6,0.4-1,1-1h17.4c0.6,0,1,0.4,1,1v1.6C20.2,4.2,19.7,4.7,19.2,4.7z"/>
	<path class="st2" d="M19.2,17.4H1.8c-0.6,0-1-0.4-1-1V2c0-0.6,0.4-1,1-1h17.4c0.6,0,1,0.4,1,1v14.4C20.2,17,19.8,17.4,19.2,17.4z"
		/>
</g>
<g id="Layer_3">
	<rect x="2.4" y="7" class="st3" width="3.2" height="8.9"/>
	<rect x="5.7" y="7" class="st3" width="3.2" height="8.9"/>
	<rect x="8.9" y="7" class="st3" width="3.2" height="8.9"/>
	<rect x="12.1" y="7" class="st3" width="3.2" height="8.9"/>
	<rect x="15.3" y="7" class="st3" width="3.2" height="8.9"/>
</g>
<g id="Layer_4">
	<rect x="2.4" y="7" class="st3" width="16.1" height="2.2"/>
	<rect x="2.4" y="7.2" class="st3" width="16.1" height="2.2"/>
	<rect x="2.4" y="11.8" class="st3" width="16.1" height="2.2"/>
	<rect x="2.4" y="9.4" class="st3" width="16.1" height="2.2"/>
	<rect x="2.4" y="13.8" class="st3" width="16.1" height="2.2"/>
</g>
<g id="Layer_5">
	<g>
		<circle class="st4" cx="15.4" cy="15.2" r="5.3"/>
		<circle class="st5" cx="15.4" cy="15.2" r="5.2"/>
		<g>
			<rect x="14.7" y="12.3" class="st6" width="1.3" height="5.8"/>
			
				<rect x="14.7" y="12.3" transform="matrix(-1.932594e-08 -1 1 -1.932594e-08 0.1413 30.5733)" class="st6" width="1.3" height="5.8"/>
		</g>
	</g>
</g>
</svg>
