<?xml version="1.0" encoding="utf-8"?>
<!-- Generator: Adobe Illustrator 26.0.3, SVG Export Plug-In . SVG Version: 6.00 Build 0)  -->
<svg version="1.1" xmlns="http://www.w3.org/2000/svg" xmlns:xlink="http://www.w3.org/1999/xlink" x="0px" y="0px"
	 viewBox="0 0 626 219" style="enable-background:new 0 0 626 219;" xml:space="preserve">
<style type="text/css">
	.st0{display:none;}
	.st1{display:inline;fill:#0C0C72;}
	.st2{display:inline;fill:#01158C;stroke:#000000;stroke-miterlimit:10;}
	.st3{display:inline;fill:#E825DF;}
	.st4{display:inline;fill:#EA13DA;stroke:#000000;stroke-miterlimit:10;}
	.st5{fill:#FFFFFF;}
	.st6{fill:#990000;}
	.st7{fill:#011F5B;}
	.st8{display:inline;}
	.st9{font-family:'Perpetua';}
	.st10{font-size:86.6617px;}
	.st11{fill:#0B254F;}
	.st12{enable-background:new    ;}
</style>
<g id="Layer_2" class="st0">
	<rect class="st1" width="626" height="219"/>
</g>
<g id="Layer_1">
	<g id="Layer_2_00000005265662463062139490000013217273855748396731_" class="st0">
		<rect class="st2" width="562" height="219"/>
	</g>
	<g id="Layer_3_00000086664983610459779550000005000281376213035141_" class="st0">
	</g>
	<g id="Layer_2_00000175297856931819093090000009526287707298917303_" class="st0">
		<rect class="st3" width="563" height="222"/>
	</g>
	<g id="Layer_2_00000103974692495832945810000009753083288520592302_" class="st0">
		<rect x="7.1" y="1.5" class="st4" width="1327.3" height="133"/>
	</g>
	<g id="Layer_3" class="st0">
		
			<image style="display:inline;overflow:visible;enable-background:new    ;" width="452" height="82" xlink:href="faq-justheader.png"  transform="matrix(2.3097 0 0 2.3097 -28.8696 -32.3296)">
		</image>
	</g>
	<g id="lib_logo_00000036931837351706679780000011388690491787369898_">
		<rect x="109" y="83.3" class="st5" width="434.4" height="1.5"/>
		<path class="st5" d="M99.4,15.9h-92V61c-0.1,19.7,11,33.9,20.3,42.3c10.2,9.3,21.5,14.7,25.3,15.5l0.5,0.1l0.5-0.1
			c3.8-0.8,15-6.2,25.3-15.5c9.2-8.4,20.4-22.7,20.3-42.3L99.4,15.9"/>
		<path class="st6" d="M93.7,34.8L93.7,34.8c0.1,0.1,0.3,0.2,0.4,0.4s0.2,0.4,0.2,0.6c0,0.2-0.1,0.3-0.2,0.5s-0.3,0.3-0.4,0.4
			c-0.1,0.1-0.4,0.3-0.4,0.6v1.6H74.1v-1.6c0-0.2-0.2-0.5-0.4-0.6c-0.1-0.1-0.3-0.2-0.4-0.4s-0.2-0.4-0.2-0.6c0-0.2,0.1-0.4,0.2-0.6
			c0.1-0.2,0.3-0.3,0.4-0.4s0.4-0.3,0.4-0.6v-5.2c0-0.2-0.2-0.5-0.4-0.6c-0.1-0.1-0.3-0.2-0.4-0.4c-0.1-0.2-0.2-0.4-0.2-0.6
			s0.1-0.4,0.2-0.6l0.4-0.4c0.2-0.2,0.4-0.3,0.4-0.6V24h0.3c1,0.1,1.9,0,2.8-0.4c0.3-0.1,0.6-0.3,0.8-0.5c0.7-0.5,1.4-0.7,2.3-0.7
			c0.8,0,1.5,0.2,2.2,0.6c0.4,0.2,0.8,0.3,1.2,0.4h0.1c0.4-0.1,0.8-0.2,1.2-0.4c0.7-0.3,1.4-0.5,2.2-0.6c0.8,0,1.6,0.3,2.3,0.7
			c0.3,0.2,0.5,0.3,0.8,0.5c0.9,0.3,1.9,0.4,2.8,0.4h0.3v1.7c0,0.2,0.2,0.5,0.4,0.6c0.1,0.1,0.3,0.2,0.4,0.4
			c0.1,0.2,0.2,0.4,0.2,0.6s-0.1,0.4-0.2,0.6l-0.4,0.4c-0.2,0.2-0.4,0.3-0.4,0.6v5.2C93.3,34.4,93.5,34.6,93.7,34.8 M70,37.5
			c-1.1,1.5-2.7,2.5-4.5,3c-0.6,0.1-1.1,0.2-1.7,0.2c-3,0-5.8-1.3-8.6-2.7c-0.3-0.2-0.7-0.4-1-0.6c-1.8-0.9-4.3-2.3-6.4-2.3
			c-0.6,0-1.2,0.1-1.7,0.4H46v0.1c0,0.3-0.1,0.5-0.2,0.7c-0.5,0.9-1.1,1.7-2,2.2c-1.3,1-2.9,1.7-4.6,1.8c-0.3,0-0.5,0-0.8-0.1
			s-0.6-0.3-0.8-0.6c-0.1-0.1-0.2-0.3-0.3-0.5c-0.1-0.1-0.1-0.3-0.1-0.5v-0.1h-0.1C36.5,38.6,36,38,36,37.3c0-0.5,0.4-0.8,0.7-1.2
			c0.5-0.6,0.9-1,0.2-1.7l-0.2-0.2c-0.1-0.1-0.2-0.1-0.3-0.3c-0.6-0.6-0.3-1.9,0-2.8V31c0.3-1,0.7-1.9,1.1-2.8
			c0.6-1.4,1.5-2.7,2.6-3.7h0.2c0.1,0.2,0.2,0.4,0.4,0.6l0.2,0.3L41,25c0.4-0.9,0.8-1.6,1.6-1.8c0.7-0.2,1.4-0.1,1.9,0.4l0.2,0.1
			l0.1-0.2c0.3-0.5,0.8-0.8,1.3-0.8c0.7,0,1.3,0.3,1.7,0.8l0.1,0.1l0.1-0.1c0.6-0.5,1.4-0.8,2.2-0.8c0.6,0.1,1.2,0.6,1.3,1.2
			l0.1,0.2l0.2-0.1c0.6-0.3,1.4-0.3,2,0c0.4,0.3,0.6,0.7,0.5,1.2v0.2h0.2c0.8-0.2,1.6,0,2.2,0.5c0.4,0.4,0.5,1,0.5,1.6v0.2h0.2
			c0.6-0.1,1.2,0.1,1.5,0.6c0.2,0.4,0.3,0.8,0.1,1.2l-0.1,0.2h0.2c0.4,0.1,0.7,0.3,0.9,0.6c0.1,0.5,0.1,0.9-0.1,1.4l-0.1,0.2L60,32
			c0.4,0.2,0.7,0.5,0.9,0.8c0.2,0.6,0.2,1.2,0,1.8v0.1l0.1,0.1c0.6,0.5,1.2,1,1.9,1.5c1.3,0.9,3.3,1.4,4.6,0.3
			c0.5-0.5,0.8-1.2,0.6-1.9c-0.1-0.6-0.6-1-1.1-1.2c-1-0.2-1.9,0.7-2.5,1.7h-0.1c-0.1,0-0.1,0-0.1-0.1c-0.6-1.1-0.6-2.4-0.1-3.5
			c0.6-0.8,1.5-1.4,2.5-1.5h0.2v-0.2c-0.1-1.4,0.3-2.7,1.2-3.7c0.8-0.7,1.9-1,3-0.7H71v0.1c-1.1,2.7-0.8,3.7-0.3,5.9
			c0.1,0.2,0.1,0.4,0.2,0.6C71.3,33.9,71,35.9,70,37.5 M33.1,34.8L33.1,34.8c0.1,0.1,0.3,0.2,0.4,0.4s0.2,0.4,0.2,0.6
			c0,0.2-0.1,0.3-0.2,0.5s-0.3,0.3-0.4,0.4c-0.1,0.1-0.4,0.3-0.4,0.6v1.6H13.5v-1.6c0-0.2-0.2-0.5-0.4-0.6c-0.1-0.1-0.3-0.2-0.4-0.4
			c-0.1-0.2-0.2-0.4-0.2-0.6c0-0.2,0.1-0.4,0.2-0.6c0.1-0.2,0.3-0.3,0.4-0.4c0.1-0.1,0.4-0.3,0.4-0.6v-5.2c0-0.2-0.2-0.5-0.4-0.6
			c-0.1-0.1-0.3-0.2-0.4-0.4c-0.1-0.2-0.2-0.4-0.2-0.6s0.1-0.4,0.2-0.6l0.4-0.4c0.2-0.2,0.4-0.3,0.4-0.6V24h0.3c1,0.1,1.9,0,2.8-0.4
			c0.3-0.1,0.6-0.3,0.8-0.5c0.7-0.5,1.4-0.7,2.3-0.7c0.8,0,1.5,0.2,2.2,0.6c0.4,0.2,0.8,0.3,1.2,0.4h0.1c0.4-0.1,0.8-0.2,1.2-0.4
			c0.7-0.3,1.4-0.5,2.2-0.6c0.8,0,1.6,0.3,2.3,0.7c0.3,0.2,0.5,0.3,0.8,0.5c0.9,0.3,1.9,0.4,2.8,0.4h0.3v1.7c0,0.2,0.2,0.5,0.4,0.6
			c0.1,0.1,0.3,0.2,0.4,0.4c0.1,0.2,0.2,0.4,0.2,0.6s-0.1,0.4-0.2,0.6l-0.4,0.4c-0.2,0.2-0.4,0.3-0.4,0.6v5.2
			C32.8,34.4,32.9,34.6,33.1,34.8 M9.8,18.3c0,0,0.1,26.2,0,26.1h87.3V18.3H9.8z"/>
		<path class="st7" d="M39.8,33.6c0.3,0,0.6,0.1,0.8,0.3c0.1,0.1,0.2,0.2,0.3,0.2c0.2,0.2,0.2,0.5,0,0.6l0,0
			c-0.2,0.2-0.5,0.4-0.6,0.5c-0.4,0.3-0.9,0.6-1.4,0.4c-0.2-0.2,0.2-0.5,0-1.2C38.8,33.9,39.4,33.6,39.8,33.6"/>
		<path class="st7" d="M39.9,25.2c-0.9,1-1.7,2.2-2.3,3.4c-0.5,0.9-0.8,1.8-1,2.7v0.1c-0.2,0.6-0.5,1.9-0.1,2.4
			c0.1,0.1,0.2,0.1,0.2,0.2c0,0.1,0.2,0.1,0.3,0.2c0.9,0.9,0.3,1.7-0.2,2.2c-0.3,0.4-0.6,0.6-0.6,0.9c0,0.6,0.8,0.9,1,0.9
			s0.2,0.1,0.2,0.3s0,0.3,0.1,0.5c0.1,0.1,0.1,0.3,0.2,0.4c0.2,0.2,0.4,0.4,0.7,0.5c0.2,0.1,0.4,0.1,0.7,0.1
			c1.6-0.1,3.2-0.7,4.4-1.7c0.8-0.5,1.4-1.2,1.9-2c0.1-0.2,0.1-0.4,0.1-0.6l-1.2-0.2l0,0c-0.1,0-0.2-0.1-0.3-0.3
			c0-0.3,0.2-0.4,0.7-0.6c0.1-0.1,0.3-0.2,0.4-0.3c0.7-0.5,1.2-0.8,1.5-1c-0.3-0.4-0.6-0.8-0.8-1.2c-0.1-0.2-0.3-0.4-0.5-0.6
			c-0.7-0.8-1.8-0.9-2.6-0.5c-0.4,0.2-0.7,0.5-1,0.7s-0.5,0.5-0.8,0.6c-0.1,0.1-0.2,0.1-0.3,0c0,0,0,0,0-0.1c-0.1-0.1-0.1-0.3,0-0.4
			l0.1-0.1c0.4-0.4,1.3-1.3,1.3-1.9C41.8,28.3,40.4,26,39.9,25.2 M47.8,34.7c2.2,0,4.6,1.3,6.6,2.4c0.4,0.2,0.7,0.4,1,0.6
			c3.3,1.7,6.6,3.2,10.1,2.5c1.7-0.4,3.2-1.4,4.2-2.8c0.9-1.6,1.1-3.4,0.5-5.1c-0.1-0.2-0.1-0.5-0.2-0.6c-0.6-2.1-0.9-3.2,0.1-5.8
			c-0.8-0.1-1.7,0.2-2.4,0.6c-0.8,1-1.3,2.3-1.1,3.6c0,0.1-0.1,0.3-0.2,0.3c0,0,0,0-0.1,0c-1,0-1.9,0.5-2.5,1.3
			c-0.4,0.8-0.4,1.8-0.1,2.7c0.6-0.7,1.4-1.7,2.6-1.4c0.7,0.2,1.3,0.7,1.4,1.5c0.2,0.8-0.1,1.7-0.7,2.3c-1.5,1.2-3.7,0.7-5.1-0.3
			c-1.8-1.3-3.5-2.9-5-4.5c-0.3-0.4-0.6-0.6-0.8-1c-1-1.3-2.3-2.5-3.6-3.5c-1.8-1.3-4-1.9-6.2-1.8c-1.8,0-3.5,0.5-5.1,1.3
			c0.5,0.9,0.8,1.9,0.9,3c0,0.2,0,0.3-0.1,0.5c1.1-0.6,2.4-0.3,3.2,0.6c0.2,0.2,0.4,0.5,0.6,0.7c0.3,0.5,0.6,0.9,1,1.3
			c0.1,0.1,0.1,0.1,0.1,0.2c0,0.1,0,0.1-0.1,0.2c-0.6,0.4-1.2,0.8-1.7,1.2c-0.1,0.1-0.3,0.2-0.4,0.3c-0.1,0-0.1,0-0.1,0.1l0.8,0.2
			C46.3,34.8,47,34.6,47.8,34.7 M63.8,40.8c-3,0-5.8-1.3-8.7-2.8c-0.3-0.2-0.7-0.4-1-0.6c-2.3-1.2-5.8-3.1-8-1.9
			c0,0.3-0.1,0.6-0.2,0.8c-0.5,0.9-1.2,1.7-2.1,2.3c-1.3,1.1-3,1.7-4.7,1.8c-0.3,0-0.6,0-0.8-0.1c-0.4-0.1-0.7-0.4-0.9-0.6
			c-0.1-0.1-0.2-0.3-0.3-0.5C37,39.1,37,38.9,37,38.7c-0.8-0.3-1.3-0.7-1.3-1.4c0.1-0.5,0.3-0.9,0.7-1.3c0.6-0.6,0.8-0.9,0.3-1.5
			l-0.2-0.2L36.2,34c-0.7-0.7-0.3-2.1-0.1-2.9V31c0.3-1,0.6-1.9,1.1-2.8c0.6-1.5,1.5-2.8,2.7-3.8c0.1-0.1,0.1-0.1,0.2-0.1
			c0.1,0,0.1,0,0.2,0.1c0,0,0.5,0.7,1,1.7c1.7-0.8,3.4-1.3,5.3-1.4c2.4-0.2,4.7,0.5,6.6,1.9c1.4,1,2.6,2.3,3.6,3.6
			c0.3,0.4,0.6,0.6,0.8,1c1.5,1.7,3.1,3.2,4.9,4.5c1.2,0.9,3.1,1.4,4.4,0.3c0.5-0.4,0.7-1.1,0.6-1.8c-0.1-0.5-0.5-0.9-1-1.1
			c-0.9-0.2-1.7,0.7-2.4,1.7C64,35,63.9,35,63.8,35c-0.1,0-0.2-0.1-0.2-0.2c-0.6-1.1-0.7-2.5-0.1-3.7c0.6-0.9,1.5-1.5,2.5-1.6
			c0-1.8,0.4-3.1,1.3-3.8c0.9-0.7,2-1,3.1-0.7c0.1,0,0.1,0,0.2,0.1s0.1,0.2,0,0.2l0,0c-1.1,2.7-0.8,3.7-0.3,5.8
			c0.1,0.2,0.1,0.4,0.2,0.6c0.6,1.8,0.4,3.8-0.6,5.5c-1.5,2.4-4.5,3-4.6,3.1C64.9,40.7,64.4,40.9,63.8,40.8"/>
		<path class="st7" d="M38.1,38.9h-0.8c-0.2,0-0.3-0.1-0.3-0.3s0.1-0.3,0.3-0.3c1.8,0.3,3.5-0.4,4.7-1.7c0.1-0.1,0.3-0.1,0.4,0
			c0.1,0.1,0.1,0.3,0,0.4C41.2,38.3,39.7,39,38.1,38.9"/>
		<path class="st7" d="M60.3,34.8L60.3,34.8c-0.2-0.1-0.3-0.2-0.2-0.4c0.3-0.6,0.4-1.2,0.1-1.6c-0.2-0.4-0.5-0.6-0.9-0.7
			c-0.1,0-0.1-0.1-0.2-0.1v-0.2c0.2-0.4,0.2-0.9,0.2-1.4c-0.1-0.4-0.8-0.5-0.9-0.5c-0.1,0-0.1,0-0.2-0.1c0-0.1-0.1-0.2,0-0.3
			c0.1-0.1,0.3-0.8,0.1-1.1c-0.4-0.6-1.5-0.3-1.5-0.3c-0.2,0-0.3-0.1-0.4-0.3v-0.1c0.2-0.5,0-1.1-0.3-1.6c-0.8-0.7-2.3-0.3-2.3-0.3
			c-0.2,0-0.3-0.1-0.4-0.3v-0.1c0,0,0.3-0.8-0.3-1.2c-0.6-0.3-1.3-0.2-1.9,0.2c-0.1,0.1-0.2,0.1-0.3,0l0,0c-0.1,0-0.1-0.1-0.2-0.2
			c-0.1-0.1-0.2-1.1-1-1.2c-0.8,0-1.5,0.4-2.1,0.9C47.5,24,47.5,24,47.4,24s-0.1,0-0.2-0.1c-0.1-0.1-0.8-0.9-1.6-0.8
			S44.4,24,44.4,24s-0.1,0.1-0.2,0.2c-0.1,0-0.2,0-0.3-0.1c0,0-0.8-0.8-1.7-0.5c-1.1,0.4-1.4,1.8-1.5,2.1l0,0c0,0.1-0.2,0.2-0.3,0.2
			s-0.2-0.2-0.2-0.3l0,0c0.1-0.5,0.5-2,1.8-2.5c0.7-0.2,1.4-0.1,2,0.4c0.3-0.6,0.9-0.9,1.5-0.9c0.7,0.1,1.4,0.4,1.9,0.8
			c0.6-0.6,1.4-0.9,2.3-0.8c0.7,0.1,1.3,0.6,1.4,1.3c0.7-0.3,1.4-0.3,2.1,0c0.4,0.3,0.7,0.9,0.6,1.4c0.8-0.2,1.7,0,2.4,0.5
			c0.4,0.4,0.6,1.1,0.5,1.7c0.6-0.1,1.3,0.1,1.7,0.6c0.2,0.4,0.2,0.9,0.1,1.3c0.4,0.1,0.8,0.3,1,0.7c0.1,0.5,0.1,1-0.1,1.5
			c0.5,0.2,0.8,0.5,1,0.9C60.7,33.4,60.7,34.1,60.3,34.8C60.5,34.8,60.4,34.8,60.3,34.8"/>
		<path class="st7" d="M59,38.4L59,38.4c-0.2,0-0.3-0.1-0.3-0.3c0.1-0.9-0.5-1.1-0.9-1.3c-0.1,0-0.3-0.1-0.4-0.1
			c-0.3-0.2-0.3-0.5-0.3-0.8c0-0.4-0.1-0.8-0.3-1.1c-0.5-0.6-1.4-0.2-1.4-0.2h-0.3C55,34.5,55,34.4,55,34.3c0.1-0.6-0.1-1.2-0.5-1.6
			c-0.5-0.3-1.2-0.5-1.8-0.3c-0.1,0-0.2,0-0.2-0.1s-0.1-0.1-0.1-0.2c0.1-0.6-0.2-1.2-0.8-1.5c-0.4-0.3-0.9-0.3-1.3-0.1
			c-1.1,0.6-1.5,0.6-2.6-0.2c-0.3-0.3-0.7-0.4-1-0.3c-0.5,0.2-1,0.6-1.1,1.1c-0.1,0.1-0.2,0.2-0.4,0.1S45,31,45.1,30.8
			c0.3-0.7,0.8-1.2,1.5-1.4c0.5-0.1,1.1,0,1.5,0.4c0.9,0.6,1.2,0.6,2.1,0.2c0.6-0.3,1.3-0.3,1.9,0.1c0.6,0.4,0.9,1,0.9,1.7
			c0.7-0.1,1.4,0,2,0.4c0.5,0.4,0.7,1,0.7,1.7c0.6-0.2,1.2,0,1.6,0.5c0.3,0.4,0.4,0.9,0.5,1.4v0.4c0.1,0,0.1,0.1,0.3,0.1
			c0.9,0.1,1.5,1,1.3,1.8l0,0C59.3,38.3,59.2,38.4,59,38.4"/>
		<path class="st7" d="M33.3,35.7c0,0.1,0,0.2-0.1,0.3L33,36.2c-0.3,0.2-0.5,0.5-0.6,0.8v1.2H13.9V37c0-0.4-0.2-0.7-0.6-0.8
			C13.2,36.1,13,36,13,35.9c0,0,0-0.1,0-0.2l0,0c0-0.1,0-0.2,0.1-0.3l0.3-0.3c0.3-0.2,0.5-0.5,0.6-0.8v-5.2c0-0.4-0.2-0.7-0.6-0.8
			c-0.1-0.1-0.3-0.2-0.3-0.3C13,27.9,13,27.8,13,27.7l0,0c0-0.1,0-0.2,0.1-0.3l0.3-0.3c0.3-0.2,0.5-0.5,0.6-0.8v-1.2h1.4v12.1h6.8
			c0.1,0.5,0.6,0.9,1.1,0.8c0.5,0,1-0.3,1.1-0.8h6.7V25.1h1.4v1.2c0,0.4,0.2,0.7,0.6,0.8l0.3,0.3c0.1,0.1,0.1,0.2,0.1,0.3l0,0
			c0,0.1,0,0.2-0.1,0.3l-0.3,0.3c-0.3,0.2-0.5,0.5-0.6,0.8v5.2c0,0.4,0.2,0.7,0.6,0.8l0.3,0.3C33.4,35.5,33.3,35.6,33.3,35.7z
			 M16.6,24.5c0.3-0.1,0.6-0.3,0.8-0.5c0.6-0.5,1.3-0.7,2.1-0.7c0.7,0,1.4,0.2,2.1,0.6c0.4,0.2,0.8,0.3,1.2,0.4v10.6h-0.1
			c-0.7,0.1-1.4,0.3-2.1,0.6l-0.8,0.3c-0.8,0.2-1.6,0.3-2.5,0.3c-0.5,0-1,0-1.5,0.1V24.9C16.1,24.7,16.4,24.6,16.6,24.5 M24.6,23.8
			c0.6-0.3,1.4-0.5,2.1-0.6c0.7,0,1.4,0.3,2,0.7c0.3,0.2,0.5,0.3,0.8,0.5l0.8,0.3v11.1c-0.5-0.1-1-0.1-1.5-0.1
			c-0.8,0.1-1.7,0-2.5-0.3l-0.8-0.3c-0.7-0.2-1.4-0.4-2.1-0.6l0,0V24.1C23.8,24.1,24.2,24,24.6,23.8 M33.2,34.7
			c-0.2-0.2-0.4-0.3-0.4-0.5V29c0-0.2,0.1-0.3,0.4-0.5c0.1-0.1,0.3-0.2,0.4-0.4c0.1-0.2,0.2-0.4,0.2-0.6s-0.1-0.4-0.2-0.6
			c-0.1-0.2-0.3-0.3-0.4-0.4s-0.4-0.3-0.4-0.5v-1.9h-0.4c-0.9,0.1-1.8,0-2.7-0.3c-0.3-0.1-0.5-0.3-0.8-0.5c-0.7-0.5-1.5-0.8-2.4-0.8
			c-0.8,0-1.6,0.2-2.3,0.6c-0.4,0.2-0.7,0.3-1.1,0.4h-0.2c-0.4-0.1-0.8-0.2-1.1-0.4c-0.7-0.3-1.5-0.5-2.3-0.6
			c-0.9,0-1.7,0.3-2.4,0.8c-0.2,0.2-0.5,0.3-0.8,0.5c-0.9,0.3-1.8,0.3-2.7,0.3h-0.2V26c0,0.2-0.1,0.3-0.4,0.5l-0.4,0.4
			c-0.1,0.2-0.2,0.4-0.2,0.6s0.1,0.4,0.2,0.6s0.3,0.3,0.4,0.4c0.1,0.1,0.4,0.3,0.4,0.5v5.2c0,0.2-0.1,0.3-0.4,0.5L12.7,35
			c-0.1,0.2-0.2,0.4-0.2,0.6c0,0.2,0.1,0.4,0.2,0.6c0.1,0.2,0.3,0.3,0.4,0.4c0.1,0.1,0.4,0.3,0.4,0.5v1.8h19.6v-1.8
			c0-0.2,0.1-0.3,0.4-0.5l0.4-0.4c0.1-0.2,0.2-0.4,0.2-0.6c0-0.2-0.1-0.4-0.2-0.6C33.6,34.9,33.4,34.8,33.2,34.7"/>
		<path class="st7" d="M93.8,35.7c0,0.1,0,0.2-0.1,0.3l-0.3,0.3c-0.3,0.2-0.5,0.5-0.6,0.8v1.2H74.4v-1.2c0-0.4-0.2-0.7-0.6-0.8
			L73.5,36c-0.1-0.1-0.1-0.2-0.1-0.3l0,0c0-0.1,0-0.2,0.1-0.3l0.3-0.3c0.3-0.2,0.5-0.5,0.6-0.8v-5.2c0-0.4-0.2-0.7-0.6-0.8L73.5,28
			c-0.1-0.1-0.1-0.2-0.1-0.3l0,0c0-0.1,0-0.2,0.1-0.3l0.3-0.3c0.3-0.2,0.5-0.5,0.6-0.8v-1.2h1.4v12.1h6.8c0.1,0.5,0.6,0.9,1.1,0.8
			c0.5,0,0.9-0.3,1-0.8h6.8V25.1H93v1.2c0,0.4,0.2,0.7,0.6,0.8l0.3,0.3c0.1,0.1,0.1,0.2,0.1,0.3l0,0c0,0.1,0,0.2-0.1,0.3l-0.3,0.3
			c-0.3,0.2-0.5,0.5-0.6,0.8v5.2c0,0.4,0.2,0.7,0.6,0.8l0.3,0.3C93.9,35.5,93.9,35.6,93.8,35.7L93.8,35.7z M77.2,24.5
			c0.3-0.1,0.6-0.3,0.8-0.5c0.6-0.4,1.3-0.7,2-0.7s1.4,0.2,2.1,0.6c0.4,0.2,0.8,0.3,1.2,0.4v10.6h-0.1c-0.7,0.1-1.4,0.3-2.1,0.6
			l-0.8,0.3c-0.8,0.2-1.6,0.3-2.5,0.3c-0.5,0-1,0-1.5,0.1V24.9C76.6,24.7,76.9,24.6,77.2,24.5 M85.1,23.8c0.6-0.3,1.4-0.5,2.1-0.6
			c0.7,0,1.4,0.3,2,0.7c0.3,0.2,0.5,0.3,0.8,0.5l0.8,0.3v11.1c-0.5-0.1-1-0.1-1.5-0.1c-0.8,0.1-1.7,0-2.5-0.3L86,35.1
			c-0.7-0.2-1.4-0.4-2.1-0.6l0,0V24.1C84.3,24.2,84.6,24,85.1,23.8 M93.8,34.7c-0.2-0.2-0.4-0.3-0.4-0.5V29c0-0.2,0.1-0.3,0.4-0.5
			c0.1-0.1,0.3-0.2,0.4-0.4c0.1-0.2,0.2-0.4,0.2-0.6s-0.1-0.4-0.2-0.6s-0.3-0.3-0.4-0.4s-0.4-0.3-0.4-0.5v-1.9H93
			c-0.9,0.1-1.8,0-2.7-0.3c-0.3-0.1-0.5-0.3-0.8-0.5c-0.7-0.5-1.5-0.8-2.4-0.8c-0.8,0-1.6,0.2-2.3,0.6c-0.4,0.2-0.7,0.3-1.1,0.4
			h-0.2c-0.4-0.1-0.8-0.2-1.1-0.4c-0.7-0.3-1.5-0.5-2.3-0.6c-0.9,0-1.7,0.3-2.4,0.8c-0.2,0.2-0.5,0.3-0.8,0.5
			c-0.9,0.2-1.8,0.3-2.7,0.3H74V26c0,0.2-0.1,0.3-0.4,0.5l-0.4,0.4c-0.1,0.2-0.2,0.4-0.2,0.6s0.1,0.4,0.2,0.6s0.3,0.3,0.4,0.4
			S74,28.8,74,29v5.2c0,0.2-0.1,0.3-0.4,0.5L73.2,35c-0.1,0.2-0.2,0.4-0.2,0.6c0,0.2,0.1,0.4,0.2,0.6c0.1,0.2,0.3,0.3,0.4,0.4
			c0.1,0.1,0.4,0.3,0.4,0.5v1.8h19.6v-1.8c0-0.2,0.1-0.3,0.4-0.5l0.4-0.4c0.1-0.2,0.2-0.4,0.2-0.6c0-0.2-0.1-0.4-0.2-0.6
			C94.2,34.9,94,34.8,93.8,34.7"/>
		<path class="st7" d="M91.4,82.3L53.3,46.1L15.2,82.3C12,75.6,10.3,68.4,10.3,61V45h86v16C96.4,68.4,94.8,75.7,91.4,82.3
			 M79.3,86.1c-3,2.9-7.8,2.9-10.8,0s-3-7.7,0-10.6l0,0c3-2.9,7.8-2.9,10.8,0C82.2,78.4,82.3,83.1,79.3,86.1
			C79.3,86,79.3,86.1,79.3,86.1 M45.8,62.3c0-4.1,3.4-7.4,7.5-7.4s7.5,3.3,7.5,7.4s-3.4,7.4-7.5,7.4S45.8,66.4,45.8,62.3 M77,101.2
			c-10.2,9.4-20.8,14-23.7,14.8c-2.8-0.7-13.5-5.4-23.7-14.8l-0.8-0.7L53.2,75l24.4,25.5C77.5,100.7,77.3,101,77,101.2 M27.4,86.1
			c-3-2.9-3-7.7,0-10.6s7.8-2.9,10.8,0l0,0c3,2.9,3,7.7,0,10.6S30.4,89,27.4,86.1 M96.3,43.8h-86v-25h86V43.8z M97.6,17.6H9.1v43.3
			C9,80,19.8,93.8,28.8,102c9.8,9,20.9,14.3,24.4,15.1h0.2c3.5-0.7,14.5-6.1,24.4-15.1c9.1-8.3,19.8-22.1,19.7-41.1L97.6,17.6
			L97.6,17.6z"/>
		<path class="st5" d="M114.7,108.4c0,4.3,1.2,7.5,5.8,7.5c4.2,0,6.5-2.8,6.5-7.7v-8.5c0-0.6-0.1-1.1-0.2-1.7
			c-0.2-1.1-1.2-1.5-2.6-1.7v-0.8h7.4v0.8c-1.5,0.2-2.5,0.6-2.6,1.7c-0.1,0.5-0.2,1.1-0.2,1.7v8.6c0,6.6-4.2,9-8.3,9
			c-6.6,0-8.7-3.3-8.7-8.8v-9.1c0-2.9,0.1-2.7-2.6-3.1v-0.8h8.4v0.8c-2.8,0.4-2.6,0.2-2.6,3.1C114.9,99.4,114.7,108.4,114.7,108.4z"
			/>
		<path class="st5" d="M149.2,117.2c-3.8-4.5-7.7-9.1-11.7-13.6V114c0,0.4,0.1,0.9,0.2,1.3c0.1,0.8,0.9,1.2,2.5,1.3v0.6h-5.9v-0.6
			c1.1-0.1,2-0.5,2.1-1.3c0-0.4,0.1-0.7,0.1-1.3v-11.1c-0.6-1-1.7-1.6-2.8-1.6v-0.6h4.3l10.8,12.9l0,0v-9.7c0-0.5-0.1-0.9-0.1-1.3
			c-0.1-0.8-0.9-1.2-2.5-1.3v-0.6h5.9v0.6c-1.1,0.1-2,0.5-2.1,1.3c0,0.4-0.1,0.7-0.1,1.3v13.4h-0.7V117.2z"/>
		<path class="st5" d="M161.1,114.2c0,2.2-0.1,2,2.1,2.3v0.6h-6.5v-0.6c2.2-0.3,2.1-0.1,2.1-2.3v-10.7c0-2.2,0.1-2-2.1-2.3v-0.6h6.5
			v0.6c-2.2,0.3-2.1,0.1-2.1,2.3V114.2z"/>
		<path class="st5" d="M173.5,101.2c-1.3,0-2.3,0.4-1.5,2.7c0.9,2.8,2.4,6.9,3.6,10.5l4.5-10.9c0.6-1.5,0-2.2-1.7-2.2v-0.6h5.2v0.6
			c-0.9,0-1.7,0.6-2,1.4c-2,4.8-4.1,9.7-6,14.5h-1.2c-1.4-4.1-3.1-8.6-4.5-12.6c-0.8-2.5-1.6-3.2-2.8-3.2v-0.6h6.5L173.5,101.2
			L173.5,101.2z"/>
		<path class="st5" d="M187.4,116.5c2.2-0.3,2.1-0.1,2.1-2.3v-10.7c0-2.2,0.1-2.1-2.1-2.3v-0.6h10.8v3.8h-0.7
			c-0.3-1.8-0.8-3.1-2.5-3.1h-3.2v6.8h2c1.5,0,2.2-0.6,2.2-2h0.7v5H196c0-1.4-0.6-2.2-2.2-2.2h-2v5.4c0,2,0.9,2.2,3.1,2.2
			c3.5,0,3.3-0.9,4.4-3.5h0.7l-0.8,4.3h-11.8V116.5L187.4,116.5z"/>
		<path class="st5" d="M208.4,109h2c2.1,0,3-1.6,3-4.2s-1.4-3.5-3.2-3.5h-1.9L208.4,109L208.4,109z M204.1,100.6h7
			c2.5,0,4.8,1.3,4.8,4c0,2.2-1.3,4.1-3.4,4.8l2.4,3.5c0.9,1.5,2.1,2.8,3.4,3.9v0.3h-2.5c-1.4,0-2.2-2.6-5.1-7.3h-2.3v4.4
			c0,2.2-0.1,2,2.1,2.3v0.6h-6.4v-0.6c2.2-0.3,2.1-0.1,2.1-2.3v-10.7c0-2.2,0.1-2-2.1-2.3V100.6z"/>
		<path class="st5" d="M230.4,104.1c-0.2-1.7-1.1-3-3-3c-1.3-0.1-2.5,0.8-2.6,2.1c0,0.1,0,0.2,0,0.4c0,1.7,1.7,2.7,4.1,4.5
			c2.5,1.9,3.4,3.1,3.4,5c0,2.8-2.9,4.4-5.8,4.4c-1.4,0-2.8-0.3-4.2-0.7c-0.1,0-0.2-0.1-0.2-0.4V113h0.7c0.3,2.6,2,3.7,3.9,3.7
			c1.7,0,3.1-1.3,3.1-3l0,0c0-1.5-0.8-2.8-4.4-5.1c-1.3-0.8-2.9-1.8-2.9-4.4c0-2.1,2.4-3.8,5.2-3.8c1.2,0,2.3,0.1,3.4,0.5
			c0.2,0,0.2,0.1,0.2,0.3v3.2L230.4,104.1L230.4,104.1z"/>
		<path class="st5" d="M241.6,114.2c0,2.2-0.1,2,2.1,2.3v0.6h-6.5v-0.6c2.2-0.3,2.1-0.1,2.1-2.3v-10.7c0-2.2,0.1-2-2.1-2.3v-0.6h6.5
			v0.6c-2.2,0.3-2.1,0.1-2.1,2.3V114.2z"/>
		<path class="st5" d="M255.9,114.2c0,2.2-0.1,2,2.1,2.3v0.6h-6.5v-0.6c2.2-0.3,2.1-0.1,2.1-2.3v-12.8h-2.2c-2.1,0-2.5,1.3-3.4,2.9
			h-0.6l0.7-3.6h13.3l0.7,3.6h-0.6c-0.8-1.6-1.2-2.9-3.4-2.9h-2.2L255.9,114.2L255.9,114.2z"/>
		<path class="st5" d="M269.1,116.5c2.2-0.3,2.1-0.1,2.1-2.3v-3.6l-3.7-7.2c-0.8-1.6-1.4-2.1-2.5-2.1v-0.6h6.1v0.6
			c-1.8,0-1.7,0.9-1,2.1l2.9,5.9l3.3-5.9c0.8-1.5,0-2.1-1.4-2.1v-0.6h5v0.6c-0.7,0-1.3,0.3-2,1.4l-4.1,7.1c-0.2,0.6-0.3,1.2-0.3,1.8
			v2.7c0,2.2-0.1,2,2.1,2.3v0.6h-6.5V116.5L269.1,116.5z"/>
		<path class="st5" d="M302.9,105.5c0-3.2-2-3.3-2.5-3.3c-3.4,0-5.6,5.9-5.6,9.9c0,1.6,0.3,4.5,2.5,4.5
			C301,116.5,302.9,110.9,302.9,105.5 M292,111.4c0-4,3.5-10,8.7-10c4.2,0,5.1,2.8,5.1,5.6c0,3.3-2.7,10.6-8.7,10.6
			C293.1,117.4,292,114.4,292,111.4"/>
		<path class="st5" d="M320.3,102.4l-0.8,0.6h-4.1c-1.5,7.3-3.4,14.6-5.8,21.7h-1.4l4.4-21.7h-3l0.3-1.3h2.9
			c1.6-6.5,7.2-7.2,8.4-7.2c0.8,0,2.3,0.1,2.7,0.6l-0.4,2l-0.8,0.4c-0.5-1-1.6-1.7-2.7-1.8c-1.9,0-3.3,1.3-4.1,4.5l-0.4,1.5h4.6
			L320.3,102.4z"/>
		<path class="st5" d="M338.9,113.3c0,2.9-0.1,2.7,2.6,3.1v0.8h-8.3v-0.8c2.8-0.4,2.6-0.2,2.6-3.1V99.4c0-2.9,0.1-2.7-2.6-3.1v-0.8
			h8.1c5.2,0,7.7,2,7.7,5.7c0,4.5-4.1,6.8-8.9,6.5v-0.6c3.9,0.1,5.7-2.2,5.7-5.6s-1.7-5-5.2-5h-1.9L338.9,113.3L338.9,113.3z"/>
		<path class="st5" d="M353.5,116.5c2.2-0.3,2.1-0.1,2.1-2.3v-10.7c0-2.2,0.1-2.1-2.1-2.3v-0.6h10.8v3.8h-0.6
			c-0.3-1.8-0.8-3.1-2.5-3.1h-3.3v6.8h2c1.5,0,2.2-0.6,2.2-2h0.7v5h-0.7c0-1.4-0.6-2.2-2.2-2.2h-2v5.4c0,2,0.9,2.2,3.1,2.2
			c3.5,0,3.3-0.9,4.4-3.5h0.7l-0.8,4.3h-11.8C353.6,117.2,353.5,116.5,353.5,116.5z"/>
		<path class="st5" d="M384.7,117.2c-3.8-4.5-7.8-9.1-11.7-13.6V114c0,0.5,0.1,0.9,0.1,1.3c0.1,0.8,0.9,1.2,2.5,1.3v0.6h-5.8v-0.6
			c1.1-0.1,2-0.5,2.1-1.3c0.1-0.4,0.2-0.9,0.2-1.3v-11.1c-0.6-1-1.7-1.6-2.8-1.6v-0.6h4.3c3.6,4.3,7.4,8.6,10.8,12.9l0,0v-9.7
			c0-0.5-0.1-0.9-0.1-1.3c-0.1-0.8-0.9-1.2-2.5-1.3v-0.6h5.8v0.6c-1.1,0.1-2,0.5-2.1,1.3c0,0.4-0.2,0.7-0.2,1.3v13.4h-0.6
			L384.7,117.2L384.7,117.2z"/>
		<path class="st5" d="M406.7,117.2c-3.8-4.5-7.8-9.1-11.7-13.6V114c0,0.4,0.1,0.9,0.2,1.3c0.1,0.8,0.9,1.2,2.5,1.3v0.6h-5.8v-0.6
			c1.1-0.1,2-0.5,2.1-1.3c0-0.4,0.2-0.7,0.2-1.3v-11.1c-0.6-1-1.7-1.6-2.8-1.6v-0.6h4.3c3.6,4.3,7.4,8.6,10.8,12.9l0,0v-9.7
			c0-0.5-0.1-0.9-0.1-1.3c-0.1-0.8-0.9-1.2-2.5-1.3v-0.6h5.9v0.6c-1.1,0.1-2,0.5-2.1,1.3c-0.1,0.4-0.2,0.9-0.2,1.3v13.4h-0.8V117.2z
			"/>
		<path class="st5" d="M422.2,104.1c-0.2-1.7-1.1-3-3-3c-1.3-0.1-2.5,0.8-2.6,2.1c0,0.1,0,0.2,0,0.4c0,1.7,1.7,2.7,4.1,4.5
			c2.5,1.9,3.4,3.1,3.4,5c0,2.8-2.9,4.4-5.8,4.4c-1.4,0-2.8-0.3-4.2-0.7c-0.1,0-0.2-0.1-0.2-0.4V113h0.7c0.3,2.6,2,3.7,3.9,3.7
			c1.7,0,3.1-1.3,3.1-3l0,0c0-1.5-0.8-2.8-4.4-5.1c-1.3-0.8-2.9-1.8-2.9-4.4c0-2.1,2.4-3.8,5.2-3.8c1.1,0,2.2,0.1,3.3,0.5
			c0.2,0,0.2,0.1,0.2,0.3v3.2L422.2,104.1L422.2,104.1z"/>
		<path class="st5" d="M431.9,116.5c2.2-0.3,2.1-0.1,2.1-2.3v-3.6l-3.7-7.2c-0.8-1.6-1.5-2.1-2.5-2.1v-0.6h6.1v0.6
			c-1.8,0-1.6,0.9-1,2.1l2.9,5.9l3.3-5.9c0.8-1.5,0.1-2.1-1.3-2.1v-0.6h4.9v0.6c-0.7,0-1.3,0.3-2,1.4l-4.1,7.1
			c-0.2,0.6-0.3,1.2-0.3,1.8v2.7c0,2.2-0.1,2,2.1,2.3v0.6h-6.5V116.5L431.9,116.5z"/>
		<path class="st5" d="M446.8,116.5c2.2-0.3,2.1-0.1,2.1-2.3v-10.7c0-2.2,0.1-2.1-2.1-2.3v-0.6h6.5v0.6c-2.2,0.3-2.1,0.2-2.1,2.3v11
			c0,1.7,0.9,1.9,3.1,1.9c3.5,0,3.3-0.9,4.4-3.5h0.6l-0.8,4.3h-11.8L446.8,116.5L446.8,116.5z"/>
		<path class="st5" d="M466.3,101.2c-1.3,0-2.3,0.4-1.5,2.7c0.9,2.8,2.4,6.9,3.6,10.5l4.5-10.9c0.6-1.5,0-2.2-1.7-2.2v-0.6h5.2v0.6
			c-0.9,0-1.7,0.6-2,1.4c-2,4.8-4.1,9.7-6.1,14.5H467c-1.4-4.1-3.1-8.6-4.5-12.6c-0.9-2.5-1.6-3.2-2.8-3.2v-0.6h6.5L466.3,101.2
			L466.3,101.2z"/>
		<path class="st5" d="M486.7,110.8l-2.5-7.7l0,0l-2.8,7.7H486.7z M480.8,111.6l-1.1,3.2c-0.3,0.6,0,1.3,0.6,1.6
			c0.2,0.1,0.4,0.1,0.6,0.1v0.6h-4.3v-0.6c0.8,0,1.4-0.5,1.7-1.2c1-2.1,3.9-9.8,5.8-15h1.3c1.6,4.7,4.1,12.1,4.9,14.1
			c0.6,1.3,0.9,2,2,2v0.6h-5.6v-0.6c1.5,0,1.7-0.7,1.2-1.9l-1-3.1L480.8,111.6L480.8,111.6z"/>
		<path class="st5" d="M510.4,117.2c-3.9-4.5-7.8-9.1-11.7-13.6V114c0,0.4,0.1,0.9,0.2,1.3c0.1,0.8,0.9,1.2,2.5,1.3v0.6h-5.9v-0.6
			c1.1-0.1,2-0.5,2.1-1.3c0.1-0.4,0.2-0.9,0.2-1.3v-11.1c-0.6-1-1.7-1.6-2.8-1.6v-0.6h4.3l10.8,12.9l0,0v-9.7c0-0.4-0.1-0.9-0.2-1.3
			c-0.1-0.8-0.9-1.2-2.5-1.3v-0.6h5.9v0.6c-1.1,0.1-2,0.5-2.1,1.3c0,0.4-0.2,0.7-0.2,1.3v13.4h-0.6L510.4,117.2L510.4,117.2z"/>
		<path class="st5" d="M521.7,114.2c0,2.2-0.1,2,2.1,2.3v0.6h-6.5v-0.6c2.2-0.3,2.1-0.1,2.1-2.3v-10.7c0-2.2,0.1-2-2.1-2.3v-0.6h6.5
			v0.6c-2.2,0.3-2.1,0.1-2.1,2.3V114.2L521.7,114.2z"/>
		<path class="st5" d="M537.6,110.8l-2.5-7.7l0,0l-2.8,7.7H537.6z M531.8,111.6l-1.1,3.2c-0.3,0.6,0,1.3,0.6,1.6
			c0.2,0.1,0.4,0.1,0.6,0.1v0.6h-4.3v-0.6c0.8,0,1.4-0.5,1.7-1.2c1-2.1,3.9-9.8,5.8-15h1.3c1.6,4.7,4.1,12.1,4.9,14.1
			c0.6,1.3,0.9,2,2,2v0.6h-5.6v-0.6c1.5,0,1.7-0.7,1.2-1.9l-1-3.1L531.8,111.6L531.8,111.6z"/>
		<path class="st5" d="M109,17.6h20.3c6.6,0,11.9,1.5,15.8,4.4c3.7,2.6,5.9,6.8,5.8,11.2c0,4.5-1.7,8.1-5.1,10.5
			c-3.4,2.4-8.2,3.7-14.5,3.7c-2.9,0-5.7-0.2-8.6-0.6v15.3c0,3.3,0.5,5.6,1.3,6.9c0.8,1.3,2.5,1.9,5,1.9v1.6h-20v-1.6
			c2.5,0,4.1-0.6,5-1.9s1.3-3.5,1.3-6.5V28.1c0-3.2-0.5-5.6-1.3-6.9s-2.5-1.9-5-1.9C109,19.3,109,17.6,109,17.6z M129.5,19.7h-6.9
			v24.5c2.2,0.7,4.6,1,6.9,0.9c4.2,0,7.5-1,9.9-3.2c2.5-2.2,3.8-5.4,3.7-8.7c0.1-3.6-1.1-7.1-3.6-9.7
			C137.1,21,133.8,19.7,129.5,19.7z"/>
		<path class="st5" d="M177.7,63.7v2.5c-1.7,2.3-3.9,4.2-6.4,5.6c-2.4,1.2-5.1,1.8-7.8,1.7c-4.9,0.2-9.7-1.6-13.3-5
			c-3.5-3.3-5.4-7.9-5.3-12.6c-0.1-4.8,1.7-9.5,5-13c3.1-3.4,7.6-5.4,12.3-5.3c3.9,0,7.6,1.4,10.5,4c2.8,2.4,4.4,5.8,4.4,9.5v0.7
			h-25.3v0.5c-0.1,3.3,0.5,6.6,1.7,9.7c1,2.6,2.8,4.9,5.1,6.5c2,1.5,4.4,2.3,6.9,2.3c2,0.1,4-0.4,5.8-1.4
			C173,68.4,175.1,66.6,177.7,63.7z M151.9,50.1h18.8v-0.6c0.1-2.7-0.8-5.3-2.6-7.2c-1.7-1.8-4.1-2.7-6.6-2.7
			c-2.5-0.1-5,0.9-6.7,2.8C152.9,44.5,152,47.2,151.9,50.1z"/>
		<path class="st5" d="M190,37.6v6.8c4.1-4.5,8.1-6.8,12.5-6.8c3.1-0.1,6.1,1.1,8.3,3.3c2.3,2.2,3.3,5.2,3.3,8.8V65
			c0,2.3,0.4,3.9,1.2,4.6s2.4,1.1,4.6,1.1v1.6h-18.4v-1.6c2.3,0,3.9-0.3,4.7-0.8s1.2-1.7,1.2-3.3V49c0.1-2.1-0.7-4.1-2.2-5.7
			c-1.5-1.4-3.5-2.2-5.6-2.1c-3.2,0-6.5,2.2-9.8,6.6v16.5c0,2.8,0.4,4.6,1.1,5.4c0.8,0.7,2.3,1.1,4.6,1.1v1.6h-18v-1.6
			c2.6,0,4.2-0.5,4.8-1.2s0.9-2.6,0.9-5.3V45.1c0-2-0.4-3.3-1.1-4c-0.8-0.6-2.3-0.9-4.6-0.9v-1.6l10.8-1H190z"/>
		<path class="st5" d="M231.8,37.6v6.8c4.1-4.5,8.1-6.8,12.5-6.8c3.1-0.1,6.1,1.1,8.3,3.3c2.3,2.2,3.3,5.2,3.3,8.8V65
			c0,2.3,0.4,3.9,1.2,4.6s2.4,1.1,4.6,1.1v1.6h-18.4v-1.6c2.3,0,3.9-0.3,4.7-0.8s1.2-1.7,1.2-3.3V49c0.1-2.1-0.7-4.1-2.2-5.7
			c-1.5-1.4-3.5-2.2-5.6-2.1c-3.2,0-6.5,2.2-9.8,6.6v16.5c0,2.8,0.4,4.6,1.1,5.4c0.8,0.7,2.3,1.1,4.6,1.1v1.6h-18.1v-1.6
			c2.6,0,4.2-0.5,4.8-1.2s0.9-2.6,0.9-5.3V45.1c0-2-0.4-3.3-1.1-4c-0.8-0.6-2.3-0.9-4.6-0.9v-1.6l10.8-1H231.8z"/>
		<path class="st5" d="M311.2,60.5h1.7l-3.4,12h-40.4v-1.6c1.9,0.1,3.7-0.7,4.9-2.1c0.9-1.4,1.4-3.7,1.4-7.1V27.2c0-3-0.5-5-1.3-6.2
			s-2.5-1.8-5-1.8v-1.7H289v1.6c-2.3,0-3.8,0.6-4.7,2c-0.9,1.4-1.4,3.5-1.4,6.6v36.6c0,2,0.5,3.4,1.3,4.2c0.8,0.7,2.5,1.1,5,1.1h11
			c3.4,0,5.8-0.6,7.2-1.8C308.9,66.7,310.1,64.3,311.2,60.5z"/>
		<path class="st5" d="M324.5,37.6h1.7v28.5c0,1.9,0.4,3.2,1.2,3.7c0.8,0.6,2.4,0.9,4.5,0.9v1.6H313v-1.6c2.7,0,4.5-0.3,5.3-0.9
			s1.2-1.9,1.2-3.8V45.1c0-2-0.4-3.4-1.1-4.1c-0.8-0.6-2.5-1-5.4-1v-1.6L324.5,37.6z M323,20.1c1.1,0,2.2,0.4,2.9,1.2
			c0.8,0.7,1.2,1.8,1.2,2.9s-0.4,2.2-1.2,3c-0.8,0.8-1.8,1.2-2.9,1.2s-2.2-0.4-3-1.2c-0.8-0.8-1.3-1.8-1.3-3c0-1.1,0.4-2.1,1.2-2.9
			C320.7,20.5,321.8,20.1,323,20.1z"/>
		<path class="st5" d="M340.3,12.4h1.7v30.3c1.5-1.6,3.3-2.9,5.3-3.7c2-0.9,4.1-1.4,6.3-1.4c4.3-0.1,8.4,1.7,11.3,4.7
			c3.1,3.1,4.8,7.3,4.6,11.7c0.1,5.2-2.2,10.1-6.2,13.4c-4.2,3.5-9.9,5.2-17.3,5.2c-3.6-0.1-7.1-0.4-10.7-1V20.7
			c0-2.7-0.4-4.3-1-4.9c-0.7-0.6-2.4-0.9-5.1-0.9v-1.6L340.3,12.4z M342,45.1v19.3c0,2.5,0.5,4.3,1.3,5.2s2.4,1.4,4.5,1.4
			c4.4,0,8-1.4,10.6-4.3c2.5-2.9,3.9-6.8,3.9-11.9c0-4.3-1.1-7.8-3.4-10.5s-4.9-4.1-8.1-4.1C347.5,40.3,344.6,41.9,342,45.1
			L342,45.1z"/>
		<path class="st5" d="M382.2,37.6V45c2.3-2,4.8-3.9,7.4-5.7c1.3-0.9,2.8-1.5,4.4-1.7c2.4,0.1,4.6,1.1,6.3,2.7l-2.6,6
			c-3.7-1.9-6.4-3-8.2-3c-2,0-4.4,1.4-7.4,4.1v18.7c0,1.9,0.4,3.2,1.2,3.8c0.8,0.6,2.4,1,4.5,1v1.6h-18.2v-1.6c2.4,0,4-0.4,4.7-1.1
			c0.8-0.7,1.1-2.5,1.1-5.4V46c0-2.3-0.4-3.8-1.2-4.5c-0.8-0.7-2.7-1-5.9-1v-1.6l12.1-1C380.4,37.8,382.2,37.6,382.2,37.6z"/>
		<path class="st5" d="M410.6,73.5c-2.5,0-5-0.9-6.9-2.6c-1.9-1.6-2.9-4-2.9-6.4c0-2.2,0.9-4.3,2.5-5.8c1.6-1.6,5-3,10.1-4.5
			c2.2-0.5,4.4-1.2,6.4-2.2v-2.5c0.1-2.2-0.6-4.3-2.1-5.9c-1.4-1.5-3.5-2.3-5.6-2.2c-2.1,0-4.1,0.7-5.7,1.9
			c-1.7,1.4-2.9,3.2-3.5,5.3l-1.8-0.5c1.1-6,6.5-10.4,12.7-10.4c3.3-0.1,6.5,1,9,3.2c2.4,2.4,3.7,5.7,3.5,9.1v14.5
			c-0.1,1.4,0,2.8,0.4,4.2c0.2,0.7,0.8,1.1,1.5,1.1c0.5,0,1-0.2,1.2-0.6c0.5-0.8,0.8-1.7,1.1-2.6h1.7c-0.1,1.8-0.8,3.6-2,5
			c-1.2,1.3-2.9,1.9-4.7,1.9c-2.8,0-4.7-1.6-5.8-4.8c-1.3,1.5-2.8,2.8-4.5,3.8C413.8,73.1,412.2,73.5,410.6,73.5z M419.9,65.5V54
			c-0.9,0.4-2.4,0.9-4.2,1.6c-3.5,1.1-5.7,2.3-6.6,3.4c-1,1.3-1.5,3-1.4,4.6c-0.1,1.6,0.5,3.1,1.5,4.4c0.9,1.1,2.2,1.8,3.7,1.9
			c1.4,0,2.8-0.4,4.1-1.2C418.2,67.9,419.2,66.8,419.9,65.5z"/>
		<path class="st5" d="M445.3,37.6V45c2.3-2.1,4.8-4,7.4-5.7c1.3-0.9,2.8-1.5,4.4-1.7c2.4,0.1,4.6,1.1,6.3,2.7l-2.6,6
			c-3.7-1.9-6.4-3-8.2-3c-2,0-4.4,1.4-7.4,4.1v18.7c0,1.9,0.4,3.2,1.2,3.8c0.8,0.6,2.4,1,4.5,1v1.6h-18.2v-1.6c2.4,0,4-0.4,4.7-1.1
			c0.8-0.7,1.1-2.5,1.1-5.4V46c0-2.3-0.4-3.8-1.2-4.5c-0.8-0.7-2.7-1-5.9-1v-1.6l12.1-1L445.3,37.6L445.3,37.6z"/>
		<path class="st5" d="M476.7,37.6h1.7v28.5c0,1.9,0.4,3.2,1.2,3.7c0.8,0.6,2.4,0.9,4.5,0.9v1.6h-18.9v-1.6c2.7,0,4.5-0.3,5.3-0.9
			s1.2-1.9,1.2-3.8V45.1c0-2-0.4-3.4-1.1-4.1c-0.8-0.6-2.5-1-5.4-1v-1.6L476.7,37.6z M475.2,20.1c1.1,0,2.2,0.4,2.9,1.2
			c0.8,0.8,1.2,1.8,1.2,2.9s-0.4,2.2-1.2,3c-0.8,0.8-1.8,1.2-2.9,1.2s-2.2-0.4-3-1.2c-0.8-0.8-1.3-1.8-1.3-3c0-1.1,0.4-2.1,1.2-2.9
			C472.9,20.5,474.1,20,475.2,20.1z"/>
		<path class="st5" d="M516.6,63.7v2.5c-1.7,2.3-3.9,4.2-6.4,5.6c-2.4,1.2-5.1,1.8-7.8,1.7c-4.9,0.2-9.7-1.6-13.3-5
			c-3.5-3.3-5.4-7.9-5.3-12.6c-0.1-4.8,1.7-9.5,5-13c3.1-3.4,7.6-5.4,12.3-5.3c3.9,0,7.6,1.4,10.5,4c2.8,2.4,4.5,5.8,4.4,9.5v0.7
			h-25.3v0.5c-0.1,3.3,0.5,6.6,1.7,9.7c1,2.6,2.8,4.9,5.1,6.5c2,1.5,4.4,2.3,6.9,2.3c2,0.1,4-0.4,5.8-1.4
			C511.8,68.4,513.9,66.6,516.6,63.7z M490.7,50.1h18.8v-0.6c0.1-2.7-0.8-5.3-2.6-7.2c-1.7-1.8-4.1-2.7-6.6-2.7
			c-2.5-0.1-5,0.9-6.7,2.8C491.8,44.5,490.8,47.2,490.7,50.1z"/>
		<path class="st5" d="M542.3,37.6V48h-2c-0.2-2.3-1.2-4.5-2.8-6.2c-1.5-1.5-3.6-2.4-5.8-2.3c-1.5-0.1-3,0.4-4.2,1.3
			c-1,0.8-1.6,2-1.6,3.3s0.5,2.6,1.4,3.6s3,2.3,6.3,3.7c4.2,1.9,6.9,3.6,8.3,5.4c3.1,4.2,2.5,9.9-1.2,13.5c-2,2-4.8,3.1-7.6,3.1
			c-2.1-0.2-4.2-0.7-6-1.7c-0.9-0.4-1.8-0.7-2.7-0.9c-0.6,0-1.1,0.2-1.5,0.6c-0.4,0.5-0.7,1.1-0.8,1.7h-1.7V61.6h1.7
			c0.4,2.8,1.8,5.4,4,7.2c1.9,1.7,4.5,2.7,7.1,2.7c3.2,0.1,5.9-2.4,5.9-5.6c0-0.1,0-0.2,0-0.3c0-1.5-0.6-3-1.6-4.2s-3.4-2.5-6.9-4.1
			c-4-1.8-6.6-3.3-7.8-4.8s-1.9-3.4-1.9-5.4c0-2.6,1.1-5.1,3.1-6.9c2-1.9,4.6-2.9,7.4-2.9c1.5,0,3,0.3,4.3,0.9
			c0.9,0.4,1.8,0.6,2.7,0.6c1,0,1.8-0.7,2.1-1.6L542.3,37.6L542.3,37.6z"/>
	</g>
	<g id="reserve" class="st0">
		<g id="ares_00000075850750989083236430000010995112233948486027_" class="st8">
			<text transform="matrix(0.9975 0 0 1 606 96.7217)" class="st5 st9 st10">Reserve</text>
		</g>
	</g>
	<g id="faq_only" class="st0">
		<g id="ares_00000121982528278229119270000008301192892181030844_" class="st8">
			<text transform="matrix(0.9975 0 0 1 626 96.7217)" class="st5 st9 st10">FAQ</text>
		</g>
	</g>
	<g id="aeon" class="st0">
		<g id="navy" class="st8">
			<rect x="-9" y="-4" class="st11" width="1204" height="153"/>
		</g>
		<g id="lib_logo" class="st8">
			<rect x="108" y="83.3" class="st5" width="434.4" height="1.5"/>
			<path class="st5" d="M98.4,15.9h-92V61c-0.1,19.7,11,33.9,20.3,42.3c10.2,9.3,21.5,14.7,25.3,15.5l0.5,0.1l0.5-0.1
				c3.8-0.8,15-6.2,25.3-15.5c9.2-8.4,20.4-22.7,20.3-42.3L98.4,15.9"/>
			<path class="st6" d="M92.7,34.8L92.7,34.8c0.1,0.1,0.3,0.2,0.4,0.4s0.2,0.4,0.2,0.6c0,0.2-0.1,0.3-0.2,0.5s-0.3,0.3-0.4,0.4
				c-0.1,0.1-0.4,0.3-0.4,0.6v1.6H73.1v-1.6c0-0.2-0.2-0.5-0.4-0.6c-0.1-0.1-0.3-0.2-0.4-0.4s-0.2-0.4-0.2-0.6
				c0-0.2,0.1-0.4,0.2-0.6c0.1-0.2,0.3-0.3,0.4-0.4s0.4-0.3,0.4-0.6v-5.2c0-0.2-0.2-0.5-0.4-0.6c-0.1-0.1-0.3-0.2-0.4-0.4
				c-0.1-0.2-0.2-0.4-0.2-0.6s0.1-0.4,0.2-0.6l0.4-0.4c0.2-0.2,0.4-0.3,0.4-0.6V24h0.3c1,0.1,1.9,0,2.8-0.4c0.3-0.1,0.6-0.3,0.8-0.5
				c0.7-0.5,1.4-0.7,2.3-0.7c0.8,0,1.5,0.2,2.2,0.6c0.4,0.2,0.8,0.3,1.2,0.4h0.1c0.4-0.1,0.8-0.2,1.2-0.4c0.7-0.3,1.4-0.5,2.2-0.6
				c0.8,0,1.6,0.3,2.3,0.7c0.3,0.2,0.5,0.3,0.8,0.5c0.9,0.3,1.9,0.4,2.8,0.4h0.3v1.7c0,0.2,0.2,0.5,0.4,0.6c0.1,0.1,0.3,0.2,0.4,0.4
				c0.1,0.2,0.2,0.4,0.2,0.6s-0.1,0.4-0.2,0.6l-0.4,0.4c-0.2,0.2-0.4,0.3-0.4,0.6v5.2C92.3,34.4,92.5,34.6,92.7,34.8 M69,37.5
				c-1.1,1.5-2.7,2.5-4.5,3c-0.6,0.1-1.1,0.2-1.7,0.2c-3,0-5.8-1.3-8.6-2.7c-0.3-0.2-0.7-0.4-1-0.6c-1.8-0.9-4.3-2.3-6.4-2.3
				c-0.6,0-1.2,0.1-1.7,0.4H45v0.1c0,0.3-0.1,0.5-0.2,0.7c-0.5,0.9-1.1,1.7-2,2.2c-1.3,1-2.9,1.7-4.6,1.8c-0.3,0-0.5,0-0.8-0.1
				s-0.6-0.3-0.8-0.6c-0.1-0.1-0.2-0.3-0.3-0.5c-0.1-0.1-0.1-0.3-0.1-0.5v-0.1h-0.1C35.5,38.6,35,38,35,37.3c0-0.5,0.4-0.8,0.7-1.2
				c0.5-0.6,0.9-1,0.2-1.7l-0.2-0.2c-0.1-0.1-0.2-0.1-0.3-0.3c-0.6-0.6-0.3-1.9,0-2.8V31c0.3-1,0.7-1.9,1.1-2.8
				c0.6-1.4,1.5-2.7,2.6-3.7h0.2c0.1,0.2,0.2,0.4,0.4,0.6l0.2,0.3L40,25c0.4-0.9,0.8-1.6,1.6-1.8c0.7-0.2,1.4-0.1,1.9,0.4l0.2,0.1
				l0.1-0.2c0.3-0.5,0.8-0.8,1.3-0.8c0.7,0,1.3,0.3,1.7,0.8l0.1,0.1l0.1-0.1c0.6-0.5,1.4-0.8,2.2-0.8c0.6,0.1,1.2,0.6,1.3,1.2
				l0.1,0.2l0.2-0.1c0.6-0.3,1.4-0.3,2,0c0.4,0.3,0.6,0.7,0.5,1.2v0.2h0.2c0.8-0.2,1.6,0,2.2,0.5c0.4,0.4,0.5,1,0.5,1.6v0.2h0.2
				c0.6-0.1,1.2,0.1,1.5,0.6c0.2,0.4,0.3,0.8,0.1,1.2l-0.1,0.2h0.2c0.4,0.1,0.7,0.3,0.9,0.6c0.1,0.5,0.1,0.9-0.1,1.4l-0.1,0.2L59,32
				c0.4,0.2,0.7,0.5,0.9,0.8c0.2,0.6,0.2,1.2,0,1.8v0.1l0.1,0.1c0.6,0.5,1.2,1,1.9,1.5c1.3,0.9,3.3,1.4,4.6,0.3
				c0.5-0.5,0.8-1.2,0.6-1.9c-0.1-0.6-0.6-1-1.1-1.2c-1-0.2-1.9,0.7-2.5,1.7h-0.1c-0.1,0-0.1,0-0.1-0.1c-0.6-1.1-0.6-2.4-0.1-3.5
				c0.6-0.8,1.5-1.4,2.5-1.5h0.2v-0.2c-0.1-1.4,0.3-2.7,1.2-3.7c0.8-0.7,1.9-1,3-0.7H70v0.1c-1.1,2.7-0.8,3.7-0.3,5.9
				c0.1,0.2,0.1,0.4,0.2,0.6C70.3,33.9,70,35.9,69,37.5 M32.1,34.8L32.1,34.8c0.1,0.1,0.3,0.2,0.4,0.4s0.2,0.4,0.2,0.6
				c0,0.2-0.1,0.3-0.2,0.5s-0.3,0.3-0.4,0.4c-0.1,0.1-0.4,0.3-0.4,0.6v1.6H12.5v-1.6c0-0.2-0.2-0.5-0.4-0.6
				c-0.1-0.1-0.3-0.2-0.4-0.4s-0.2-0.4-0.2-0.6c0-0.2,0.1-0.4,0.2-0.6c0.1-0.2,0.3-0.3,0.4-0.4c0.1-0.1,0.4-0.3,0.4-0.6v-5.2
				c0-0.2-0.2-0.5-0.4-0.6c-0.1-0.1-0.3-0.2-0.4-0.4c-0.1-0.2-0.2-0.4-0.2-0.6s0.1-0.4,0.2-0.6l0.4-0.4c0.2-0.2,0.4-0.3,0.4-0.6V24
				h0.3c1,0.1,1.9,0,2.8-0.4c0.3-0.1,0.6-0.3,0.8-0.5c0.7-0.5,1.4-0.7,2.3-0.7c0.8,0,1.5,0.2,2.2,0.6c0.4,0.2,0.8,0.3,1.2,0.4h0.1
				c0.4-0.1,0.8-0.2,1.2-0.4c0.7-0.3,1.4-0.5,2.2-0.6c0.8,0,1.6,0.3,2.3,0.7c0.3,0.2,0.5,0.3,0.8,0.5c0.9,0.3,1.9,0.4,2.8,0.4h0.3
				v1.7c0,0.2,0.2,0.5,0.4,0.6c0.1,0.1,0.3,0.2,0.4,0.4c0.1,0.2,0.2,0.4,0.2,0.6s-0.1,0.4-0.2,0.6l-0.4,0.4
				c-0.2,0.2-0.4,0.3-0.4,0.6v5.2C31.8,34.4,31.9,34.6,32.1,34.8 M8.8,18.3c0,0,0.1,26.2,0,26.1h87.3V18.3H8.8z"/>
			<path class="st7" d="M38.8,33.6c0.3,0,0.6,0.1,0.8,0.3c0.1,0.1,0.2,0.2,0.3,0.2c0.2,0.2,0.2,0.5,0,0.6l0,0
				c-0.2,0.2-0.5,0.4-0.6,0.5c-0.4,0.3-0.9,0.6-1.4,0.4c-0.2-0.2,0.2-0.5,0-1.2C37.8,33.9,38.4,33.6,38.8,33.6"/>
			<path class="st7" d="M38.9,25.2c-0.9,1-1.7,2.2-2.3,3.4c-0.5,0.9-0.8,1.8-1,2.7v0.1c-0.2,0.6-0.5,1.9-0.1,2.4
				c0.1,0.1,0.2,0.1,0.2,0.2c0,0.1,0.2,0.1,0.3,0.2c0.9,0.9,0.3,1.7-0.2,2.2c-0.3,0.4-0.6,0.6-0.6,0.9c0,0.6,0.8,0.9,1,0.9
				s0.2,0.1,0.2,0.3s0,0.3,0.1,0.5c0.1,0.1,0.1,0.3,0.2,0.4c0.2,0.2,0.4,0.4,0.7,0.5c0.2,0.1,0.4,0.1,0.7,0.1
				c1.6-0.1,3.2-0.7,4.4-1.7c0.8-0.5,1.4-1.2,1.9-2c0.1-0.2,0.1-0.4,0.1-0.6l-1.2-0.2l0,0c-0.1,0-0.2-0.1-0.3-0.3
				c0-0.3,0.2-0.4,0.7-0.6c0.1-0.1,0.3-0.2,0.4-0.3c0.7-0.5,1.2-0.8,1.5-1c-0.3-0.4-0.6-0.8-0.8-1.2c-0.1-0.2-0.3-0.4-0.5-0.6
				c-0.7-0.8-1.8-0.9-2.6-0.5c-0.4,0.2-0.7,0.5-1,0.7s-0.5,0.5-0.8,0.6c-0.1,0.1-0.2,0.1-0.3,0c0,0,0,0,0-0.1
				c-0.1-0.1-0.1-0.3,0-0.4l0.1-0.1c0.4-0.4,1.3-1.3,1.3-1.9C40.8,28.3,39.4,26,38.9,25.2 M46.8,34.7c2.2,0,4.6,1.3,6.6,2.4
				c0.4,0.2,0.7,0.4,1,0.6c3.3,1.7,6.6,3.2,10.1,2.5c1.7-0.4,3.2-1.4,4.2-2.8c0.9-1.6,1.1-3.4,0.5-5.1c-0.1-0.2-0.1-0.5-0.2-0.6
				c-0.6-2.1-0.9-3.2,0.1-5.8c-0.8-0.1-1.7,0.2-2.4,0.6c-0.8,1-1.3,2.3-1.1,3.6c0,0.1-0.1,0.3-0.2,0.3c0,0,0,0-0.1,0
				c-1,0-1.9,0.5-2.5,1.3c-0.4,0.8-0.4,1.8-0.1,2.7c0.6-0.7,1.4-1.7,2.6-1.4c0.7,0.2,1.3,0.7,1.4,1.5c0.2,0.8-0.1,1.7-0.7,2.3
				c-1.5,1.2-3.7,0.7-5.1-0.3c-1.8-1.3-3.5-2.9-5-4.5c-0.3-0.4-0.6-0.6-0.8-1c-1-1.3-2.3-2.5-3.6-3.5c-1.8-1.3-4-1.9-6.2-1.8
				c-1.8,0-3.5,0.5-5.1,1.3c0.5,0.9,0.8,1.9,0.9,3c0,0.2,0,0.3-0.1,0.5c1.1-0.6,2.4-0.3,3.2,0.6c0.2,0.2,0.4,0.5,0.6,0.7
				c0.3,0.5,0.6,0.9,1,1.3c0.1,0.1,0.1,0.1,0.1,0.2c0,0.1,0,0.1-0.1,0.2c-0.6,0.4-1.2,0.8-1.7,1.2c-0.1,0.1-0.3,0.2-0.4,0.3
				c-0.1,0-0.1,0-0.1,0.1l0.8,0.2C45.3,34.8,46,34.6,46.8,34.7 M62.8,40.8c-3,0-5.8-1.3-8.7-2.8c-0.3-0.2-0.7-0.4-1-0.6
				c-2.3-1.2-5.8-3.1-8-1.9c0,0.3-0.1,0.6-0.2,0.8c-0.5,0.9-1.2,1.7-2.1,2.3c-1.3,1.1-3,1.7-4.7,1.8c-0.3,0-0.6,0-0.8-0.1
				c-0.4-0.1-0.7-0.4-0.9-0.6c-0.1-0.1-0.2-0.3-0.3-0.5C36,39.1,36,38.9,36,38.7c-0.8-0.3-1.3-0.7-1.3-1.4c0.1-0.5,0.3-0.9,0.7-1.3
				c0.6-0.6,0.8-0.9,0.3-1.5l-0.2-0.2L35.2,34c-0.7-0.7-0.3-2.1-0.1-2.9V31c0.3-1,0.6-1.9,1.1-2.8c0.6-1.5,1.5-2.8,2.7-3.8
				c0.1-0.1,0.1-0.1,0.2-0.1c0.1,0,0.1,0,0.2,0.1c0,0,0.5,0.7,1,1.7c1.7-0.8,3.4-1.3,5.3-1.4c2.4-0.2,4.7,0.5,6.6,1.9
				c1.4,1,2.6,2.3,3.6,3.6c0.3,0.4,0.6,0.6,0.8,1c1.5,1.7,3.1,3.2,4.9,4.5c1.2,0.9,3.1,1.4,4.4,0.3c0.5-0.4,0.7-1.1,0.6-1.8
				c-0.1-0.5-0.5-0.9-1-1.1c-0.9-0.2-1.7,0.7-2.4,1.7C63,35,62.9,35,62.8,35c-0.1,0-0.2-0.1-0.2-0.2c-0.6-1.1-0.7-2.5-0.1-3.7
				c0.6-0.9,1.5-1.5,2.5-1.6c0-1.8,0.4-3.1,1.3-3.8c0.9-0.7,2-1,3.1-0.7c0.1,0,0.1,0,0.2,0.1s0.1,0.2,0,0.2l0,0
				c-1.1,2.7-0.8,3.7-0.3,5.8c0.1,0.2,0.1,0.4,0.2,0.6c0.6,1.8,0.4,3.8-0.6,5.5c-1.5,2.4-4.5,3-4.6,3.1
				C63.9,40.7,63.4,40.9,62.8,40.8"/>
			<path class="st7" d="M37.1,38.9h-0.8c-0.2,0-0.3-0.1-0.3-0.3s0.1-0.3,0.3-0.3c1.8,0.3,3.5-0.4,4.7-1.7c0.1-0.1,0.3-0.1,0.4,0
				c0.1,0.1,0.1,0.3,0,0.4C40.2,38.3,38.7,39,37.1,38.9"/>
			<path class="st7" d="M59.3,34.8L59.3,34.8c-0.2-0.1-0.3-0.2-0.2-0.4c0.3-0.6,0.4-1.2,0.1-1.6c-0.2-0.4-0.5-0.6-0.9-0.7
				c-0.1,0-0.1-0.1-0.2-0.1v-0.2c0.2-0.4,0.2-0.9,0.2-1.4c-0.1-0.4-0.8-0.5-0.9-0.5c-0.1,0-0.1,0-0.2-0.1c0-0.1-0.1-0.2,0-0.3
				c0.1-0.1,0.3-0.8,0.1-1.1c-0.4-0.6-1.5-0.3-1.5-0.3c-0.2,0-0.3-0.1-0.4-0.3v-0.1c0.2-0.5,0-1.1-0.3-1.6c-0.8-0.7-2.3-0.3-2.3-0.3
				c-0.2,0-0.3-0.1-0.4-0.3v-0.1c0,0,0.3-0.8-0.3-1.2c-0.6-0.3-1.3-0.2-1.9,0.2c-0.1,0.1-0.2,0.1-0.3,0l0,0c-0.1,0-0.1-0.1-0.2-0.2
				c-0.1-0.1-0.2-1.1-1-1.2c-0.8,0-1.5,0.4-2.1,0.9C46.5,24,46.5,24,46.4,24s-0.1,0-0.2-0.1c-0.1-0.1-0.8-0.9-1.6-0.8
				S43.4,24,43.4,24s-0.1,0.1-0.2,0.2c-0.1,0-0.2,0-0.3-0.1c0,0-0.8-0.8-1.7-0.5c-1.1,0.4-1.4,1.8-1.5,2.1l0,0
				c0,0.1-0.2,0.2-0.3,0.2s-0.2-0.2-0.2-0.3l0,0c0.1-0.5,0.5-2,1.8-2.5c0.7-0.2,1.4-0.1,2,0.4c0.3-0.6,0.9-0.9,1.5-0.9
				c0.7,0.1,1.4,0.4,1.9,0.8c0.6-0.6,1.4-0.9,2.3-0.8c0.7,0.1,1.3,0.6,1.4,1.3c0.7-0.3,1.4-0.3,2.1,0c0.4,0.3,0.7,0.9,0.6,1.4
				c0.8-0.2,1.7,0,2.4,0.5c0.4,0.4,0.6,1.1,0.5,1.7c0.6-0.1,1.3,0.1,1.7,0.6c0.2,0.4,0.2,0.9,0.1,1.3c0.4,0.1,0.8,0.3,1,0.7
				c0.1,0.5,0.1,1-0.1,1.5c0.5,0.2,0.8,0.5,1,0.9C59.7,33.4,59.7,34.1,59.3,34.8C59.5,34.8,59.4,34.8,59.3,34.8"/>
			<path class="st7" d="M58,38.4L58,38.4c-0.2,0-0.3-0.1-0.3-0.3c0.1-0.9-0.5-1.1-0.9-1.3c-0.1,0-0.3-0.1-0.4-0.1
				c-0.3-0.2-0.3-0.5-0.3-0.8c0-0.4-0.1-0.8-0.3-1.1c-0.5-0.6-1.4-0.2-1.4-0.2h-0.3C54,34.5,54,34.4,54,34.3
				c0.1-0.6-0.1-1.2-0.5-1.6c-0.5-0.3-1.2-0.5-1.8-0.3c-0.1,0-0.2,0-0.2-0.1s-0.1-0.1-0.1-0.2c0.1-0.6-0.2-1.2-0.8-1.5
				c-0.4-0.3-0.9-0.3-1.3-0.1c-1.1,0.6-1.5,0.6-2.6-0.2c-0.3-0.3-0.7-0.4-1-0.3c-0.5,0.2-1,0.6-1.1,1.1c-0.1,0.1-0.2,0.2-0.4,0.1
				S44,31,44.1,30.8c0.3-0.7,0.8-1.2,1.5-1.4c0.5-0.1,1.1,0,1.5,0.4c0.9,0.6,1.2,0.6,2.1,0.2c0.6-0.3,1.3-0.3,1.9,0.1
				c0.6,0.4,0.9,1,0.9,1.7c0.7-0.1,1.4,0,2,0.4c0.5,0.4,0.7,1,0.7,1.7c0.6-0.2,1.2,0,1.6,0.5c0.3,0.4,0.4,0.9,0.5,1.4v0.4
				c0.1,0,0.1,0.1,0.3,0.1c0.9,0.1,1.5,1,1.3,1.8l0,0C58.3,38.3,58.2,38.4,58,38.4"/>
			<path class="st7" d="M32.3,35.7c0,0.1,0,0.2-0.1,0.3L32,36.2c-0.3,0.2-0.5,0.5-0.6,0.8v1.2H12.9V37c0-0.4-0.2-0.7-0.6-0.8
				C12.2,36.1,12,36,12,35.9c0,0,0-0.1,0-0.2l0,0c0-0.1,0-0.2,0.1-0.3l0.3-0.3c0.3-0.2,0.5-0.5,0.6-0.8v-5.2c0-0.4-0.2-0.7-0.6-0.8
				c-0.1-0.1-0.3-0.2-0.3-0.3C12,27.9,12,27.8,12,27.7l0,0c0-0.1,0-0.2,0.1-0.3l0.3-0.3c0.3-0.2,0.5-0.5,0.6-0.8v-1.2h1.4v12.1h6.8
				c0.1,0.5,0.6,0.9,1.1,0.8c0.5,0,1-0.3,1.1-0.8h6.7V25.1h1.4v1.2c0,0.4,0.2,0.7,0.6,0.8l0.3,0.3c0.1,0.1,0.1,0.2,0.1,0.3l0,0
				c0,0.1,0,0.2-0.1,0.3l-0.3,0.3c-0.3,0.2-0.5,0.5-0.6,0.8v5.2c0,0.4,0.2,0.7,0.6,0.8l0.3,0.3C32.4,35.5,32.3,35.6,32.3,35.7z
				 M15.6,24.5c0.3-0.1,0.6-0.3,0.8-0.5c0.6-0.5,1.3-0.7,2.1-0.7c0.7,0,1.4,0.2,2.1,0.6c0.4,0.2,0.8,0.3,1.2,0.4v10.6h-0.1
				c-0.7,0.1-1.4,0.3-2.1,0.6l-0.8,0.3c-0.8,0.2-1.6,0.3-2.5,0.3c-0.5,0-1,0-1.5,0.1V24.9C15.1,24.7,15.4,24.6,15.6,24.5 M23.6,23.8
				c0.6-0.3,1.4-0.5,2.1-0.6c0.7,0,1.4,0.3,2,0.7c0.3,0.2,0.5,0.3,0.8,0.5l0.8,0.3v11.1c-0.5-0.1-1-0.1-1.5-0.1
				c-0.8,0.1-1.7,0-2.5-0.3l-0.8-0.3c-0.7-0.2-1.4-0.4-2.1-0.6l0,0V24.1C22.8,24.1,23.2,24,23.6,23.8 M32.2,34.7
				c-0.2-0.2-0.4-0.3-0.4-0.5V29c0-0.2,0.1-0.3,0.4-0.5c0.1-0.1,0.3-0.2,0.4-0.4c0.1-0.2,0.2-0.4,0.2-0.6s-0.1-0.4-0.2-0.6
				c-0.1-0.2-0.3-0.3-0.4-0.4s-0.4-0.3-0.4-0.5v-1.9h-0.4c-0.9,0.1-1.8,0-2.7-0.3c-0.3-0.1-0.5-0.3-0.8-0.5
				c-0.7-0.5-1.5-0.8-2.4-0.8c-0.8,0-1.6,0.2-2.3,0.6c-0.4,0.2-0.7,0.3-1.1,0.4h-0.2c-0.4-0.1-0.8-0.2-1.1-0.4
				c-0.7-0.3-1.5-0.5-2.3-0.6c-0.9,0-1.7,0.3-2.4,0.8c-0.2,0.2-0.5,0.3-0.8,0.5c-0.9,0.3-1.8,0.3-2.7,0.3h-0.2V26
				c0,0.2-0.1,0.3-0.4,0.5l-0.4,0.4c-0.1,0.2-0.2,0.4-0.2,0.6s0.1,0.4,0.2,0.6c0.1,0.2,0.3,0.3,0.4,0.4s0.4,0.3,0.4,0.5v5.2
				c0,0.2-0.1,0.3-0.4,0.5L11.7,35c-0.1,0.2-0.2,0.4-0.2,0.6c0,0.2,0.1,0.4,0.2,0.6c0.1,0.2,0.3,0.3,0.4,0.4
				c0.1,0.1,0.4,0.3,0.4,0.5v1.8h19.6v-1.8c0-0.2,0.1-0.3,0.4-0.5l0.4-0.4c0.1-0.2,0.2-0.4,0.2-0.6c0-0.2-0.1-0.4-0.2-0.6
				C32.6,34.9,32.4,34.8,32.2,34.7"/>
			<path class="st7" d="M92.8,35.7c0,0.1,0,0.2-0.1,0.3l-0.3,0.3c-0.3,0.2-0.5,0.5-0.6,0.8v1.2H73.4v-1.2c0-0.4-0.2-0.7-0.6-0.8
				L72.5,36c-0.1-0.1-0.1-0.2-0.1-0.3l0,0c0-0.1,0-0.2,0.1-0.3l0.3-0.3c0.3-0.2,0.5-0.5,0.6-0.8v-5.2c0-0.4-0.2-0.7-0.6-0.8L72.5,28
				c-0.1-0.1-0.1-0.2-0.1-0.3l0,0c0-0.1,0-0.2,0.1-0.3l0.3-0.3c0.3-0.2,0.5-0.5,0.6-0.8v-1.2h1.4v12.1h6.8c0.1,0.5,0.6,0.9,1.1,0.8
				c0.5,0,0.9-0.3,1-0.8h6.8V25.1H92v1.2c0,0.4,0.2,0.7,0.6,0.8l0.3,0.3c0.1,0.1,0.1,0.2,0.1,0.3l0,0c0,0.1,0,0.2-0.1,0.3l-0.3,0.3
				c-0.3,0.2-0.5,0.5-0.6,0.8v5.2c0,0.4,0.2,0.7,0.6,0.8l0.3,0.3C92.9,35.5,92.9,35.6,92.8,35.7L92.8,35.7z M76.2,24.5
				c0.3-0.1,0.6-0.3,0.8-0.5c0.6-0.4,1.3-0.7,2-0.7s1.4,0.2,2.1,0.6c0.4,0.2,0.8,0.3,1.2,0.4v10.6h-0.1c-0.7,0.1-1.4,0.3-2.1,0.6
				l-0.8,0.3c-0.8,0.2-1.6,0.3-2.5,0.3c-0.5,0-1,0-1.5,0.1V24.9C75.6,24.7,75.9,24.6,76.2,24.5 M84.1,23.8c0.6-0.3,1.4-0.5,2.1-0.6
				c0.7,0,1.4,0.3,2,0.7c0.3,0.2,0.5,0.3,0.8,0.5l0.8,0.3v11.1c-0.5-0.1-1-0.1-1.5-0.1c-0.8,0.1-1.7,0-2.5-0.3L85,35.1
				c-0.7-0.2-1.4-0.4-2.1-0.6l0,0V24.1C83.3,24.2,83.6,24,84.1,23.8 M92.8,34.7c-0.2-0.2-0.4-0.3-0.4-0.5V29c0-0.2,0.1-0.3,0.4-0.5
				c0.1-0.1,0.3-0.2,0.4-0.4c0.1-0.2,0.2-0.4,0.2-0.6s-0.1-0.4-0.2-0.6s-0.3-0.3-0.4-0.4s-0.4-0.3-0.4-0.5v-1.9H92
				c-0.9,0.1-1.8,0-2.7-0.3c-0.3-0.1-0.5-0.3-0.8-0.5c-0.7-0.5-1.5-0.8-2.4-0.8c-0.8,0-1.6,0.2-2.3,0.6c-0.4,0.2-0.7,0.3-1.1,0.4
				h-0.2c-0.4-0.1-0.8-0.2-1.1-0.4c-0.7-0.3-1.5-0.5-2.3-0.6c-0.9,0-1.7,0.3-2.4,0.8c-0.2,0.2-0.5,0.3-0.8,0.5
				c-0.9,0.2-1.8,0.3-2.7,0.3H73V26c0,0.2-0.1,0.3-0.4,0.5l-0.4,0.4c-0.1,0.2-0.2,0.4-0.2,0.6s0.1,0.4,0.2,0.6s0.3,0.3,0.4,0.4
				S73,28.8,73,29v5.2c0,0.2-0.1,0.3-0.4,0.5L72.2,35c-0.1,0.2-0.2,0.4-0.2,0.6c0,0.2,0.1,0.4,0.2,0.6c0.1,0.2,0.3,0.3,0.4,0.4
				c0.1,0.1,0.4,0.3,0.4,0.5v1.8h19.6v-1.8c0-0.2,0.1-0.3,0.4-0.5l0.4-0.4c0.1-0.2,0.2-0.4,0.2-0.6c0-0.2-0.1-0.4-0.2-0.6
				C93.2,34.9,93,34.8,92.8,34.7"/>
			<path class="st7" d="M90.4,82.3L52.3,46.1L14.2,82.3C11,75.6,9.3,68.4,9.3,61V45h86v16C95.4,68.4,93.8,75.7,90.4,82.3 M78.3,86.1
				c-3,2.9-7.8,2.9-10.8,0s-3-7.7,0-10.6l0,0c3-2.9,7.8-2.9,10.8,0C81.2,78.4,81.3,83.1,78.3,86.1C78.3,86,78.3,86.1,78.3,86.1
				 M44.8,62.3c0-4.1,3.4-7.4,7.5-7.4s7.5,3.3,7.5,7.4s-3.4,7.4-7.5,7.4S44.8,66.4,44.8,62.3 M76,101.2c-10.2,9.4-20.8,14-23.7,14.8
				c-2.8-0.7-13.5-5.4-23.7-14.8l-0.8-0.7L52.2,75l24.4,25.5C76.5,100.7,76.3,101,76,101.2 M26.4,86.1c-3-2.9-3-7.7,0-10.6
				s7.8-2.9,10.8,0l0,0c3,2.9,3,7.7,0,10.6S29.4,89,26.4,86.1 M95.3,43.8h-86v-25h86V43.8z M96.6,17.6H8.1v43.3
				C8,80,18.8,93.8,27.8,102c9.8,9,20.9,14.3,24.4,15.1h0.2c3.5-0.7,14.5-6.1,24.4-15.1c9.1-8.3,19.8-22.1,19.7-41.1L96.6,17.6
				L96.6,17.6z"/>
			<path class="st5" d="M113.7,108.4c0,4.3,1.2,7.5,5.8,7.5c4.2,0,6.5-2.8,6.5-7.7v-8.5c0-0.6-0.1-1.1-0.2-1.7
				c-0.2-1.1-1.2-1.5-2.6-1.7v-0.8h7.4v0.8c-1.5,0.2-2.5,0.6-2.6,1.7c-0.1,0.5-0.2,1.1-0.2,1.7v8.6c0,6.6-4.2,9-8.3,9
				c-6.6,0-8.7-3.3-8.7-8.8v-9.1c0-2.9,0.1-2.7-2.6-3.1v-0.8h8.4v0.8c-2.8,0.4-2.6,0.2-2.6,3.1C113.9,99.4,113.7,108.4,113.7,108.4z
				"/>
			<path class="st5" d="M148.2,117.2c-3.8-4.5-7.7-9.1-11.7-13.6V114c0,0.4,0.1,0.9,0.2,1.3c0.1,0.8,0.9,1.2,2.5,1.3v0.6h-5.9v-0.6
				c1.1-0.1,2-0.5,2.1-1.3c0-0.4,0.1-0.7,0.1-1.3v-11.1c-0.6-1-1.7-1.6-2.8-1.6v-0.6h4.3l10.8,12.9l0,0v-9.7c0-0.5-0.1-0.9-0.1-1.3
				c-0.1-0.8-0.9-1.2-2.5-1.3v-0.6h5.9v0.6c-1.1,0.1-2,0.5-2.1,1.3c0,0.4-0.1,0.7-0.1,1.3v13.4h-0.7V117.2z"/>
			<path class="st5" d="M160.1,114.2c0,2.2-0.1,2,2.1,2.3v0.6h-6.5v-0.6c2.2-0.3,2.1-0.1,2.1-2.3v-10.7c0-2.2,0.1-2-2.1-2.3v-0.6
				h6.5v0.6c-2.2,0.3-2.1,0.1-2.1,2.3V114.2z"/>
			<path class="st5" d="M172.5,101.2c-1.3,0-2.3,0.4-1.5,2.7c0.9,2.8,2.4,6.9,3.6,10.5l4.5-10.9c0.6-1.5,0-2.2-1.7-2.2v-0.6h5.2v0.6
				c-0.9,0-1.7,0.6-2,1.4c-2,4.8-4.1,9.7-6,14.5h-1.2c-1.4-4.1-3.1-8.6-4.5-12.6c-0.8-2.5-1.6-3.2-2.8-3.2v-0.6h6.5L172.5,101.2
				L172.5,101.2z"/>
			<path class="st5" d="M186.4,116.5c2.2-0.3,2.1-0.1,2.1-2.3v-10.7c0-2.2,0.1-2.1-2.1-2.3v-0.6h10.8v3.8h-0.7
				c-0.3-1.8-0.8-3.1-2.5-3.1h-3.2v6.8h2c1.5,0,2.2-0.6,2.2-2h0.7v5H195c0-1.4-0.6-2.2-2.2-2.2h-2v5.4c0,2,0.9,2.2,3.1,2.2
				c3.5,0,3.3-0.9,4.4-3.5h0.7l-0.8,4.3h-11.8V116.5L186.4,116.5z"/>
			<path class="st5" d="M207.4,109h2c2.1,0,3-1.6,3-4.2s-1.4-3.5-3.2-3.5h-1.9L207.4,109L207.4,109z M203.1,100.6h7
				c2.5,0,4.8,1.3,4.8,4c0,2.2-1.3,4.1-3.4,4.8l2.4,3.5c0.9,1.5,2.1,2.8,3.4,3.9v0.3h-2.5c-1.4,0-2.2-2.6-5.1-7.3h-2.3v4.4
				c0,2.2-0.1,2,2.1,2.3v0.6h-6.4v-0.6c2.2-0.3,2.1-0.1,2.1-2.3v-10.7c0-2.2,0.1-2-2.1-2.3V100.6z"/>
			<path class="st5" d="M229.4,104.1c-0.2-1.7-1.1-3-3-3c-1.3-0.1-2.5,0.8-2.6,2.1c0,0.1,0,0.2,0,0.4c0,1.7,1.7,2.7,4.1,4.5
				c2.5,1.9,3.4,3.1,3.4,5c0,2.8-2.9,4.4-5.8,4.4c-1.4,0-2.8-0.3-4.2-0.7c-0.1,0-0.2-0.1-0.2-0.4V113h0.7c0.3,2.6,2,3.7,3.9,3.7
				c1.7,0,3.1-1.3,3.1-3l0,0c0-1.5-0.8-2.8-4.4-5.1c-1.3-0.8-2.9-1.8-2.9-4.4c0-2.1,2.4-3.8,5.2-3.8c1.2,0,2.3,0.1,3.4,0.5
				c0.2,0,0.2,0.1,0.2,0.3v3.2L229.4,104.1L229.4,104.1z"/>
			<path class="st5" d="M240.6,114.2c0,2.2-0.1,2,2.1,2.3v0.6h-6.5v-0.6c2.2-0.3,2.1-0.1,2.1-2.3v-10.7c0-2.2,0.1-2-2.1-2.3v-0.6
				h6.5v0.6c-2.2,0.3-2.1,0.1-2.1,2.3V114.2z"/>
			<path class="st5" d="M254.9,114.2c0,2.2-0.1,2,2.1,2.3v0.6h-6.5v-0.6c2.2-0.3,2.1-0.1,2.1-2.3v-12.8h-2.2c-2.1,0-2.5,1.3-3.4,2.9
				h-0.6l0.7-3.6h13.3l0.7,3.6h-0.6c-0.8-1.6-1.2-2.9-3.4-2.9h-2.2L254.9,114.2L254.9,114.2z"/>
			<path class="st5" d="M268.1,116.5c2.2-0.3,2.1-0.1,2.1-2.3v-3.6l-3.7-7.2c-0.8-1.6-1.4-2.1-2.5-2.1v-0.6h6.1v0.6
				c-1.8,0-1.7,0.9-1,2.1l2.9,5.9l3.3-5.9c0.8-1.5,0-2.1-1.4-2.1v-0.6h5v0.6c-0.7,0-1.3,0.3-2,1.4l-4.1,7.1
				c-0.2,0.6-0.3,1.2-0.3,1.8v2.7c0,2.2-0.1,2,2.1,2.3v0.6h-6.5V116.5L268.1,116.5z"/>
			<path class="st5" d="M301.9,105.5c0-3.2-2-3.3-2.5-3.3c-3.4,0-5.6,5.9-5.6,9.9c0,1.6,0.3,4.5,2.5,4.5
				C300,116.5,301.9,110.9,301.9,105.5 M291,111.4c0-4,3.5-10,8.7-10c4.2,0,5.1,2.8,5.1,5.6c0,3.3-2.7,10.6-8.7,10.6
				C292.1,117.4,291,114.4,291,111.4"/>
			<path class="st5" d="M319.3,102.4l-0.8,0.6h-4.1c-1.5,7.3-3.4,14.6-5.8,21.7h-1.4l4.4-21.7h-3l0.3-1.3h2.9
				c1.6-6.5,7.2-7.2,8.4-7.2c0.8,0,2.3,0.1,2.7,0.6l-0.4,2l-0.8,0.4c-0.5-1-1.6-1.7-2.7-1.8c-1.9,0-3.3,1.3-4.1,4.5l-0.4,1.5h4.6
				L319.3,102.4z"/>
			<path class="st5" d="M337.9,113.3c0,2.9-0.1,2.7,2.6,3.1v0.8h-8.3v-0.8c2.8-0.4,2.6-0.2,2.6-3.1V99.4c0-2.9,0.1-2.7-2.6-3.1v-0.8
				h8.1c5.2,0,7.7,2,7.7,5.7c0,4.5-4.1,6.8-8.9,6.5v-0.6c3.9,0.1,5.7-2.2,5.7-5.6s-1.7-5-5.2-5h-1.9L337.9,113.3L337.9,113.3z"/>
			<path class="st5" d="M352.5,116.5c2.2-0.3,2.1-0.1,2.1-2.3v-10.7c0-2.2,0.1-2.1-2.1-2.3v-0.6h10.8v3.8h-0.6
				c-0.3-1.8-0.8-3.1-2.5-3.1h-3.3v6.8h2c1.5,0,2.2-0.6,2.2-2h0.7v5h-0.7c0-1.4-0.6-2.2-2.2-2.2h-2v5.4c0,2,0.9,2.2,3.1,2.2
				c3.5,0,3.3-0.9,4.4-3.5h0.7l-0.8,4.3h-11.8C352.6,117.2,352.5,116.5,352.5,116.5z"/>
			<path class="st5" d="M383.7,117.2c-3.8-4.5-7.8-9.1-11.7-13.6V114c0,0.5,0.1,0.9,0.1,1.3c0.1,0.8,0.9,1.2,2.5,1.3v0.6h-5.8v-0.6
				c1.1-0.1,2-0.5,2.1-1.3c0.1-0.4,0.2-0.9,0.2-1.3v-11.1c-0.6-1-1.7-1.6-2.8-1.6v-0.6h4.3c3.6,4.3,7.4,8.6,10.8,12.9l0,0v-9.7
				c0-0.5-0.1-0.9-0.1-1.3c-0.1-0.8-0.9-1.2-2.5-1.3v-0.6h5.8v0.6c-1.1,0.1-2,0.5-2.1,1.3c0,0.4-0.2,0.7-0.2,1.3v13.4h-0.6
				L383.7,117.2L383.7,117.2z"/>
			<path class="st5" d="M405.7,117.2c-3.8-4.5-7.8-9.1-11.7-13.6V114c0,0.4,0.1,0.9,0.2,1.3c0.1,0.8,0.9,1.2,2.5,1.3v0.6h-5.8v-0.6
				c1.1-0.1,2-0.5,2.1-1.3c0-0.4,0.2-0.7,0.2-1.3v-11.1c-0.6-1-1.7-1.6-2.8-1.6v-0.6h4.3c3.6,4.3,7.4,8.6,10.8,12.9l0,0v-9.7
				c0-0.5-0.1-0.9-0.1-1.3c-0.1-0.8-0.9-1.2-2.5-1.3v-0.6h5.9v0.6c-1.1,0.1-2,0.5-2.1,1.3c-0.1,0.4-0.2,0.9-0.2,1.3v13.4h-0.8V117.2
				z"/>
			<path class="st5" d="M421.2,104.1c-0.2-1.7-1.1-3-3-3c-1.3-0.1-2.5,0.8-2.6,2.1c0,0.1,0,0.2,0,0.4c0,1.7,1.7,2.7,4.1,4.5
				c2.5,1.9,3.4,3.1,3.4,5c0,2.8-2.9,4.4-5.8,4.4c-1.4,0-2.8-0.3-4.2-0.7c-0.1,0-0.2-0.1-0.2-0.4V113h0.7c0.3,2.6,2,3.7,3.9,3.7
				c1.7,0,3.1-1.3,3.1-3l0,0c0-1.5-0.8-2.8-4.4-5.1c-1.3-0.8-2.9-1.8-2.9-4.4c0-2.1,2.4-3.8,5.2-3.8c1.1,0,2.2,0.1,3.3,0.5
				c0.2,0,0.2,0.1,0.2,0.3v3.2L421.2,104.1L421.2,104.1z"/>
			<path class="st5" d="M430.9,116.5c2.2-0.3,2.1-0.1,2.1-2.3v-3.6l-3.7-7.2c-0.8-1.6-1.5-2.1-2.5-2.1v-0.6h6.1v0.6
				c-1.8,0-1.6,0.9-1,2.1l2.9,5.9l3.3-5.9c0.8-1.5,0.1-2.1-1.3-2.1v-0.6h4.9v0.6c-0.7,0-1.3,0.3-2,1.4l-4.1,7.1
				c-0.2,0.6-0.3,1.2-0.3,1.8v2.7c0,2.2-0.1,2,2.1,2.3v0.6h-6.5V116.5L430.9,116.5z"/>
			<path class="st5" d="M445.8,116.5c2.2-0.3,2.1-0.1,2.1-2.3v-10.7c0-2.2,0.1-2.1-2.1-2.3v-0.6h6.5v0.6c-2.2,0.3-2.1,0.2-2.1,2.3
				v11c0,1.7,0.9,1.9,3.1,1.9c3.5,0,3.3-0.9,4.4-3.5h0.6l-0.8,4.3h-11.8L445.8,116.5L445.8,116.5z"/>
			<path class="st5" d="M465.3,101.2c-1.3,0-2.3,0.4-1.5,2.7c0.9,2.8,2.4,6.9,3.6,10.5l4.5-10.9c0.6-1.5,0-2.2-1.7-2.2v-0.6h5.2v0.6
				c-0.9,0-1.7,0.6-2,1.4c-2,4.8-4.1,9.7-6.1,14.5H466c-1.4-4.1-3.1-8.6-4.5-12.6c-0.9-2.5-1.6-3.2-2.8-3.2v-0.6h6.5L465.3,101.2
				L465.3,101.2z"/>
			<path class="st5" d="M485.7,110.8l-2.5-7.7l0,0l-2.8,7.7H485.7z M479.8,111.6l-1.1,3.2c-0.3,0.6,0,1.3,0.6,1.6
				c0.2,0.1,0.4,0.1,0.6,0.1v0.6h-4.3v-0.6c0.8,0,1.4-0.5,1.7-1.2c1-2.1,3.9-9.8,5.8-15h1.3c1.6,4.7,4.1,12.1,4.9,14.1
				c0.6,1.3,0.9,2,2,2v0.6h-5.6v-0.6c1.5,0,1.7-0.7,1.2-1.9l-1-3.1L479.8,111.6L479.8,111.6z"/>
			<path class="st5" d="M509.4,117.2c-3.9-4.5-7.8-9.1-11.7-13.6V114c0,0.4,0.1,0.9,0.2,1.3c0.1,0.8,0.9,1.2,2.5,1.3v0.6h-5.9v-0.6
				c1.1-0.1,2-0.5,2.1-1.3c0.1-0.4,0.2-0.9,0.2-1.3v-11.1c-0.6-1-1.7-1.6-2.8-1.6v-0.6h4.3l10.8,12.9l0,0v-9.7
				c0-0.4-0.1-0.9-0.2-1.3c-0.1-0.8-0.9-1.2-2.5-1.3v-0.6h5.9v0.6c-1.1,0.1-2,0.5-2.1,1.3c0,0.4-0.2,0.7-0.2,1.3v13.4h-0.6
				L509.4,117.2L509.4,117.2z"/>
			<path class="st5" d="M520.7,114.2c0,2.2-0.1,2,2.1,2.3v0.6h-6.5v-0.6c2.2-0.3,2.1-0.1,2.1-2.3v-10.7c0-2.2,0.1-2-2.1-2.3v-0.6
				h6.5v0.6c-2.2,0.3-2.1,0.1-2.1,2.3V114.2L520.7,114.2z"/>
			<path class="st5" d="M536.6,110.8l-2.5-7.7l0,0l-2.8,7.7H536.6z M530.8,111.6l-1.1,3.2c-0.3,0.6,0,1.3,0.6,1.6
				c0.2,0.1,0.4,0.1,0.6,0.1v0.6h-4.3v-0.6c0.8,0,1.4-0.5,1.7-1.2c1-2.1,3.9-9.8,5.8-15h1.3c1.6,4.7,4.1,12.1,4.9,14.1
				c0.6,1.3,0.9,2,2,2v0.6h-5.6v-0.6c1.5,0,1.7-0.7,1.2-1.9l-1-3.1L530.8,111.6L530.8,111.6z"/>
			<path class="st5" d="M108,17.6h20.3c6.6,0,11.9,1.5,15.8,4.4c3.7,2.6,5.9,6.8,5.8,11.2c0,4.5-1.7,8.1-5.1,10.5
				c-3.4,2.4-8.2,3.7-14.5,3.7c-2.9,0-5.7-0.2-8.6-0.6v15.3c0,3.3,0.5,5.6,1.3,6.9c0.8,1.3,2.5,1.9,5,1.9v1.6h-20v-1.6
				c2.5,0,4.1-0.6,5-1.9s1.3-3.5,1.3-6.5V28.1c0-3.2-0.5-5.6-1.3-6.9s-2.5-1.9-5-1.9C108,19.3,108,17.6,108,17.6z M128.5,19.7h-6.9
				v24.5c2.2,0.7,4.6,1,6.9,0.9c4.2,0,7.5-1,9.9-3.2c2.5-2.2,3.8-5.4,3.7-8.7c0.1-3.6-1.1-7.1-3.6-9.7
				C136.1,21,132.8,19.7,128.5,19.7z"/>
			<path class="st5" d="M176.7,63.7v2.5c-1.7,2.3-3.9,4.2-6.4,5.6c-2.4,1.2-5.1,1.8-7.8,1.7c-4.9,0.2-9.7-1.6-13.3-5
				c-3.5-3.3-5.4-7.9-5.3-12.6c-0.1-4.8,1.7-9.5,5-13c3.1-3.4,7.6-5.4,12.3-5.3c3.9,0,7.6,1.4,10.5,4c2.8,2.4,4.4,5.8,4.4,9.5v0.7
				h-25.3v0.5c-0.1,3.3,0.5,6.6,1.7,9.7c1,2.6,2.8,4.9,5.1,6.5c2,1.5,4.4,2.3,6.9,2.3c2,0.1,4-0.4,5.8-1.4
				C172,68.4,174.1,66.6,176.7,63.7z M150.9,50.1h18.8v-0.6c0.1-2.7-0.8-5.3-2.6-7.2c-1.7-1.8-4.1-2.7-6.6-2.7
				c-2.5-0.1-5,0.9-6.7,2.8C151.9,44.5,151,47.2,150.9,50.1z"/>
			<path class="st5" d="M189,37.6v6.8c4.1-4.5,8.1-6.8,12.5-6.8c3.1-0.1,6.1,1.1,8.3,3.3c2.3,2.2,3.3,5.2,3.3,8.8V65
				c0,2.3,0.4,3.9,1.2,4.6s2.4,1.1,4.6,1.1v1.6h-18.4v-1.6c2.3,0,3.9-0.3,4.7-0.8s1.2-1.7,1.2-3.3V49c0.1-2.1-0.7-4.1-2.2-5.7
				c-1.5-1.4-3.5-2.2-5.6-2.1c-3.2,0-6.5,2.2-9.8,6.6v16.5c0,2.8,0.4,4.6,1.1,5.4c0.8,0.7,2.3,1.1,4.6,1.1v1.6h-18v-1.6
				c2.6,0,4.2-0.5,4.8-1.2s0.9-2.6,0.9-5.3V45.1c0-2-0.4-3.3-1.1-4c-0.8-0.6-2.3-0.9-4.6-0.9v-1.6l10.8-1H189z"/>
			<path class="st5" d="M230.8,37.6v6.8c4.1-4.5,8.1-6.8,12.5-6.8c3.1-0.1,6.1,1.1,8.3,3.3c2.3,2.2,3.3,5.2,3.3,8.8V65
				c0,2.3,0.4,3.9,1.2,4.6c0.8,0.7,2.4,1.1,4.6,1.1v1.6h-18.4v-1.6c2.3,0,3.9-0.3,4.7-0.8s1.2-1.7,1.2-3.3V49
				c0.1-2.1-0.7-4.1-2.2-5.7c-1.5-1.4-3.5-2.2-5.6-2.1c-3.2,0-6.5,2.2-9.8,6.6v16.5c0,2.8,0.4,4.6,1.1,5.4c0.8,0.7,2.3,1.1,4.6,1.1
				v1.6h-18.1v-1.6c2.6,0,4.2-0.5,4.8-1.2s0.9-2.6,0.9-5.3V45.1c0-2-0.4-3.3-1.1-4c-0.8-0.6-2.3-0.9-4.6-0.9v-1.6l10.8-1H230.8z"/>
			<path class="st5" d="M310.2,60.5h1.7l-3.4,12h-40.4v-1.6c1.9,0.1,3.7-0.7,4.9-2.1c0.9-1.4,1.4-3.7,1.4-7.1V27.2
				c0-3-0.5-5-1.3-6.2s-2.5-1.8-5-1.8v-1.7H288v1.6c-2.3,0-3.8,0.6-4.7,2c-0.9,1.4-1.4,3.5-1.4,6.6v36.6c0,2,0.5,3.4,1.3,4.2
				c0.8,0.7,2.5,1.1,5,1.1h11c3.4,0,5.8-0.6,7.2-1.8C307.9,66.7,309.1,64.3,310.2,60.5z"/>
			<path class="st5" d="M323.5,37.6h1.7v28.5c0,1.9,0.4,3.2,1.2,3.7c0.8,0.6,2.4,0.9,4.5,0.9v1.6H312v-1.6c2.7,0,4.5-0.3,5.3-0.9
				s1.2-1.9,1.2-3.8V45.1c0-2-0.4-3.4-1.1-4.1c-0.8-0.6-2.5-1-5.4-1v-1.6L323.5,37.6z M322,20.1c1.1,0,2.2,0.4,2.9,1.2
				c0.8,0.7,1.2,1.8,1.2,2.9s-0.4,2.2-1.2,3c-0.8,0.8-1.8,1.2-2.9,1.2s-2.2-0.4-3-1.2c-0.8-0.8-1.3-1.8-1.3-3c0-1.1,0.4-2.1,1.2-2.9
				C319.7,20.5,320.8,20.1,322,20.1z"/>
			<path class="st5" d="M339.3,12.4h1.7v30.3c1.5-1.6,3.3-2.9,5.3-3.7c2-0.9,4.1-1.4,6.3-1.4c4.3-0.1,8.4,1.7,11.3,4.7
				c3.1,3.1,4.8,7.3,4.6,11.7c0.1,5.2-2.2,10.1-6.2,13.4c-4.2,3.5-9.9,5.2-17.3,5.2c-3.6-0.1-7.1-0.4-10.7-1V20.7
				c0-2.7-0.4-4.3-1-4.9c-0.7-0.6-2.4-0.9-5.1-0.9v-1.6L339.3,12.4z M341,45.1v19.3c0,2.5,0.5,4.3,1.3,5.2s2.4,1.4,4.5,1.4
				c4.4,0,8-1.4,10.6-4.3c2.5-2.9,3.9-6.8,3.9-11.9c0-4.3-1.1-7.8-3.4-10.5s-4.9-4.1-8.1-4.1C346.5,40.3,343.6,41.9,341,45.1
				L341,45.1z"/>
			<path class="st5" d="M381.2,37.6V45c2.3-2,4.8-3.9,7.4-5.7c1.3-0.9,2.8-1.5,4.4-1.7c2.4,0.1,4.6,1.1,6.3,2.7l-2.6,6
				c-3.7-1.9-6.4-3-8.2-3c-2,0-4.4,1.4-7.4,4.1v18.7c0,1.9,0.4,3.2,1.2,3.8c0.8,0.6,2.4,1,4.5,1v1.6h-18.2v-1.6c2.4,0,4-0.4,4.7-1.1
				c0.8-0.7,1.1-2.5,1.1-5.4V46c0-2.3-0.4-3.8-1.2-4.5c-0.8-0.7-2.7-1-5.9-1v-1.6l12.1-1C379.4,37.8,381.2,37.6,381.2,37.6z"/>
			<path class="st5" d="M409.6,73.5c-2.5,0-5-0.9-6.9-2.6c-1.9-1.6-2.9-4-2.9-6.4c0-2.2,0.9-4.3,2.5-5.8c1.6-1.6,5-3,10.1-4.5
				c2.2-0.5,4.4-1.2,6.4-2.2v-2.5c0.1-2.2-0.6-4.3-2.1-5.9c-1.4-1.5-3.5-2.3-5.6-2.2c-2.1,0-4.1,0.7-5.7,1.9
				c-1.7,1.4-2.9,3.2-3.5,5.3l-1.8-0.5c1.1-6,6.5-10.4,12.7-10.4c3.3-0.1,6.5,1,9,3.2c2.4,2.4,3.7,5.7,3.5,9.1v14.5
				c-0.1,1.4,0,2.8,0.4,4.2c0.2,0.7,0.8,1.1,1.5,1.1c0.5,0,1-0.2,1.2-0.6c0.5-0.8,0.8-1.7,1.1-2.6h1.7c-0.1,1.8-0.8,3.6-2,5
				c-1.2,1.3-2.9,1.9-4.7,1.9c-2.8,0-4.7-1.6-5.8-4.8c-1.3,1.5-2.8,2.8-4.5,3.8C412.8,73.1,411.2,73.5,409.6,73.5z M418.9,65.5V54
				c-0.9,0.4-2.4,0.9-4.2,1.6c-3.5,1.1-5.7,2.3-6.6,3.4c-1,1.3-1.5,3-1.4,4.6c-0.1,1.6,0.5,3.1,1.5,4.4c0.9,1.1,2.2,1.8,3.7,1.9
				c1.4,0,2.8-0.4,4.1-1.2C417.2,67.9,418.2,66.8,418.9,65.5z"/>
			<path class="st5" d="M444.3,37.6V45c2.3-2.1,4.8-4,7.4-5.7c1.3-0.9,2.8-1.5,4.4-1.7c2.4,0.1,4.6,1.1,6.3,2.7l-2.6,6
				c-3.7-1.9-6.4-3-8.2-3c-2,0-4.4,1.4-7.4,4.1v18.7c0,1.9,0.4,3.2,1.2,3.8c0.8,0.6,2.4,1,4.5,1v1.6h-18.2v-1.6c2.4,0,4-0.4,4.7-1.1
				c0.8-0.7,1.1-2.5,1.1-5.4V46c0-2.3-0.4-3.8-1.2-4.5c-0.8-0.7-2.7-1-5.9-1v-1.6l12.1-1L444.3,37.6L444.3,37.6z"/>
			<path class="st5" d="M475.7,37.6h1.7v28.5c0,1.9,0.4,3.2,1.2,3.7c0.8,0.6,2.4,0.9,4.5,0.9v1.6h-18.9v-1.6c2.7,0,4.5-0.3,5.3-0.9
				s1.2-1.9,1.2-3.8V45.1c0-2-0.4-3.4-1.1-4.1c-0.8-0.6-2.5-1-5.4-1v-1.6L475.7,37.6z M474.2,20.1c1.1,0,2.2,0.4,2.9,1.2
				c0.8,0.8,1.2,1.8,1.2,2.9s-0.4,2.2-1.2,3c-0.8,0.8-1.8,1.2-2.9,1.2s-2.2-0.4-3-1.2c-0.8-0.8-1.3-1.8-1.3-3c0-1.1,0.4-2.1,1.2-2.9
				C471.9,20.5,473.1,20,474.2,20.1z"/>
			<path class="st5" d="M515.6,63.7v2.5c-1.7,2.3-3.9,4.2-6.4,5.6c-2.4,1.2-5.1,1.8-7.8,1.7c-4.9,0.2-9.7-1.6-13.3-5
				c-3.5-3.3-5.4-7.9-5.3-12.6c-0.1-4.8,1.7-9.5,5-13c3.1-3.4,7.6-5.4,12.3-5.3c3.9,0,7.6,1.4,10.5,4c2.8,2.4,4.5,5.8,4.4,9.5v0.7
				h-25.3v0.5c-0.1,3.3,0.5,6.6,1.7,9.7c1,2.6,2.8,4.9,5.1,6.5c2,1.5,4.4,2.3,6.9,2.3c2,0.1,4-0.4,5.8-1.4
				C510.8,68.4,512.9,66.6,515.6,63.7z M489.7,50.1h18.8v-0.6c0.1-2.7-0.8-5.3-2.6-7.2c-1.7-1.8-4.1-2.7-6.6-2.7
				c-2.5-0.1-5,0.9-6.7,2.8C490.8,44.5,489.8,47.2,489.7,50.1z"/>
			<path class="st5" d="M541.3,37.6V48h-2c-0.2-2.3-1.2-4.5-2.8-6.2c-1.5-1.5-3.6-2.4-5.8-2.3c-1.5-0.1-3,0.4-4.2,1.3
				c-1,0.8-1.6,2-1.6,3.3s0.5,2.6,1.4,3.6s3,2.3,6.3,3.7c4.2,1.9,6.9,3.6,8.3,5.4c3.1,4.2,2.5,9.9-1.2,13.5c-2,2-4.8,3.1-7.6,3.1
				c-2.1-0.2-4.2-0.7-6-1.7c-0.9-0.4-1.8-0.7-2.7-0.9c-0.6,0-1.1,0.2-1.5,0.6c-0.4,0.5-0.7,1.1-0.8,1.7h-1.7V61.6h1.7
				c0.4,2.8,1.8,5.4,4,7.2c1.9,1.7,4.5,2.7,7.1,2.7c3.2,0.1,5.9-2.4,5.9-5.6c0-0.1,0-0.2,0-0.3c0-1.5-0.6-3-1.6-4.2
				s-3.4-2.5-6.9-4.1c-4-1.8-6.6-3.3-7.8-4.8s-1.9-3.4-1.9-5.4c0-2.6,1.1-5.1,3.1-6.9c2-1.9,4.6-2.9,7.4-2.9c1.5,0,3,0.3,4.3,0.9
				c0.9,0.4,1.8,0.6,2.7,0.6c1,0,1.8-0.7,2.1-1.6L541.3,37.6L541.3,37.6z"/>
		</g>
		<g id="line" class="st8">
			<rect x="578" y="4" class="st5" width="2" height="130.9"/>
		</g>
		<g id="ares" class="st8">
			<text transform="matrix(0.9975 0 0 1 606 96.7217)" class="st5 st9 st10">Research Account</text>
		</g>
	</g>
</g>
<g id="Layer_3_00000114777895897549746210000013718120111523457944_">
	<g id="reserve_copy">
		<g id="ares_00000086662451486767260330000015580456096043075478_">
			<g class="st12">
				<path class="st5" d="M20.1,190.2h-3.2v10.8c0,2.3,0.3,3.9,1,4.8c0.7,0.9,1.8,1.4,3.5,1.4v1.1H7.3v-1.1c1.7,0,2.9-0.5,3.5-1.4
					c0.6-0.9,0.9-2.5,0.9-4.8v-24.6c0-2.3-0.3-3.9-0.9-4.8c-0.6-0.9-1.8-1.3-3.5-1.3v-1.1h16c4,0,7.1,1,9.5,2.9
					c2.4,1.9,3.5,4.4,3.5,7.4c0,4.8-2.7,8-8.1,9.6c1.2,0.8,2.3,1.8,3.5,3.1c1.1,1.3,2.6,3.5,4.4,6.6c2,3.4,3.6,5.6,4.8,6.7
					c1.1,1.1,2.3,1.6,3.6,1.7v1.1h-8c-1.6-2-3.6-4.9-6-8.7c-2.5-4-4.4-6.6-5.8-7.7C23.4,190.7,21.8,190.2,20.1,190.2z M21,170.6
					h-4.1v17.9h4.8c2.9,0,5.1-0.8,6.7-2.5c1.6-1.6,2.4-3.8,2.4-6.5c0-2.6-0.9-4.8-2.7-6.4C26.4,171.5,24,170.6,21,170.6z"/>
				<path class="st5" d="M71,202.1v1.8c-1.5,1.9-3,3.2-4.5,4s-3.3,1.2-5.5,1.2c-3.8,0-6.9-1.2-9.3-3.6c-2.5-2.4-3.7-5.4-3.7-9
					c0-3.7,1.2-6.8,3.5-9.3c2.3-2.5,5.2-3.8,8.6-3.8c2.8,0,5.2,0.9,7.3,2.8c2.1,1.9,3.1,4.2,3.1,6.8v0.5H52.8v0.3c0,2.7,0.4,5,1.2,7
					c0.8,2,2,3.5,3.5,4.6c1.6,1.1,3.2,1.7,4.9,1.7c1.6,0,2.9-0.3,4-1C67.6,205.5,69.1,204.1,71,202.1z M52.8,192.4H66v-0.5
					c0-2.2-0.6-3.9-1.8-5.1c-1.2-1.3-2.8-1.9-4.6-1.9c-2,0-3.5,0.7-4.7,2S52.9,190,52.8,192.4z"/>
				<path class="st5" d="M91.1,183.4v7.4h-1.4c-0.2-1.9-0.9-3.4-2-4.5c-1.1-1.1-2.5-1.7-4-1.7c-1.2,0-2.2,0.3-2.9,0.9
					c-0.7,0.6-1.1,1.4-1.1,2.4c0,1,0.3,1.8,1,2.6c0.7,0.7,2.1,1.6,4.4,2.7c2.9,1.3,4.9,2.6,5.8,3.8c0.9,1.2,1.4,2.7,1.4,4.4
					c0,2-0.8,3.8-2.3,5.3c-1.5,1.5-3.3,2.2-5.4,2.2c-1.1,0-2.5-0.4-4.2-1.2c-1-0.4-1.6-0.6-1.9-0.6c-0.4,0-0.8,0.2-1.1,0.5
					s-0.5,0.7-0.5,1.2h-1.2v-8.2H77c0.4,2.2,1.4,3.9,2.8,5.2c1.4,1.3,3.1,1.9,5,1.9c1.2,0,2.2-0.4,3-1.2c0.8-0.8,1.2-1.8,1.2-3
					c0-1.1-0.4-2.1-1.1-3c-0.7-0.8-2.4-1.8-4.8-2.9c-2.8-1.2-4.6-2.4-5.5-3.4c-0.9-1.1-1.3-2.4-1.3-3.9c0-1.9,0.7-3.5,2.2-4.9
					c1.5-1.4,3.2-2.1,5.2-2.1c0.9,0,1.9,0.2,3,0.7c0.8,0.3,1.4,0.5,1.9,0.5c0.6,0,1.1-0.4,1.4-1.1H91.1z"/>
				<path class="st5" d="M120,202.1v1.8c-1.5,1.9-3,3.2-4.5,4s-3.3,1.2-5.5,1.2c-3.8,0-6.9-1.2-9.3-3.6c-2.5-2.4-3.7-5.4-3.7-9
					c0-3.7,1.2-6.8,3.5-9.3c2.3-2.5,5.2-3.8,8.6-3.8c2.8,0,5.2,0.9,7.3,2.8c2.1,1.9,3.1,4.2,3.1,6.8v0.5h-17.7v0.3
					c0,2.7,0.4,5,1.2,7c0.8,2,2,3.5,3.5,4.6c1.6,1.1,3.2,1.7,4.9,1.7c1.6,0,2.9-0.3,4-1C116.6,205.5,118.1,204.1,120,202.1z
					 M101.8,192.4H115v-0.5c0-2.2-0.6-3.9-1.8-5.1c-1.2-1.3-2.8-1.9-4.6-1.9c-2,0-3.5,0.7-4.7,2S102,190,101.8,192.4z"/>
				<path class="st5" d="M132.3,183.4v5.2c2.2-1.9,3.9-3.3,5.2-4.1c1.2-0.8,2.3-1.2,3.1-1.2c1.5,0,3,0.6,4.4,1.9l-1.8,4.3
					c-2.6-1.4-4.5-2.1-5.7-2.1c-1.4,0-3.1,1-5.1,2.9v13.3c0,1.3,0.3,2.2,0.8,2.7c0.6,0.5,1.6,0.7,3.2,0.7v1.1h-12.8v-1.1
					c1.7,0,2.8-0.3,3.3-0.8c0.5-0.5,0.8-1.8,0.8-3.9v-13.2c0-1.7-0.3-2.8-0.8-3.2s-1.9-0.7-4.1-0.7v-1.1l8.5-0.7H132.3z"/>
				<path class="st5" d="M161.2,184.2v1.1c-1.6,0.1-2.4,0.8-2.4,2c0,0.6,0.2,1.3,0.5,2.2l5.4,12.9l4.7-12.2c0.5-1.2,0.7-2.2,0.7-2.8
					c0-1.2-1-1.9-3.1-2.1v-1.1h8.9v1.1c-1.4,0.1-2.5,0.4-3,0.9c-0.6,0.4-1.1,1.3-1.6,2.6l-7.8,20h-1.1l-7.7-19
					c-0.8-1.9-1.5-3.1-2-3.6s-1.6-0.8-3.1-0.9v-1.1H161.2z"/>
				<path class="st5" d="M184.7,209.1c-1.9,0-3.5-0.6-4.9-1.9c-1.4-1.3-2-2.8-2-4.6c0-1.7,0.6-3.1,1.7-4.2c1.2-1.1,3.5-2.2,7.1-3.2
					c2.2-0.6,3.8-1.2,4.5-1.6v-1.8c0-1.8-0.5-3.2-1.5-4.3c-1-1.1-2.3-1.6-3.9-1.6c-1.5,0-2.8,0.5-4,1.4c-1.2,0.9-2,2.2-2.4,3.8
					l-1.2-0.3c0.5-2.2,1.5-4,3.2-5.4c1.6-1.4,3.5-2,5.7-2c2.6,0,4.7,0.8,6.3,2.4c1.6,1.6,2.4,3.7,2.4,6.5v10.4c0,1.5,0.1,2.5,0.3,3
					c0.2,0.5,0.5,0.8,1.1,0.8c0.4,0,0.6-0.2,0.9-0.5c0.2-0.3,0.5-0.9,0.8-1.9h1.2c-0.1,1.5-0.6,2.7-1.4,3.6
					c-0.8,0.9-1.9,1.3-3.3,1.3c-2,0-3.3-1.1-4.1-3.4c-1.2,1.3-2.3,2.2-3.2,2.7S186,209.1,184.7,209.1z M191.2,203.4v-8.2
					c-0.7,0.3-1.7,0.7-3,1.1c-2.4,0.8-4,1.6-4.6,2.5c-0.7,0.8-1,1.9-1,3.3c0,1.2,0.4,2.2,1.1,3.1s1.6,1.3,2.6,1.3
					c0.9,0,1.9-0.3,2.9-0.9C190.1,205,190.8,204.3,191.2,203.4z"/>
				<path class="st5" d="M209.2,175.9h1.2v8.1h8.4v1.8h-8.4v15.6c0,1.6,0.4,2.9,1.1,3.8s1.8,1.3,3.2,1.3c1.6,0,3.1-0.8,4.5-2.3
					l0.8,0.9c-2.1,2.7-4.5,4-7.3,4c-2.1,0-3.7-0.7-5-2c-1.3-1.3-1.9-3-1.9-5.1v-16.2h-4.6v-1.2C204.5,183,207.1,180,209.2,175.9z"/>
				<path class="st5" d="M228.9,183.4h1.2v20.4c0,1.3,0.3,2.2,0.9,2.7c0.6,0.4,1.6,0.7,3.2,0.7v1.1h-13.2v-1.1
					c1.9,0,3.2-0.2,3.7-0.7c0.6-0.4,0.8-1.3,0.8-2.7v-14.9c0-1.5-0.3-2.4-0.8-2.9c-0.5-0.5-1.8-0.7-3.8-0.7v-1.1L228.9,183.4z
					 M227.9,170.9c0.8,0,1.5,0.3,2.1,0.9c0.6,0.6,0.8,1.3,0.8,2.1s-0.3,1.5-0.9,2.1c-0.6,0.6-1.3,0.9-2.1,0.9
					c-0.8,0-1.5-0.3-2.1-0.9c-0.6-0.6-0.9-1.3-0.9-2.1s0.3-1.5,0.9-2.1C226.3,171.2,227,170.9,227.9,170.9z"/>
				<path class="st5" d="M264.4,196.3c0,3.6-1.3,6.7-3.8,9.1c-2.5,2.4-5.7,3.7-9.4,3.7c-3.8,0-6.9-1.2-9.4-3.7
					c-2.5-2.4-3.8-5.5-3.8-9.1c0-3.7,1.3-6.8,3.8-9.2c2.5-2.4,5.7-3.7,9.5-3.7c3.8,0,6.9,1.2,9.5,3.7
					C263.1,189.5,264.4,192.6,264.4,196.3z M259.4,196.3c0-3.5-0.7-6.2-2.2-8.4s-3.5-3.2-6-3.2s-4.5,1-6,3.1
					c-1.5,2.1-2.2,4.9-2.2,8.4c0,3.5,0.7,6.3,2.2,8.3c1.5,2.1,3.5,3.1,6,3.1c2.6,0,4.6-1,6-3.1C258.6,202.5,259.4,199.7,259.4,196.3
					z"/>
				<path class="st5" d="M276.2,183.4v4.8c2.8-3.2,5.7-4.8,8.7-4.8c2.3,0,4.3,0.8,5.8,2.4c1.6,1.6,2.3,3.7,2.3,6.3v10.9
					c0,1.7,0.3,2.8,0.8,3.3c0.6,0.5,1.6,0.8,3.3,0.8v1.1h-12.9v-1.1c1.6,0,2.7-0.2,3.3-0.6c0.6-0.4,0.9-1.2,0.9-2.4v-12.7
					c0-1.7-0.5-3-1.5-4c-1-1-2.3-1.5-3.9-1.5c-2.3,0-4.6,1.6-6.9,4.7v11.8c0,2,0.3,3.3,0.8,3.8s1.6,0.8,3.3,0.8v1.1h-12.7v-1.1
					c1.8,0,3-0.3,3.4-0.9c0.4-0.6,0.6-1.8,0.6-3.8v-13.7c0-1.5-0.3-2.4-0.8-2.9c-0.5-0.5-1.6-0.7-3.3-0.7v-1.1l7.5-0.7H276.2z"/>
				<path class="st5" d="M315.9,183.4v7.4h-1.4c-0.2-1.9-0.9-3.4-2-4.5c-1.1-1.1-2.5-1.7-4-1.7c-1.2,0-2.2,0.3-2.9,0.9
					c-0.7,0.6-1.1,1.4-1.1,2.4c0,1,0.3,1.8,1,2.6c0.7,0.7,2.1,1.6,4.4,2.7c2.9,1.3,4.9,2.6,5.8,3.8c0.9,1.2,1.4,2.7,1.4,4.4
					c0,2-0.8,3.8-2.3,5.3c-1.5,1.5-3.3,2.2-5.4,2.2c-1.1,0-2.5-0.4-4.2-1.2c-1-0.4-1.6-0.6-1.9-0.6c-0.4,0-0.8,0.2-1.1,0.5
					s-0.5,0.7-0.5,1.2h-1.2v-8.2h1.2c0.4,2.2,1.4,3.9,2.8,5.2c1.4,1.3,3.1,1.9,5,1.9c1.2,0,2.2-0.4,3-1.2c0.8-0.8,1.2-1.8,1.2-3
					c0-1.1-0.4-2.1-1.1-3c-0.7-0.8-2.4-1.8-4.8-2.9c-2.8-1.2-4.6-2.4-5.5-3.4c-0.9-1.1-1.3-2.4-1.3-3.9c0-1.9,0.7-3.5,2.2-4.9
					c1.5-1.4,3.2-2.1,5.2-2.1c0.9,0,1.9,0.2,3,0.7c0.8,0.3,1.4,0.5,1.9,0.5c0.6,0,1.1-0.4,1.4-1.1H315.9z"/>
				<path class="st5" d="M341.7,179.9c0-2.6,0.9-4.7,2.6-6.4c1.7-1.7,4-2.5,6.6-2.5c2.2,0,4,0.7,5.6,2.1c1.5,1.4,2.3,3.1,2.3,5
					c0,3.3-2.3,6.2-7,8.7c2.7,2.4,6.1,6,10,10.8c1.9-3.3,2.9-6,2.9-8.2c0-1.2-0.2-2.1-0.6-2.6c-0.4-0.5-1.2-0.8-2.2-0.8v-1.1H373
					v1.1c-1.7,0-2.9,0.2-3.5,0.7c-0.6,0.5-1.2,1.1-1.7,1.9c-0.5,0.8-1.1,2.1-1.8,3.9c-1,2.7-2,4.8-3.1,6.4c2.5,3.2,4.3,5.3,5.3,6.2
					s1.9,1.4,2.6,1.4c0.8,0,1.7-0.5,2.7-1.4l0.9,0.7c-1.6,2.3-3.6,3.4-6.2,3.4c-1.1,0-2.2-0.3-3.2-0.9c-1-0.6-2.3-1.7-3.8-3.5
					c-0.6-0.7-1.1-1.2-1.4-1.5c-3.2,3.9-7,5.9-11.3,5.9c-3,0-5.6-0.9-7.7-2.8c-2.1-1.9-3.2-4.2-3.2-6.9c0-2,0.7-4,2.2-5.9
					c1.5-1.9,3.6-3.6,6.3-5.1C343.2,185.8,341.7,183,341.7,179.9z M342.3,197.2c0,2.3,0.9,4.4,2.8,6.3c1.9,1.9,3.9,2.8,6.2,2.8
					c1.4,0,2.7-0.3,3.9-1s2.4-1.7,3.8-3.2c-4.3-5.3-8.2-9.4-11.8-12.5c-1.4,0.8-2.6,1.9-3.5,3.3
					C342.7,194.2,342.3,195.7,342.3,197.2z M345.1,177.8c0,1.2,0.5,2.5,1.6,4c1,1.5,2.4,2.9,4.2,4.2c3-1.7,4.5-4.2,4.5-7.4
					c0-1.6-0.5-3-1.4-4c-1-1-2.2-1.6-3.7-1.6c-1.5,0-2.7,0.5-3.6,1.4C345.6,175.2,345.1,176.4,345.1,177.8z"/>
				<path class="st5" d="M419.1,184h1.2v9.5h-1.2c-0.4-1.7-0.9-2.7-1.5-3.1c-0.6-0.4-1.9-0.6-3.9-0.6h-9.7v14c0,1,0.2,1.7,0.7,2.1
					c0.4,0.4,1.2,0.6,2.2,0.6h6.8c2.4,0,4.1-0.1,5.1-0.4c0.9-0.3,1.7-0.8,2.4-1.5c0.6-0.7,1.3-1.9,2.1-3.5h1.2l-1.8,7.3h-28.1v-1.1
					c1.8,0,2.9-0.5,3.5-1.4c0.6-0.9,0.9-2.5,0.9-4.8v-24.5c0-2.4-0.3-4-0.9-4.9c-0.6-0.9-1.8-1.3-3.5-1.3v-1.1h28.1v6.5h-0.7
					c-0.4-1.9-1-3.1-1.7-3.7c-0.7-0.6-2.4-0.9-4.8-0.9h-11.3v16.8h10.9c1.5,0,2.5-0.3,3-0.8C418.5,186.5,418.8,185.5,419.1,184z"/>
				<path class="st5" d="M439.5,184.2v1.1c-1.6,0.1-2.4,0.8-2.4,2c0,0.6,0.2,1.3,0.5,2.2l5.4,12.9l4.7-12.2c0.5-1.2,0.7-2.2,0.7-2.8
					c0-1.2-1-1.9-3.1-2.1v-1.1h8.9v1.1c-1.4,0.1-2.5,0.4-3,0.9c-0.6,0.4-1.1,1.3-1.6,2.6l-7.8,20h-1.1l-7.7-19
					c-0.8-1.9-1.5-3.1-2-3.6s-1.6-0.8-3.1-0.9v-1.1H439.5z"/>
				<path class="st5" d="M479.3,202.1v1.8c-1.5,1.9-3,3.2-4.5,4c-1.5,0.8-3.3,1.2-5.5,1.2c-3.8,0-6.9-1.2-9.3-3.6
					c-2.5-2.4-3.7-5.4-3.7-9c0-3.7,1.2-6.8,3.5-9.3c2.3-2.5,5.2-3.8,8.6-3.8c2.8,0,5.2,0.9,7.3,2.8c2.1,1.9,3.1,4.2,3.1,6.8v0.5
					h-17.7v0.3c0,2.7,0.4,5,1.2,7s2,3.5,3.5,4.6c1.6,1.1,3.2,1.7,4.9,1.7c1.6,0,2.9-0.3,4-1C475.9,205.5,477.4,204.1,479.3,202.1z
					 M461.1,192.4h13.2v-0.5c0-2.2-0.6-3.9-1.8-5.1c-1.2-1.3-2.8-1.9-4.6-1.9c-2,0-3.5,0.7-4.7,2S461.3,190,461.1,192.4z"/>
				<path class="st5" d="M490.9,183.4v4.8c2.8-3.2,5.7-4.8,8.7-4.8c2.3,0,4.3,0.8,5.8,2.4s2.3,3.7,2.3,6.3v10.9
					c0,1.7,0.3,2.8,0.8,3.3c0.6,0.5,1.6,0.8,3.3,0.8v1.1H499v-1.1c1.6,0,2.7-0.2,3.3-0.6c0.6-0.4,0.9-1.2,0.9-2.4v-12.7
					c0-1.7-0.5-3-1.5-4c-1-1-2.3-1.5-3.9-1.5c-2.3,0-4.6,1.6-6.9,4.7v11.8c0,2,0.3,3.3,0.8,3.8s1.6,0.8,3.3,0.8v1.1h-12.7v-1.1
					c1.8,0,3-0.3,3.4-0.9c0.4-0.6,0.6-1.8,0.6-3.8v-13.7c0-1.5-0.3-2.4-0.8-2.9c-0.5-0.5-1.6-0.7-3.3-0.7v-1.1l7.5-0.7H490.9z"/>
				<path class="st5" d="M521.9,175.9h1.2v8.1h8.4v1.8H523v15.6c0,1.6,0.4,2.9,1.1,3.8s1.8,1.3,3.2,1.3c1.6,0,3.1-0.8,4.5-2.3
					l0.8,0.9c-2.1,2.7-4.5,4-7.3,4c-2.1,0-3.7-0.7-5-2c-1.3-1.3-1.9-3-1.9-5.1v-16.2h-4.6v-1.2C517.2,183,519.9,180,521.9,175.9z"/>
				<path class="st5" d="M550.5,183.4v7.4h-1.4c-0.2-1.9-0.9-3.4-2-4.5s-2.5-1.7-4-1.7c-1.2,0-2.2,0.3-2.9,0.9
					c-0.7,0.6-1.1,1.4-1.1,2.4c0,1,0.3,1.8,1,2.6c0.7,0.7,2.1,1.6,4.4,2.7c2.9,1.3,4.9,2.6,5.8,3.8c0.9,1.2,1.4,2.7,1.4,4.4
					c0,2-0.8,3.8-2.3,5.3c-1.5,1.5-3.3,2.2-5.4,2.2c-1.1,0-2.5-0.4-4.2-1.2c-1-0.4-1.6-0.6-1.9-0.6c-0.4,0-0.8,0.2-1.1,0.5
					s-0.5,0.7-0.5,1.2h-1.2v-8.2h1.2c0.4,2.2,1.4,3.9,2.8,5.2c1.4,1.3,3.1,1.9,5,1.9c1.2,0,2.2-0.4,3-1.2s1.2-1.8,1.2-3
					c0-1.1-0.4-2.1-1.1-3s-2.4-1.8-4.8-2.9c-2.8-1.2-4.6-2.4-5.5-3.4s-1.3-2.4-1.3-3.9c0-1.9,0.7-3.5,2.2-4.9
					c1.5-1.4,3.2-2.1,5.2-2.1c0.9,0,1.9,0.2,3,0.7c0.8,0.3,1.4,0.5,1.9,0.5c0.6,0,1.1-0.4,1.4-1.1H550.5z"/>
			</g>
		</g>
	</g>
</g>
</svg>
