<svg id="Layer_1" data-name="Layer 1" xmlns="http://www.w3.org/2000/svg"  width="445" height="95" viewBox="0 0 445 95" fill="none">

	<g clip-path="url(#clip0_10377_15535)">
	<path d="M443.498 60.9187H84.0837V62.1658H443.498V60.9187Z" fill="#011F5B"></path>
	<path d="M76.1056 3.45093H-0.000274114V41.3758C-0.0515239 57.8953 9.1051 69.8536 16.7926 76.9773C25.2488 84.8185 34.5592 89.3455 37.6683 90.0118L38.0441 90.0972L38.42 90.0118C41.5291 89.3285 50.8566 84.8185 59.2957 76.9773C66.9832 69.8536 76.1227 57.8953 76.0886 41.3758V3.45093H76.1056Z" fill="white"></path>
	<path d="M1.93018 5.44946C1.93018 5.44946 2.03268 27.4869 1.93018 27.3844H74.1753V5.44946H1.93018ZM21.3197 19.3211C21.4393 19.4065 21.5418 19.4919 21.6272 19.6115C21.7126 19.7481 21.7468 19.8848 21.7468 20.0556C21.7468 20.2094 21.6955 20.3631 21.6272 20.4827C21.5418 20.6023 21.4222 20.6877 21.3197 20.7902C21.1488 20.9269 20.978 21.0465 20.978 21.2686V22.6181H5.02225V21.2686C5.02225 21.0465 4.85141 20.9098 4.68058 20.7902C4.561 20.7048 4.4585 20.6194 4.37308 20.4827C4.28767 20.3631 4.2535 20.2094 4.2535 20.0386C4.2535 19.8677 4.28767 19.7311 4.37308 19.5944C4.4585 19.4748 4.57808 19.3894 4.68058 19.304C4.85141 19.1673 5.02225 19.0477 5.02225 18.8086V14.4011C5.02225 14.179 4.85141 14.0594 4.68058 13.9228C4.561 13.8373 4.4585 13.7519 4.37308 13.6323C4.28767 13.5128 4.2535 13.359 4.2535 13.1882C4.2535 13.0173 4.28767 12.8807 4.37308 12.744C4.4585 12.6244 4.57808 12.5219 4.68058 12.4536C4.85141 12.3169 5.02225 12.1974 5.02225 11.9753V10.5915H5.22724C6.16682 10.5915 6.96974 10.5744 7.55057 10.3182C7.78973 10.2328 7.99473 10.079 8.21681 9.94236C8.71223 9.63486 9.25889 9.2932 10.096 9.2932C10.7622 9.2932 11.3772 9.54944 11.9239 9.77153C12.3168 9.92528 12.6755 10.0619 12.9489 10.0619H13.0514C13.3247 10.0619 13.6835 9.90819 14.0764 9.77153C14.623 9.54944 15.238 9.2932 15.9043 9.2932C16.7414 9.2932 17.288 9.63486 17.7834 9.94236C18.0055 10.079 18.2276 10.2157 18.4668 10.3182C19.0305 10.5574 19.8505 10.5915 20.7901 10.5915H20.9951V11.9753C20.9951 12.1974 21.1659 12.3169 21.3368 12.4536C21.4393 12.539 21.5588 12.6244 21.6443 12.744C21.7297 12.8807 21.7638 13.0173 21.7638 13.1882C21.7638 13.359 21.7126 13.4957 21.6443 13.6323C21.5588 13.7519 21.4393 13.8373 21.3368 13.9228C21.1659 14.0594 20.9951 14.179 20.9951 14.4011V18.8086C20.9951 19.0307 21.1659 19.1673 21.3368 19.304M51.8645 21.6102C50.6345 23.5748 48.2429 24.0702 48.1575 24.0873C47.6962 24.1727 47.2008 24.2069 46.7225 24.2069C44.2283 24.2069 41.9392 23.1136 39.5988 21.9177C39.3425 21.7811 39.0521 21.6273 38.7446 21.4565C37.2584 20.6365 35.1742 19.509 33.4146 19.509C32.9021 19.509 32.4067 19.6115 31.9796 19.8336L31.9113 19.8677V19.9531C31.9113 20.1752 31.843 20.3973 31.7746 20.6023C31.4842 21.354 30.5788 22.1398 30.1346 22.4644C29.1096 23.199 27.8455 23.9506 26.2909 23.9506C26.0517 23.9506 25.8467 23.9165 25.6417 23.8481C25.3513 23.7456 25.1122 23.5748 24.9413 23.3527C24.8559 23.2502 24.7876 23.1136 24.7192 22.9769C24.668 22.8744 24.6509 22.7548 24.6167 22.6352V22.5498L24.5142 22.5156C23.8992 22.3277 23.5405 21.9348 23.5405 21.4565C23.5405 21.0806 23.8138 20.7731 24.0701 20.4656C24.4801 19.9873 24.8217 19.5773 24.258 19.0307C24.2067 18.9794 24.1384 18.9452 24.0872 18.894C24.0017 18.8257 23.9163 18.7744 23.848 18.689C23.3526 18.1594 23.643 17.0319 23.8138 16.3657V16.2973C24.0188 15.5628 24.3263 14.8111 24.7363 13.9911C25.3001 12.8807 25.9663 11.6165 26.923 10.8307C26.9401 10.8307 26.9571 10.8136 26.9913 10.8136C27.0084 10.8136 27.0426 10.8307 27.0596 10.8478C27.0596 10.8819 27.1792 11.0357 27.333 11.2919L27.4867 11.5653L27.5892 11.2749C27.8626 10.489 28.2896 9.97653 28.8876 9.75444C29.5196 9.51528 30.1176 9.83986 30.408 10.0619L30.5276 10.1644L30.613 10.0278C30.8009 9.72028 31.1596 9.34445 31.7405 9.31028C32.3896 9.27611 32.9192 9.72028 33.1755 9.99361L33.278 10.079L33.3805 9.99361C33.6709 9.75444 34.4225 9.20778 35.1742 9.31028C35.8917 9.41278 36.165 10.0278 36.2504 10.284L36.3017 10.4549L36.4554 10.3865C36.7971 10.2157 37.4463 9.99361 38.0613 10.3865C38.4542 10.6428 38.5054 11.0699 38.4713 11.3774V11.5653L38.6421 11.5311C39.1033 11.4628 39.9575 11.4115 40.47 11.924C40.8629 12.334 40.8971 12.8636 40.8458 13.2223V13.4103H41.0167C41.4267 13.3419 41.9733 13.3761 42.2638 13.8373C42.4687 14.1448 42.3833 14.589 42.315 14.8111L42.2808 14.9478L42.4175 14.9819C42.6567 15.0332 43.0667 15.1869 43.1862 15.5286C43.2887 15.7848 43.2546 16.1948 43.1179 16.6902L43.0837 16.8098L43.2033 16.8611C43.4083 16.9465 43.7842 17.1515 43.9892 17.5444C44.1942 17.9373 44.1771 18.4157 43.9721 18.9965L43.9379 19.0819L44.0062 19.1502C44.5358 19.6286 45.0654 20.0556 45.595 20.4315C46.6541 21.2002 48.3112 21.6102 49.4387 20.6877C49.8658 20.3461 50.0537 19.6969 49.917 19.099C49.7804 18.5694 49.4387 18.2107 48.9604 18.0911C48.1062 17.9032 47.44 18.7061 46.8933 19.5261C46.8933 19.5432 46.8421 19.5602 46.8079 19.5602C46.7737 19.5602 46.7566 19.5432 46.7396 19.509C46.2271 18.2961 46.21 17.3052 46.6541 16.5365C47.0471 15.8873 47.7816 15.4261 48.6871 15.2723H48.8066V15.1186C48.8066 13.7007 49.1312 12.6586 49.8146 12.0265C50.2416 11.6507 51.0104 11.2236 52.2916 11.4115C52.3087 11.4115 52.3429 11.4286 52.36 11.4457C52.36 11.4628 52.36 11.4969 52.36 11.514C51.4204 13.8032 51.6425 14.6573 52.155 16.5365C52.2062 16.7073 52.2404 16.8782 52.2916 17.049C52.77 18.8257 52.6333 20.3461 51.8645 21.5761M71.4249 19.2698C71.5445 19.3552 71.647 19.4407 71.7324 19.5602C71.8178 19.6969 71.852 19.8336 71.852 20.0044C71.852 20.1581 71.8178 20.3119 71.7324 20.4315C71.647 20.5511 71.5274 20.6365 71.4249 20.739C71.254 20.8756 71.0832 20.9952 71.0832 21.2173V22.5669H55.1274V21.2173C55.1274 20.9952 54.9737 20.8586 54.7858 20.739C54.6662 20.6536 54.5637 20.5681 54.4783 20.4315C54.3929 20.3119 54.3416 20.1581 54.3587 19.9873C54.3587 19.8165 54.3929 19.6798 54.4783 19.5432C54.5637 19.4236 54.6662 19.3382 54.7858 19.2527C54.9566 19.1161 55.1274 18.9965 55.1274 18.7573V14.3498C55.1274 14.1278 54.9737 14.0082 54.7858 13.8715C54.6662 13.7861 54.5637 13.7007 54.4783 13.5811C54.3929 13.4615 54.3416 13.3078 54.3587 13.1369C54.3587 12.9832 54.3929 12.8294 54.4783 12.6928C54.5637 12.5732 54.6833 12.4707 54.7858 12.4023C54.9566 12.2657 55.1274 12.1461 55.1274 11.924V10.5403H55.3324C56.272 10.5403 57.0749 10.5232 57.6558 10.2669C57.8949 10.1815 58.0999 10.0278 58.3391 9.89111C58.8174 9.58361 59.3812 9.24195 60.2012 9.24195C60.8674 9.24195 61.4824 9.4982 62.0291 9.72028C62.422 9.87403 62.7807 10.0107 63.0541 10.0107H63.1566C63.4299 10.0107 63.7887 9.85694 64.1816 9.72028C64.7282 9.4982 65.3432 9.24195 66.0095 9.24195C66.8466 9.24195 67.3932 9.58361 67.8886 9.89111C68.1107 10.0278 68.3328 10.1644 68.572 10.2669C69.1357 10.5061 69.9557 10.5403 70.8953 10.5403H71.1003V11.924C71.1003 12.1461 71.254 12.2657 71.442 12.4023C71.5445 12.4878 71.664 12.5732 71.7495 12.6928C71.8349 12.8294 71.869 12.9661 71.869 13.1369C71.869 13.3078 71.8349 13.4444 71.7495 13.5811C71.664 13.7007 71.5445 13.7861 71.442 13.8715C71.2711 14.0082 71.1003 14.1278 71.1003 14.3498V18.7573C71.1003 18.9794 71.254 19.1161 71.442 19.2527" fill="#990000"></path>
	<path d="M26.8206 18.3816C27.0769 18.3816 27.316 18.4499 27.5552 18.6378C27.6406 18.7062 27.7089 18.7745 27.7773 18.8258C27.9481 18.9795 27.931 19.2528 27.7602 19.3895C27.5894 19.5433 27.3844 19.6799 27.2477 19.7653C26.9573 19.9703 26.4448 20.3291 26.1031 20.0558C25.9323 19.902 26.2739 19.6628 26.1202 19.0649C26.0006 18.5866 26.4619 18.3816 26.8377 18.3816" fill="#011F5B"></path>
	<path d="M46.7056 24.3777C44.2115 24.3777 41.8881 23.3014 39.5136 22.0714C39.2573 21.9348 38.9498 21.781 38.6423 21.6102C36.7461 20.5681 33.8932 19.0135 32.014 19.9873C32.014 20.2264 31.9628 20.4656 31.8773 20.6706C31.5869 21.4564 30.6473 22.2764 30.1861 22.601C29.144 23.3527 27.8628 24.1043 26.257 24.1043C26.0178 24.1043 25.7786 24.0702 25.5736 24.0018C25.2661 23.8993 25.0099 23.7114 24.8049 23.4552C24.7195 23.3356 24.634 23.1989 24.5657 23.0452C24.5145 22.9085 24.4803 22.7889 24.4632 22.6694C23.797 22.4644 23.387 22.0202 23.387 21.4735C23.387 21.0635 23.6774 20.7219 23.9507 20.3973C24.3949 19.8677 24.5999 19.5944 24.1386 19.1673C24.0874 19.116 24.0361 19.0819 23.9678 19.0306C23.8824 18.9623 23.797 18.911 23.7115 18.8085C23.1649 18.2106 23.4724 17.049 23.6432 16.3485V16.2802C23.8653 15.5456 24.1557 14.7769 24.5828 13.9398C25.1465 12.8123 25.8299 11.5311 26.8036 10.7282C26.8549 10.694 26.9232 10.6598 26.9915 10.6769C27.0599 10.6769 27.1111 10.7282 27.1453 10.7794C27.1794 10.8307 27.5724 11.4286 27.9824 12.2144C29.6736 11.2065 32.0823 11.0869 32.3557 11.0869C33.8419 11.0357 35.9944 11.2577 37.8394 12.6756C38.984 13.564 39.9236 14.6402 40.829 15.6994C41.0681 15.9727 41.3073 16.2631 41.5635 16.5365C42.9644 18.1081 44.2969 19.3552 45.6294 20.3289C46.6373 21.0635 48.226 21.4735 49.3023 20.5852C49.6952 20.2606 49.866 19.6798 49.7293 19.1502C49.6098 18.6719 49.3023 18.3473 48.8752 18.2448C48.1064 18.074 47.4744 18.8427 46.9619 19.6114C46.9106 19.6798 46.8252 19.731 46.7398 19.714C46.6544 19.714 46.586 19.6456 46.5519 19.5773C46.0223 18.3302 46.0052 17.2881 46.4835 16.4852C46.8935 15.8019 47.6794 15.3065 48.6189 15.1698C48.6189 13.7006 48.9606 12.6244 49.6781 11.9752C50.1223 11.5823 50.9252 11.1382 52.2748 11.309C52.3431 11.309 52.4114 11.3602 52.4456 11.4286C52.4798 11.4969 52.4968 11.5652 52.4456 11.6336C51.506 13.8715 51.7452 14.7086 52.2406 16.5535C52.2918 16.7244 52.326 16.8952 52.3943 17.0831C52.8897 18.894 52.736 20.4656 51.9502 21.7127C50.686 23.7456 48.2431 24.241 48.1406 24.2581C47.6452 24.3435 47.1669 24.3777 46.6885 24.3777M33.3978 19.2015C35.1915 19.2015 37.2415 20.3289 38.8473 21.2002C39.1548 21.371 39.4452 21.5248 39.7186 21.6614C42.4519 23.0794 45.151 24.3093 48.0552 23.7968C48.0723 23.7968 50.4127 23.3185 51.5573 21.4564C52.2748 20.3119 52.3943 18.8769 51.9502 17.1856C51.8989 17.0148 51.8477 16.8269 51.8135 16.6731C51.3352 14.9136 51.0618 13.9227 51.916 11.7361C50.9252 11.6677 50.3273 12.0094 49.9856 12.2998C49.3364 12.8806 49.0289 13.9056 49.0802 15.3577C49.0802 15.4773 48.9948 15.5798 48.8752 15.5969C47.9869 15.6994 47.2352 16.1094 46.8594 16.7244C46.5006 17.3223 46.4835 18.091 46.8081 19.0135C47.2523 18.4156 48.0039 17.5956 48.9606 17.8006C49.5585 17.9373 50.0027 18.3985 50.1564 19.0306C50.3273 19.7481 50.1052 20.5169 49.5756 20.9439C48.3114 21.9689 46.5006 21.5419 45.339 20.7048C43.9723 19.714 42.6227 18.4498 41.2048 16.844C40.9656 16.5706 40.7094 16.2802 40.4702 16.0069C39.5648 14.9819 38.6423 13.9056 37.549 13.0515C35.8236 11.719 33.7736 11.4969 32.3728 11.5482C31.4161 11.5823 29.4857 11.8557 28.1874 12.6415C28.5974 13.4615 28.939 14.4181 28.939 15.1356C28.939 15.2723 28.9219 15.3919 28.8707 15.5286C29.8103 14.9819 30.9378 15.3748 31.5528 16.0581C31.6894 16.2119 31.8432 16.434 31.9969 16.6902C32.2361 17.049 32.5265 17.476 32.8511 17.8006C32.9023 17.8519 32.9194 17.9202 32.9194 17.9885C32.9194 18.0569 32.8853 18.1252 32.8169 18.1594C32.8169 18.1594 32.219 18.5865 31.3819 19.2015C31.2623 19.2869 31.1428 19.3723 31.0403 19.4406C31.0232 19.4406 31.0061 19.4748 30.989 19.4919L31.7236 19.6114C32.2361 19.3381 32.7828 19.2185 33.3807 19.2185M26.9061 11.2919C26.1032 12.0436 25.5053 13.1711 24.9928 14.179C24.5828 14.9819 24.2924 15.7165 24.1045 16.434V16.5023C23.9507 17.0319 23.6603 18.1252 24.0361 18.5181C24.0874 18.5694 24.1557 18.6206 24.224 18.6719C24.2924 18.7231 24.3607 18.7744 24.429 18.8427C25.2149 19.5944 24.6682 20.2435 24.2753 20.7048C24.0361 20.9781 23.814 21.2344 23.814 21.4906C23.814 22.0373 24.4803 22.2423 24.6853 22.2764C24.7878 22.2935 24.8561 22.3789 24.8561 22.4814C24.8561 22.6523 24.8903 22.7548 24.9415 22.8914C24.9928 23.011 25.044 23.0964 25.1124 23.1989C25.249 23.3698 25.437 23.5064 25.659 23.5919C25.8128 23.6602 26.0007 23.6773 26.2057 23.6773C27.6919 23.6773 28.8878 22.9427 29.8786 22.2423C30.4594 21.8323 31.194 21.0806 31.4161 20.5339C31.4673 20.3802 31.5015 20.2264 31.5186 20.0556L30.4765 19.8848H30.4594C30.3569 19.8506 30.2715 19.7652 30.2544 19.6627C30.2203 19.4577 30.4082 19.3381 30.784 19.0819C30.8865 19.0135 31.0061 18.9281 31.1086 18.8427C31.6553 18.4327 32.0994 18.1252 32.3386 17.9544C32.0482 17.6298 31.809 17.271 31.604 16.9465C31.4503 16.7244 31.3136 16.5023 31.194 16.3827C30.6815 15.8361 29.7761 15.5115 29.0415 15.9556C28.7511 16.1435 28.4949 16.3656 28.2044 16.6219C27.9824 16.8098 27.7603 17.0319 27.504 17.2027C27.4015 17.271 27.2649 17.254 27.1965 17.1515C27.1111 17.066 27.1282 16.9294 27.1965 16.844C27.2307 16.8098 27.2649 16.7756 27.3161 16.7415C27.6407 16.4169 28.4265 15.6994 28.4265 15.1698C28.4265 13.9569 27.2649 11.9752 26.8549 11.309" fill="#011F5B"></path>
	<path d="M25.3856 22.7889C25.1635 22.7889 24.9414 22.7889 24.7193 22.7548C24.5997 22.7377 24.4972 22.6352 24.5143 22.4985C24.5143 22.3789 24.6339 22.2935 24.7706 22.2935C25.8126 22.4302 27.3501 22.2935 28.6656 20.9098C28.751 20.8243 28.9047 20.8243 28.9901 20.9098C29.0755 20.9952 29.0755 21.1489 28.9901 21.2343C27.9993 22.2593 26.7522 22.7889 25.3685 22.7889" fill="#011F5B"></path>
	<path d="M43.8017 19.3382C43.8017 19.3382 43.7504 19.3382 43.7162 19.3211C43.5967 19.2698 43.5625 19.1503 43.5967 19.0307C43.8358 18.484 43.87 18.0228 43.6992 17.6811C43.46 17.2198 42.9133 17.0661 42.8963 17.0661C42.845 17.0661 42.7767 17.0148 42.7596 16.9636C42.7254 16.9123 42.7254 16.844 42.7596 16.7757C42.845 16.5707 43.0158 15.9386 42.9133 15.614C42.8108 15.3407 42.2983 15.2382 42.1275 15.204C42.0592 15.204 41.9908 15.1528 41.9567 15.1015C41.9225 15.0332 41.9225 14.9649 41.9567 14.9136C42.025 14.7428 42.1788 14.2303 41.9908 13.9569C41.6492 13.4274 40.7608 13.6836 40.7608 13.6836C40.6754 13.7007 40.59 13.6836 40.5388 13.6324C40.4875 13.5811 40.4704 13.4786 40.4875 13.4103C40.4875 13.4103 40.7438 12.6074 40.2483 12.0778C39.6675 11.4799 38.4034 11.8386 38.3863 11.8386C38.3179 11.8557 38.2325 11.8386 38.1813 11.7703C38.13 11.719 38.1129 11.6336 38.13 11.5482C38.13 11.514 38.3521 10.8478 37.8909 10.5745C37.1734 10.1303 36.3534 10.694 36.3534 10.7111C36.285 10.7624 36.2167 10.7624 36.1484 10.7282C36.08 10.694 36.0288 10.6257 36.0288 10.5574C36.0288 10.5232 35.9092 9.65196 35.1405 9.54946C34.3034 9.42988 33.4321 10.284 33.415 10.3011C33.3809 10.3353 33.3125 10.3695 33.2442 10.3695C33.1759 10.3695 33.1246 10.3353 33.0905 10.284C33.0905 10.284 32.4925 9.5153 31.758 9.54946C31.0405 9.58363 30.7671 10.3011 30.7671 10.3182C30.733 10.3865 30.6817 10.4378 30.6134 10.4549C30.5451 10.4549 30.4767 10.4549 30.4255 10.4036C30.4255 10.4036 29.708 9.7203 28.9905 9.99363C28.0851 10.3353 27.8288 11.4457 27.7434 11.8045C27.7263 11.924 27.6067 12.0095 27.4872 11.9753C27.3676 11.9582 27.2992 11.8386 27.3163 11.719C27.4188 11.292 27.7092 10.0107 28.8367 9.60071C29.5371 9.34446 30.1692 9.68613 30.4938 9.92529C30.6817 9.6178 31.0576 9.17363 31.7409 9.13946C32.4413 9.1053 33.0221 9.60071 33.2784 9.85696C33.62 9.58363 34.3888 9.01988 35.1917 9.13946C35.8921 9.24196 36.2338 9.78863 36.3704 10.2157C36.7463 10.0278 37.4467 9.80571 38.13 10.2157C38.5913 10.5232 38.6425 11.0186 38.6084 11.3432C39.1038 11.2578 40.0092 11.2065 40.5558 11.7703C41 12.2315 41.0171 12.8294 40.9658 13.1882C41.3588 13.1369 42.0079 13.1711 42.3496 13.7007C42.5717 14.0594 42.5033 14.5036 42.4179 14.794C42.7083 14.8624 43.1525 15.0332 43.2892 15.4261C43.4258 15.8019 43.2892 16.3657 43.2038 16.6732C43.4429 16.7757 43.8358 16.9978 44.0579 17.4248C44.2971 17.9032 44.2629 18.4669 43.9725 19.1503C43.9383 19.2357 43.8529 19.2698 43.7675 19.2698" fill="#011F5B"></path>
	<path d="M42.7254 22.3106H42.7083C42.5887 22.3106 42.5033 22.191 42.5204 22.0714C42.6229 21.2514 42.1275 21.0977 41.7175 20.9781C41.615 20.9439 41.5125 20.9098 41.4271 20.8585C41.205 20.7219 41.1879 20.4485 41.1879 20.1752C41.1879 19.8677 41.1708 19.526 40.9316 19.2698C40.5216 18.8256 39.7358 19.116 39.7358 19.116C39.6675 19.1502 39.5821 19.116 39.5308 19.0819C39.4625 19.0306 39.4454 18.9623 39.4454 18.894C39.4454 18.894 39.565 18.0227 39.0696 17.5956C38.6425 17.2369 37.8396 17.3223 37.5662 17.3906C37.4979 17.3906 37.4296 17.3906 37.3783 17.3394C37.3271 17.3052 37.31 17.2369 37.31 17.1685C37.3442 16.639 37.1392 16.1606 36.7292 15.9044C36.3875 15.6652 35.9604 15.6481 35.6358 15.819C34.7304 16.2973 34.3717 16.3315 33.4321 15.6652C33.1417 15.4602 32.8342 15.3919 32.5608 15.4602C32.2021 15.5456 31.8775 15.8702 31.6213 16.3656C31.57 16.4681 31.4504 16.5194 31.3309 16.4681C31.2284 16.4169 31.1771 16.2973 31.2284 16.1777C31.5359 15.5798 31.9629 15.1698 32.4413 15.0502C32.8513 14.9477 33.2783 15.0502 33.6713 15.3236C34.4742 15.8873 34.645 15.8702 35.4138 15.4431C35.8921 15.1869 36.4729 15.2211 36.9512 15.5285C37.4125 15.836 37.7029 16.3485 37.7371 16.9294C38.13 16.8781 38.8646 16.861 39.3429 17.271C39.8042 17.664 39.8896 18.279 39.8896 18.6377C40.2483 18.5694 40.8462 18.5523 41.2562 18.9965C41.5808 19.3723 41.615 19.8335 41.615 20.1923C41.615 20.3119 41.615 20.4827 41.6491 20.5339C41.6833 20.551 41.7687 20.5852 41.8541 20.6023C42.2641 20.7219 43.1012 20.9952 42.9646 22.1739C42.9646 22.2764 42.8621 22.3619 42.7596 22.3619" fill="#011F5B"></path>
	<path d="M21.4052 19.2017C21.2344 19.065 21.1319 18.9796 21.1319 18.8429V14.4355C21.1319 14.2988 21.2344 14.1963 21.4052 14.0596C21.5248 13.9742 21.6444 13.8717 21.7469 13.735C21.8494 13.5813 21.9006 13.3934 21.9006 13.2055C21.9006 13.0175 21.8494 12.8467 21.7469 12.693C21.6614 12.5563 21.5248 12.4538 21.4052 12.3513C21.2344 12.2146 21.1319 12.1292 21.1319 11.9755V10.438H20.7731C19.9531 10.438 19.0819 10.438 18.5181 10.1817C18.296 10.0963 18.074 9.95964 17.8519 9.82298C17.3565 9.4984 16.7756 9.13965 15.9044 9.13965C15.204 9.13965 14.5719 9.3959 14.0252 9.61798C13.6494 9.77173 13.3077 9.9084 13.0515 9.9084H12.949C12.7098 9.9084 12.3511 9.77173 11.9752 9.61798C11.4286 9.3959 10.7965 9.13965 10.0961 9.13965C9.22484 9.13965 8.64401 9.4984 8.14859 9.82298C7.92651 9.95964 7.72151 10.0963 7.49943 10.1817C6.93568 10.4209 6.04735 10.438 5.22735 10.438H4.88569V11.9755C4.88569 12.1292 4.78319 12.2146 4.61236 12.3513C4.49277 12.4367 4.37319 12.5392 4.27069 12.693C4.16819 12.8467 4.11694 13.0346 4.11694 13.2055C4.11694 13.3934 4.16819 13.5813 4.27069 13.735C4.35611 13.8717 4.49277 13.9742 4.61236 14.0596C4.78319 14.1963 4.88569 14.2817 4.88569 14.4355V18.8429C4.88569 18.9796 4.78319 19.065 4.61236 19.2017C4.49277 19.2871 4.37319 19.3896 4.27069 19.5263C4.16819 19.68 4.11694 19.8679 4.11694 20.0388C4.11694 20.2267 4.16819 20.4146 4.27069 20.5683C4.35611 20.705 4.49277 20.8075 4.61236 20.8929C4.78319 21.0296 4.88569 21.115 4.88569 21.2688V22.7379H21.1319V21.2688C21.1319 21.1321 21.2344 21.0296 21.4052 20.8929C21.5248 20.8075 21.6444 20.705 21.7469 20.5683C21.8494 20.4146 21.9006 20.2267 21.9006 20.0388C21.9006 19.8509 21.8494 19.68 21.7469 19.5263C21.6614 19.3896 21.5248 19.2871 21.4052 19.2017ZM14.2131 10.1134C14.7256 9.9084 15.3065 9.66923 15.9044 9.66923C16.6219 9.66923 17.1002 9.95965 17.5786 10.2671C17.8006 10.4038 18.0398 10.5576 18.3131 10.6771C18.5352 10.7626 18.7573 10.8309 18.9965 10.8821V20.2438C18.6206 20.1754 18.1935 20.1754 17.7494 20.1754C17.0831 20.1754 16.3827 20.1754 15.7165 19.9704C15.4944 19.9021 15.2552 19.8338 15.0331 19.7484C14.3498 19.5263 13.7348 19.3384 13.3077 19.3042H13.2907V10.4209C13.5811 10.3696 13.8886 10.2501 14.2302 10.1134M7.70443 10.6771C7.96068 10.5576 8.19984 10.4209 8.43901 10.2671C8.93442 9.95965 9.39567 9.66923 10.1132 9.66923C10.7111 9.66923 11.2919 9.9084 11.8044 10.1134C12.1632 10.2501 12.4877 10.3867 12.7782 10.4209V19.2871C12.7782 19.2871 12.744 19.2871 12.7269 19.2871C12.2998 19.3213 11.6848 19.5263 11.0015 19.7313C10.7794 19.7996 10.5402 19.885 10.3182 19.9534C9.65192 20.1584 8.95151 20.1583 8.28526 20.1583C7.84109 20.1583 7.4311 20.1583 7.03818 20.2267V10.8821C7.27735 10.8309 7.49943 10.7796 7.72151 10.6771M21.4735 20.0729C21.4735 20.1583 21.4565 20.2608 21.4052 20.3292C21.354 20.4146 21.2515 20.4829 21.166 20.5513C20.961 20.7221 20.7219 20.91 20.7219 21.2858V22.2596H5.32985V21.2858C5.32985 20.91 5.07361 20.7221 4.88569 20.5513C4.78319 20.4829 4.69777 20.3975 4.64652 20.3292C4.59527 20.2438 4.56111 20.1583 4.57819 20.0729C4.57819 19.9534 4.59527 19.885 4.64652 19.7996C4.69777 19.7142 4.80027 19.6459 4.88569 19.5775C5.09069 19.4238 5.32985 19.2188 5.32985 18.86V14.4525C5.32985 14.0767 5.07361 13.8888 4.88569 13.735C4.78319 13.6496 4.69777 13.5813 4.64652 13.4959C4.59527 13.4105 4.56111 13.325 4.57819 13.2396C4.57819 13.1371 4.59527 13.0346 4.64652 12.9663C4.69777 12.8809 4.80027 12.8125 4.88569 12.7442C5.09069 12.5905 5.32985 12.3855 5.32985 12.0096V10.9846H5.36402C5.77402 10.9846 6.14985 10.9846 6.52568 10.9505V21.0979H12.1119C12.2144 21.4908 12.5732 21.7813 13.0173 21.7813C13.4615 21.7813 13.8202 21.4908 13.9227 21.0979H19.509V10.9334C19.8677 10.9676 20.2606 10.9676 20.6535 10.9676H20.6877V11.9926C20.6877 12.3684 20.9269 12.5563 21.1319 12.7271C21.2344 12.7955 21.3198 12.8809 21.371 12.9492C21.4223 13.0175 21.4565 13.12 21.4394 13.2055C21.4394 13.325 21.4223 13.3934 21.371 13.4788C21.3198 13.5642 21.2173 13.6325 21.1319 13.718C20.9269 13.8717 20.6877 14.0767 20.6877 14.4355V18.8429C20.6877 19.2017 20.9269 19.4067 21.1319 19.5604C21.2344 19.6459 21.3198 19.7142 21.371 19.7825C21.4223 19.8679 21.4565 19.9533 21.4394 20.0388L21.4735 20.0729Z" fill="#011F5B"></path>
	<path d="M71.5104 19.2017C71.3225 19.065 71.2371 18.9796 71.2371 18.8429V14.4355C71.2371 14.2988 71.3396 14.1963 71.5104 14.0596C71.63 13.9742 71.7496 13.8717 71.8521 13.735C71.9546 13.5813 72.0058 13.3934 72.0058 13.2055C72.0058 13.0175 71.9546 12.8467 71.8521 12.693C71.7667 12.5563 71.63 12.4538 71.5104 12.3513C71.3225 12.2146 71.2371 12.1292 71.2371 11.9755V10.438H70.8783C70.0584 10.438 69.1871 10.438 68.6234 10.1817C68.4013 10.0963 68.1792 9.95964 67.9571 9.82298C67.4617 9.4984 66.8809 9.13965 66.0096 9.13965C65.3263 9.13965 64.6771 9.3959 64.1305 9.61798C63.7546 9.77173 63.3959 9.9084 63.1567 9.9084H63.0542C62.815 9.9084 62.4563 9.77173 62.0805 9.61798C61.5167 9.3959 60.8846 9.13965 60.2013 9.13965C59.3301 9.13965 58.7492 9.4984 58.2538 9.82298C58.0317 9.95964 57.8267 10.0963 57.6047 10.1817C57.0409 10.4209 56.1526 10.438 55.3326 10.438H54.9909V11.9755C54.9909 12.1292 54.8884 12.2146 54.7176 12.3513C54.598 12.4367 54.4784 12.5392 54.3759 12.693C54.2734 12.8467 54.2222 13.0346 54.2222 13.2055C54.2222 13.3934 54.2734 13.5813 54.3759 13.735C54.4613 13.8717 54.598 13.9742 54.7176 14.0596C54.8884 14.1963 54.9909 14.2817 54.9909 14.4355V18.8429C54.9909 18.9796 54.8884 19.065 54.7176 19.2017C54.598 19.2871 54.4784 19.3896 54.3759 19.5263C54.2734 19.68 54.2222 19.8679 54.2222 20.0388C54.2222 20.2267 54.2734 20.4146 54.3759 20.5683C54.4613 20.705 54.598 20.8075 54.7176 20.8929C54.8884 21.0296 54.9909 21.115 54.9909 21.2688V22.7379H71.2371V21.2688C71.2371 21.1321 71.3396 21.0296 71.5104 20.8929C71.63 20.8075 71.7496 20.705 71.8521 20.5683C71.9546 20.4146 72.0058 20.2267 72.0058 20.0388C72.0058 19.8509 71.9546 19.68 71.8521 19.5263C71.7667 19.3896 71.63 19.2871 71.5104 19.2017M64.3184 10.1134C64.8309 9.9084 65.4117 9.66923 66.0096 9.66923C66.7442 9.66923 67.1884 9.95965 67.6838 10.2671C67.9059 10.4038 68.145 10.5576 68.4013 10.6771C68.6234 10.7626 68.8454 10.8309 69.0846 10.8821V20.2438C68.7088 20.1754 68.2817 20.1754 67.8375 20.1754C67.1713 20.1754 66.4709 20.1754 65.8046 19.9704C65.5825 19.9021 65.3434 19.8338 65.1213 19.7484C64.438 19.5263 63.823 19.3384 63.3959 19.3042H63.3788V10.4209C63.6692 10.3696 63.9767 10.2501 64.3184 10.1134M57.7926 10.6771C58.0488 10.5576 58.288 10.4209 58.5101 10.2671C59.0055 9.95965 59.4667 9.66923 60.1842 9.66923C60.7821 9.66923 61.363 9.9084 61.8755 10.1134C62.2342 10.2501 62.5588 10.3867 62.8492 10.4209V19.2871C62.8492 19.2871 62.815 19.2871 62.798 19.2871C62.3709 19.3213 61.773 19.5263 61.0726 19.7313C60.8505 19.7996 60.6113 19.885 60.3892 19.9534C59.723 20.1584 59.0226 20.1583 58.3563 20.1583C57.9122 20.1583 57.5022 20.1583 57.1092 20.2267V10.8821C57.3484 10.8309 57.5705 10.7796 57.7926 10.6771M71.5446 20.0729C71.5446 20.1583 71.5275 20.2608 71.4763 20.3292C71.425 20.4146 71.3225 20.4829 71.2371 20.5513C71.0321 20.7221 70.7929 20.91 70.7929 21.2858V22.2596H55.4522V21.2858C55.4522 20.91 55.1959 20.7221 55.008 20.5513C54.9055 20.4829 54.8201 20.3975 54.7688 20.3292C54.7176 20.2438 54.6834 20.1583 54.7005 20.0729C54.7005 19.9534 54.7176 19.885 54.7688 19.7996C54.8201 19.7142 54.9226 19.6459 55.008 19.5775C55.213 19.4238 55.4522 19.2188 55.4522 18.86V14.4525C55.4522 14.0767 55.1959 13.8888 55.008 13.735C54.9055 13.6496 54.8201 13.5813 54.7688 13.4959C54.7176 13.4105 54.6834 13.325 54.7005 13.2396C54.7005 13.1371 54.7176 13.0346 54.7688 12.9663C54.8201 12.8809 54.9226 12.8125 55.008 12.7442C55.213 12.5905 55.4522 12.3855 55.4522 12.0096V10.9846H55.4863C55.8963 10.9846 56.2722 10.9846 56.648 10.9505V21.0979H62.2342C62.3367 21.4908 62.6955 21.7813 63.1396 21.7813C63.5838 21.7813 63.9255 21.4908 64.045 21.0979H69.6313V10.9334C70.0071 10.9676 70.3829 10.9676 70.7929 10.9676H70.8271V11.9926C70.8271 12.3684 71.0833 12.5563 71.2713 12.7271C71.3738 12.7955 71.4592 12.8809 71.5104 12.9492C71.5617 13.0175 71.5958 13.12 71.5788 13.2055C71.5788 13.325 71.5617 13.3934 71.5104 13.4788C71.4592 13.5642 71.3567 13.6325 71.2713 13.718C71.0663 13.8717 70.8271 14.0767 70.8271 14.4355V18.8429C70.8271 19.2017 71.0833 19.4067 71.2713 19.5604C71.3738 19.6459 71.4592 19.7142 71.5104 19.7825C71.5617 19.8679 71.5958 19.9533 71.5788 20.0388L71.5446 20.0729Z" fill="#011F5B"></path>
	<path d="M74.6539 4.88599H1.45212V41.3758C1.40087 57.3658 10.3013 68.9824 17.7666 75.9182C25.9154 83.469 35.0891 87.979 37.9761 88.5939H38.1299C41.017 87.9619 50.1907 83.469 58.3394 75.9182C65.8218 68.9824 74.7051 57.3658 74.671 41.3758V4.88599H74.6539ZM73.646 26.8721H2.46004V5.8939H73.646V26.8721V26.8721ZM16.5879 62.4566C14.145 60.0137 14.145 56.0333 16.5879 53.5904C19.0308 51.1474 23.0112 51.1474 25.4541 53.5904C27.897 56.0333 27.897 60.0137 25.4541 62.4566C23.0112 64.8995 19.0308 64.8995 16.5879 62.4566ZM57.639 75.1836C49.1657 83.0419 40.402 86.9881 38.0445 87.586C35.687 86.9881 26.9233 83.0248 18.45 75.1836C18.245 74.9957 18.04 74.7907 17.835 74.6028L38.0445 53.1462L58.254 74.6028C58.049 74.7907 57.844 74.9957 57.639 75.1836ZM31.7749 42.4692C31.7749 39.0183 34.5766 36.1996 38.0445 36.1996C41.5124 36.1996 44.314 39.0013 44.314 42.4692C44.314 45.9371 41.5124 48.7387 38.0445 48.7387C34.5766 48.7387 31.7749 45.92 31.7749 42.4692ZM59.5181 62.4566C57.0752 64.8995 53.0948 64.8995 50.6519 62.4566C48.209 60.0137 48.209 56.0333 50.6519 53.5904C53.0948 51.1474 57.0752 51.1474 59.5181 53.5904C61.961 56.0333 61.961 60.0137 59.5181 62.4566ZM69.5802 59.2791L38.0445 28.8709L6.50877 59.2791C4.06586 54.1199 2.42587 48.1579 2.46004 41.3758V27.8801H73.646V41.3758C73.6631 48.1408 72.0401 54.1199 69.5802 59.2791" fill="#011F5B"></path>
	<path d="M88.7987 81.2993C88.7987 84.9039 89.7725 87.6714 93.6162 87.6714C97.1524 87.6714 99.0145 85.2968 99.0145 81.1797V74.0048C99.0145 73.4752 98.912 73.031 98.8608 72.621C98.7412 71.6985 97.8528 71.3227 96.6399 71.2031V70.5369H102.722V71.2031C101.492 71.3227 100.637 71.6985 100.501 72.621C100.45 73.031 100.364 73.4752 100.364 74.0048V81.2822C100.364 86.8343 96.8278 88.8843 93.4966 88.8843C88.0129 88.8843 86.3046 86.0997 86.3046 81.436V73.7485C86.3046 71.3569 86.4071 71.4764 84.0837 71.2031V70.5369H91.0195V71.2031C88.6962 71.4764 88.7987 71.3569 88.7987 73.7485V81.2993V81.2993Z" fill="#011F5B"></path>
	<path d="M117.31 88.5767C114.15 84.8354 110.87 80.9234 107.624 77.0967V85.8946C107.624 86.3046 107.71 86.6463 107.744 86.9538C107.846 87.6713 108.513 87.9617 109.828 88.0471V88.5596H104.959V88.0471C105.916 87.9617 106.565 87.6713 106.668 86.9538C106.702 86.6292 106.787 86.3046 106.787 85.8946V76.533C106.223 75.8155 105.608 75.1834 104.481 75.1834V74.6709H108.103C111.058 78.2755 114.15 81.9313 117.105 85.5359H117.14V77.3701C117.14 76.943 117.054 76.6013 117.02 76.2938C116.918 75.5763 116.234 75.303 114.936 75.2005V74.688H119.805V75.2005C118.865 75.303 118.182 75.5763 118.096 76.2938C118.062 76.6013 117.977 76.943 117.977 77.3701V88.5938H117.293L117.31 88.5767Z" fill="#011F5B"></path>
	<path d="M127.117 86.0825C127.117 87.9275 127.031 87.825 128.825 88.0471V88.5596H123.478V88.0471C125.272 87.825 125.186 87.9275 125.186 86.0825V77.1309C125.186 75.2859 125.272 75.3884 123.478 75.1663V74.6367H128.825V75.1663C127.031 75.3713 127.117 75.2859 127.117 77.1309V86.0825Z" fill="#011F5B"></path>
	<path d="M137.503 75.1663C136.41 75.1663 135.624 75.4738 136.273 77.3871C137.059 79.7446 138.204 83.1442 139.246 86.185C140.527 83.1442 141.74 80.0692 142.97 77.0455C143.465 75.7813 142.953 75.1663 141.603 75.1663V74.6538H145.891V75.1663C145.31 75.1663 144.661 75.3542 144.251 76.3621C142.577 80.445 140.903 84.4938 139.229 88.5596H138.204C136.991 85.1258 135.641 81.2821 134.428 77.9167C133.694 75.7813 133.079 75.1663 132.122 75.1663V74.6538H137.52V75.1663H137.503Z" fill="#011F5B"></path>
	<path d="M148.932 88.0471C150.725 87.825 150.64 87.9275 150.64 86.0825V77.1309C150.64 75.2859 150.725 75.3713 148.932 75.1663V74.6538H157.832V77.8484H157.32C157.115 76.3621 156.722 75.2859 155.287 75.2859H152.587V80.9746H154.262C155.509 80.9746 156.055 80.4792 156.09 79.2492H156.602V83.4859H156.09C156.055 82.3242 155.594 81.6238 154.262 81.6238H152.587V86.1167C152.587 87.8079 153.373 87.9446 155.15 87.9446C158.037 87.9446 157.9 87.1246 158.806 85.0063H159.318L158.72 88.5767H148.932V88.0642V88.0471Z" fill="#011F5B"></path>
	<path d="M162.735 74.6538H168.526C170.525 74.6538 172.541 75.713 172.541 78.0363C172.541 80.0863 171.294 81.4871 169.756 82.085L171.704 85.0404C172.695 86.4925 173.805 87.8933 174.523 88.3033V88.5596H172.473C171.294 88.5596 170.662 86.39 168.253 82.3925H166.374V86.0825C166.374 87.9275 166.288 87.825 168.082 88.0471V88.5596H162.735V88.0471C164.529 87.825 164.443 87.9275 164.443 86.0825V77.1309C164.443 75.2859 164.512 75.3713 162.735 75.1663V74.6538V74.6538ZM166.374 81.7775H168.014C169.739 81.7775 170.542 80.4792 170.542 78.2242C170.542 75.9692 169.346 75.303 167.894 75.303H166.357V81.7775H166.374Z" fill="#011F5B"></path>
	<path d="M184.568 77.6094C184.397 76.2256 183.645 75.0981 182.056 75.0981C180.912 75.0981 179.87 75.696 179.87 77.1652C179.87 78.6344 181.253 79.386 183.252 80.8893C185.353 82.461 186.037 83.486 186.037 85.126C186.037 87.4835 183.611 88.7989 181.219 88.7989C179.938 88.7989 178.845 88.5597 177.82 88.1668C177.734 88.1326 177.683 88.0472 177.683 87.8935V85.0235H178.196C178.401 87.2272 179.853 88.1156 181.407 88.1156C182.808 88.1156 183.97 87.0393 183.97 85.5872C183.97 84.306 183.269 83.2468 180.297 81.2652C179.221 80.5477 177.888 79.7789 177.888 77.6094C177.888 75.8156 179.887 74.3977 182.159 74.3977C183.013 74.3977 184.158 74.5002 184.943 74.7735C185.063 74.8077 185.08 74.8931 185.08 74.9785V77.5923H184.568V77.6094Z" fill="#011F5B"></path>
	<path d="M193.81 86.0825C193.81 87.9275 193.724 87.825 195.518 88.0471V88.5596H190.171V88.0471C191.965 87.825 191.879 87.9275 191.879 86.0825V77.1309C191.879 75.2859 191.948 75.3884 190.171 75.1663V74.6367H195.518V75.1663C193.724 75.3713 193.81 75.2859 193.81 77.1309V86.0825Z" fill="#011F5B"></path>
	<path d="M205.7 86.0825C205.7 87.9275 205.614 87.825 207.408 88.0471V88.5596H202.061V88.0471C203.855 87.825 203.769 87.9275 203.769 86.0825V75.2859H201.976C200.25 75.2859 199.857 76.3792 199.191 77.6946H198.696L199.242 74.6538H210.244L210.773 77.6946H210.261C209.612 76.3792 209.219 75.2859 207.476 75.2859H205.7V86.0825Z" fill="#011F5B"></path>
	<path d="M216.53 88.0471C218.324 87.825 218.238 87.9275 218.238 86.0825V83.0246L215.181 76.96C214.531 75.6617 213.968 75.1663 213.045 75.1663V74.6538H218.119V75.1663C216.616 75.1663 216.735 75.918 217.248 76.96L219.656 81.9484L222.39 76.96C223.073 75.7471 222.424 75.1663 221.245 75.1663V74.6538H225.345V75.1663C224.798 75.1663 224.252 75.4226 223.722 76.3792L220.391 82.4096C220.186 82.8025 220.169 83.3663 220.169 83.8617V86.0825C220.169 87.9275 220.083 87.825 221.877 88.0471V88.5596H216.513V88.0471H216.53Z" fill="#011F5B"></path>
	<path d="M235.527 83.8107C235.527 80.4282 238.448 75.3716 242.736 75.3716C246.17 75.3716 246.922 77.6949 246.922 80.0182C246.922 82.8541 244.65 88.8844 239.73 88.8844C236.433 88.8844 235.527 86.2365 235.527 83.8107M244.547 78.7882C244.547 76.1062 242.924 76.0037 242.514 76.0037C239.73 76.0037 237.902 81.0091 237.902 84.3574C237.902 85.6899 238.124 88.1157 240.037 88.1157C242.975 88.1157 244.547 83.2811 244.547 78.7882Z" fill="#011F5B"></path>
	<path d="M258.914 76.2255L258.299 76.7722H254.916C253.652 82.9221 251.585 91.0879 250.116 95H248.954L252.644 76.7722H250.201L250.441 75.6959H252.866C254.233 70.2122 258.777 69.6313 259.853 69.6313C260.451 69.6313 261.681 69.7338 262.074 70.0926L261.75 71.8009L261.101 72.1084C260.742 71.408 259.922 70.6051 258.846 70.6051C257.291 70.6051 256.129 71.6643 255.514 74.4488L255.224 75.6788H259.016L258.914 76.2255Z" fill="#011F5B"></path>
	<path d="M274.391 85.348C274.391 87.7397 274.289 87.6201 276.612 87.8935V88.5597H269.677V87.8935C272 87.603 271.897 87.7397 271.897 85.348V73.7485C271.897 71.3569 272 71.4764 269.677 71.2031V70.5369H276.424C280.712 70.5369 282.814 72.2281 282.814 75.3202C282.814 79.0272 279.465 81.0431 275.519 80.8039V80.2914C278.731 80.3427 280.234 78.4122 280.234 75.5764C280.234 72.7406 278.85 71.3569 275.963 71.3569H274.391V85.348Z" fill="#011F5B"></path>
	<path d="M286.384 88.0471C288.16 87.825 288.092 87.9275 288.092 86.0825V77.1309C288.092 75.2859 288.16 75.3713 286.384 75.1663V74.6538H295.267V77.8484H294.754C294.549 76.3621 294.156 75.2859 292.721 75.2859H290.022V80.9746H291.696C292.944 80.9746 293.49 80.4792 293.524 79.2492H294.037V83.4859H293.524C293.49 82.3242 293.029 81.6238 291.696 81.6238H290.022V86.1167C290.022 87.8079 290.791 87.9446 292.585 87.9446C295.455 87.9446 295.318 87.1246 296.241 85.0063H296.753L296.155 88.5767H286.366V88.0642L286.384 88.0471Z" fill="#011F5B"></path>
	<path d="M312.231 88.5767C309.07 84.8354 305.79 80.9234 302.544 77.0967V85.8946C302.544 86.3046 302.63 86.6463 302.664 86.9538C302.767 87.6713 303.433 87.9617 304.748 88.0471V88.5596H299.879V88.0471C300.836 87.9617 301.485 87.6713 301.588 86.9538C301.639 86.6292 301.707 86.3046 301.707 85.8946V76.533C301.144 75.8155 300.529 75.1834 299.401 75.1834V74.6709H303.023C305.978 78.2755 309.07 81.9313 312.026 85.5359H312.06V77.3701C312.06 76.943 311.992 76.6013 311.94 76.2938C311.838 75.5763 311.171 75.303 309.839 75.2005V74.688H314.725V75.2005C313.785 75.303 313.119 75.5763 312.999 76.2938C312.965 76.6013 312.88 76.943 312.88 77.3701V88.5938H312.214L312.231 88.5767Z" fill="#011F5B"></path>
	<path d="M330.373 88.5767C327.213 84.8354 323.933 80.9234 320.687 77.0967V85.8946C320.687 86.3046 320.755 86.6463 320.806 86.9538C320.909 87.6713 321.592 87.9617 322.89 88.0471V88.5596H318.022V88.0471C318.978 87.9617 319.628 87.6713 319.73 86.9538C319.764 86.6292 319.85 86.3046 319.85 85.8946V76.533C319.303 75.8155 318.671 75.1834 317.543 75.1834V74.6709H321.165C324.138 78.2755 327.213 81.9313 330.185 85.5359H330.219V77.3701C330.219 76.943 330.151 76.6013 330.117 76.2938C330.014 75.5763 329.331 75.303 328.015 75.2005V74.688H332.884V75.2005C331.945 75.303 331.278 75.5763 331.176 76.2938C331.125 76.6013 331.039 76.943 331.039 77.3701V88.5938H330.373V88.5767Z" fill="#011F5B"></path>
	<path d="M343.322 77.6094C343.168 76.2256 342.4 75.0981 340.811 75.0981C339.666 75.0981 338.624 75.696 338.624 77.1652C338.624 78.6344 340.025 79.386 342.007 80.8893C344.108 82.461 344.791 83.486 344.791 85.126C344.791 87.4835 342.382 88.7989 339.974 88.7989C338.71 88.7989 337.599 88.5597 336.574 88.1668C336.506 88.1326 336.438 88.0472 336.438 87.8935V85.0235H336.95C337.172 87.2272 338.624 88.1156 340.162 88.1156C341.562 88.1156 342.724 87.0393 342.724 85.5872C342.724 84.306 342.041 83.2468 339.051 81.2652C337.975 80.5477 336.642 79.7789 336.642 77.6094C336.642 75.8156 338.624 74.3977 340.93 74.3977C341.785 74.3977 342.912 74.5002 343.698 74.7735C343.817 74.8077 343.835 74.8931 343.835 74.9785V77.5923H343.322V77.6094Z" fill="#011F5B"></path>
	<path d="M351.334 88.0471C353.128 87.825 353.042 87.9275 353.042 86.0825V83.0246L349.985 76.96C349.335 75.6617 348.772 75.1663 347.866 75.1663V74.6538H352.923V75.1663C351.42 75.1663 351.556 75.918 352.052 76.96L354.46 81.9484L357.194 76.96C357.877 75.7471 357.245 75.1663 356.066 75.1663V74.6538H360.166V75.1663C359.619 75.1663 359.073 75.4226 358.543 76.3792L355.229 82.4096C355.041 82.8025 354.99 83.3663 354.99 83.8617V86.0825C354.99 87.9275 354.905 87.825 356.698 88.0471V88.5596H351.351V88.0471H351.334Z" fill="#011F5B"></path>
	<path d="M363.6 88.0471C365.394 87.825 365.308 87.9275 365.308 86.0825V77.1309C365.308 75.2859 365.377 75.3713 363.6 75.1663V74.6538H368.947V75.1663C367.153 75.3713 367.239 75.2859 367.239 77.1309V86.4071C367.239 87.7908 368.008 87.9446 369.784 87.9446C372.671 87.9446 372.552 87.1246 373.457 85.0063H373.953L373.355 88.5767H363.583V88.0642L363.6 88.0471Z" fill="#011F5B"></path>
	<path d="M379.761 75.1663C378.667 75.1663 377.864 75.4738 378.531 77.3871C379.316 79.7446 380.461 83.1442 381.503 86.185C382.767 83.1442 383.98 80.0692 385.21 77.0455C385.706 75.7813 385.21 75.1663 383.844 75.1663V74.6538H388.131V75.1663C387.551 75.1663 386.901 75.3542 386.491 76.3621C384.817 80.445 383.143 84.4938 381.452 88.5596H380.444C379.231 85.1258 377.881 81.2821 376.669 77.9167C375.934 75.7813 375.319 75.1663 374.362 75.1663V74.6538H379.778V75.1663H379.761Z" fill="#011F5B"></path>
	<path d="M391.77 83.9643L390.848 86.6293C390.592 87.3981 390.967 88.0643 391.839 88.0643V88.5768H388.217V88.0643C388.764 88.0643 389.345 87.7227 389.652 87.0735C390.506 85.3139 392.83 78.8223 394.487 74.4148H395.597C396.947 78.4123 398.979 84.5452 399.663 86.3047C400.107 87.4152 400.414 88.0472 401.269 88.0472V88.5597H396.639V88.0472C397.886 88.0472 398.006 87.3981 397.681 86.5268L396.827 83.9472H391.77V83.9643ZM396.588 83.2127L394.47 76.7552H394.435L392.061 83.2127H396.588Z" fill="#011F5B"></path>
	<path d="M416.268 88.5767C413.09 84.8354 409.827 80.9234 406.581 77.0967V85.8946C406.581 86.3046 406.65 86.6463 406.701 86.9538C406.803 87.6713 407.487 87.9617 408.785 88.0471V88.5596H403.916V88.0471C404.873 87.9617 405.522 87.6713 405.625 86.9538C405.676 86.6292 405.744 86.3046 405.744 85.8946V76.533C405.198 75.8155 404.583 75.1834 403.438 75.1834V74.6709H407.06C410.015 78.2755 413.107 81.9313 416.063 85.5359H416.097V77.3701C416.097 76.943 416.028 76.6013 415.977 76.2938C415.875 75.5763 415.191 75.303 413.893 75.2005V74.688H418.762V75.2005C417.822 75.303 417.156 75.5763 417.053 76.2938C417.019 76.6013 416.934 76.943 416.934 77.3701V88.5938H416.268V88.5767Z" fill="#011F5B"></path>
	<path d="M425.664 86.0825C425.664 87.9275 425.578 87.825 427.372 88.0471V88.5596H422.025V88.0471C423.819 87.825 423.733 87.9275 423.733 86.0825V77.1309C423.733 75.2859 423.819 75.3884 422.025 75.1663V74.6367H427.372V75.1663C425.578 75.3713 425.664 75.2859 425.664 77.1309V86.0825Z" fill="#011F5B"></path>
	<path d="M433.983 83.9643L433.061 86.6293C432.804 87.3981 433.18 88.0643 434.068 88.0643V88.5768H430.447V88.0643C430.993 88.0643 431.557 87.7227 431.882 87.0735C432.736 85.3139 435.059 78.8223 436.716 74.4148H437.827C439.176 78.4123 441.209 84.5452 441.893 86.3047C442.337 87.4152 442.644 88.0472 443.498 88.0472V88.5597H438.869V88.0472C440.116 88.0472 440.235 87.3981 439.928 86.5268L439.074 83.9472H434.017L433.983 83.9643ZM438.783 83.2127L436.682 76.7552H436.648L434.273 83.2127H438.783Z" fill="#011F5B"></path>
	<path d="M101.116 6.20147H95.427V26.8551C96.9645 27.3847 98.8608 27.641 101.116 27.641C104.567 27.641 107.3 26.7526 109.299 24.976C111.297 23.1993 112.305 20.7564 112.305 17.6814C112.305 14.3673 111.314 11.6169 109.316 9.46437C107.317 7.31188 104.601 6.21855 101.116 6.21855M84.0837 4.45898H100.894C106.394 4.45898 110.734 5.67189 113.945 8.1148C117.157 10.5577 118.763 13.6839 118.763 17.5448C118.763 21.4056 117.362 24.3097 114.56 26.3597C111.759 28.4097 107.744 29.4347 102.499 29.4347C100.484 29.4347 98.1262 29.281 95.427 28.9564V41.8542C95.427 44.6388 95.8028 46.5521 96.5374 47.5942C97.2891 48.6363 98.6558 49.1659 100.637 49.1659V50.4984H84.0667V49.1659C86.0483 49.1659 87.415 48.6192 88.1666 47.5088C88.9183 46.4155 89.277 44.5705 89.277 42.008V13.1202C89.277 10.3698 88.9012 8.45646 88.1666 7.38022C87.415 6.30397 86.0483 5.77439 84.0667 5.77439V4.44189L84.0837 4.45898Z" fill="#011F5B"></path>
	<path d="M119.6 31.7577H135.111V31.211C135.111 28.6656 134.394 26.6498 132.942 25.1635C131.49 23.6773 129.679 22.9256 127.509 22.9256C125.203 22.9256 123.358 23.7114 121.957 25.2831C120.557 26.8548 119.771 29.0073 119.617 31.7577M141.005 43.1864V45.2705C139.28 47.4743 137.52 49.0459 135.726 49.9855C133.933 50.9251 131.78 51.4034 129.269 51.4034C124.827 51.4034 121.154 50.0026 118.25 47.218C115.363 44.4334 113.911 40.8972 113.911 36.5922C113.911 32.2872 115.295 28.6314 118.045 25.676C120.813 22.7206 124.195 21.2344 128.193 21.2344C131.49 21.2344 134.36 22.3448 136.82 24.5656C139.28 26.7864 140.51 29.4514 140.51 32.5435V33.1243H119.583V33.5172C119.583 36.6606 120.061 39.3768 121.018 41.7001C121.974 44.0234 123.375 45.8343 125.203 47.1326C127.031 48.448 128.944 49.0972 130.943 49.0972C132.805 49.0972 134.394 48.7043 135.709 47.9355C137.025 47.1668 138.784 45.578 140.988 43.1693" fill="#011F5B"></path>
	<path d="M151.118 21.2344V26.9231C154.45 23.1306 157.866 21.2344 161.402 21.2344C164.153 21.2344 166.442 22.1739 168.27 24.0531C170.098 25.9323 171.02 28.3923 171.02 31.4672V44.3139C171.02 46.2784 171.345 47.5768 172.011 48.2088C172.66 48.8409 173.942 49.1484 175.855 49.1484V50.4809H160.668V49.1484C162.547 49.1484 163.845 48.9092 164.529 48.4138C165.212 47.9184 165.571 46.9959 165.571 45.5951V30.6985C165.571 28.6998 164.973 27.1281 163.794 25.9323C162.598 24.7535 161.078 24.1556 159.216 24.1556C156.551 24.1556 153.852 26.0177 151.135 29.7247V43.6476C151.135 46.0051 151.443 47.5084 152.058 48.1576C152.673 48.8067 153.954 49.1142 155.885 49.1142V50.4467H140.885V49.1142C143.055 49.1142 144.388 48.7726 144.883 48.0722C145.378 47.3718 145.635 45.9026 145.635 43.6476V27.5893C145.635 25.881 145.327 24.7706 144.729 24.2239C144.131 23.6944 142.85 23.421 140.885 23.421V22.0885L149.752 21.2173H151.118V21.2344Z" fill="#011F5B"></path>
	<path d="M185.695 21.2344V26.9231C189.026 23.1306 192.443 21.2344 195.979 21.2344C198.73 21.2344 201.019 22.1739 202.847 24.0531C204.675 25.9323 205.597 28.3923 205.597 31.4672V44.3139C205.597 46.2784 205.922 47.5768 206.588 48.2088C207.237 48.8409 208.518 49.1484 210.432 49.1484V50.4809H195.245V49.1484C197.124 49.1484 198.422 48.9092 199.105 48.4138C199.789 47.9184 200.147 46.9959 200.147 45.5951V30.6985C200.147 28.6998 199.55 27.1281 198.371 25.9323C197.175 24.7535 195.655 24.1556 193.793 24.1556C191.128 24.1556 188.428 26.0177 185.712 29.7247V43.6476C185.712 46.0051 186.02 47.5084 186.635 48.1576C187.25 48.8067 188.531 49.1142 190.461 49.1142V50.4467H175.462V49.1142C177.632 49.1142 178.964 48.7726 179.46 48.0722C179.955 47.3718 180.211 45.9026 180.211 43.6476V27.5893C180.211 25.881 179.904 24.7706 179.306 24.2239C178.708 23.6944 177.427 23.421 175.462 23.421V22.0885L184.328 21.2173H185.695V21.2344Z" fill="#011F5B"></path>
	<path d="M251.466 40.4363H252.832L250.014 50.4813H216.65V49.1488C218.529 49.1488 219.879 48.5509 220.682 47.3721C221.484 46.1934 221.877 44.2117 221.877 41.4442V12.4539C221.877 9.95979 221.502 8.23438 220.767 7.24355C220.015 6.2698 218.649 5.77439 216.667 5.77439V4.44189H233.152V5.77439C231.324 5.77439 230.009 6.33814 229.206 7.46563C228.403 8.59313 228.01 10.4552 228.01 13.0348V43.8017C228.01 45.51 228.369 46.6717 229.087 47.3038C229.804 47.9359 231.188 48.2434 233.221 48.2434H242.36C245.179 48.2434 247.161 47.748 248.288 46.7742C249.416 45.8005 250.475 43.6821 251.466 40.4363Z" fill="#011F5B"></path>
	<path d="M261.203 6.50879C262.177 6.50879 262.98 6.85045 263.663 7.5167C264.346 8.18295 264.671 9.00295 264.671 9.97669C264.671 10.9504 264.329 11.7704 263.646 12.4708C262.963 13.1713 262.16 13.5129 261.22 13.5129C260.281 13.5129 259.409 13.1713 258.709 12.4708C258.009 11.7704 257.65 10.9504 257.65 9.97669C257.65 9.00295 257.991 8.18295 258.692 7.5167C259.392 6.85045 260.229 6.50879 261.22 6.50879M262.467 21.2346H263.834V45.2195C263.834 46.7911 264.176 47.8503 264.859 48.3628C265.542 48.8924 266.789 49.1486 268.583 49.1486V50.4811H253.003V49.1486C255.275 49.1486 256.744 48.8924 257.394 48.3799C258.043 47.8674 258.367 46.8082 258.367 45.2024V27.6749C258.367 25.9495 258.06 24.805 257.462 24.2412C256.864 23.6945 255.361 23.4212 252.986 23.4212V22.0887L262.45 21.2175L262.467 21.2346Z" fill="#011F5B"></path>
	<path d="M276.851 27.5553V43.8015C276.851 45.9198 277.21 47.3719 277.927 48.1577C278.645 48.9435 279.892 49.3364 281.686 49.3364C285.393 49.3364 288.314 48.1406 290.467 45.766C292.619 43.3915 293.695 40.0431 293.695 35.7553C293.695 32.1678 292.756 29.2465 290.894 26.9574C289.032 24.6853 286.794 23.5407 284.197 23.5407C281.464 23.5407 279.021 24.8732 276.834 27.5382M275.467 -0.0170898H276.834V25.4711C278.047 24.1557 279.499 23.1307 281.224 22.362C282.95 21.6103 284.675 21.2174 286.435 21.2174C290.125 21.2174 293.251 22.567 295.814 25.232C298.376 27.914 299.64 31.2111 299.64 35.1061C299.64 39.6844 297.915 43.4427 294.481 46.381C291.03 49.3194 286.281 50.7714 280.234 50.7714C277.876 50.7714 274.921 50.481 271.385 49.9002V7.22621C271.385 5.00539 271.111 3.62164 270.547 3.10915C269.984 2.57957 268.583 2.32332 266.328 2.32332V0.990822L275.467 -6.5867e-06V-0.0170898Z" fill="#011F5B"></path>
	<path d="M310.198 21.2344V27.4014C312.812 25.1294 314.844 23.5235 316.297 22.6181C317.749 21.6956 318.962 21.2515 319.918 21.2515C321.729 21.2515 323.471 22.0031 325.146 23.4894L322.993 28.546C319.952 26.8718 317.697 26.0348 316.245 26.0348C314.622 26.0348 312.607 27.1793 310.198 29.4856V45.1338C310.198 46.7055 310.522 47.7647 311.189 48.3284C311.838 48.8751 313.102 49.1484 314.964 49.1484V50.4809H299.931V49.1484C301.912 49.1484 303.228 48.8409 303.843 48.2088C304.458 47.5768 304.765 46.0734 304.765 43.6818V28.1189C304.765 26.1543 304.424 24.8731 303.757 24.2923C303.091 23.7114 301.468 23.421 298.872 23.421V22.0885L308.848 21.2173H310.215L310.198 21.2344Z" fill="#011F5B"></path>
	<path d="M341.341 44.7068V35.0547C340.538 35.3964 339.359 35.8235 337.804 36.3531C334.951 37.3268 333.124 38.2835 332.321 39.2401C331.518 40.1968 331.125 41.478 331.125 43.101C331.125 44.5189 331.552 45.7318 332.406 46.7739C333.26 47.8159 334.268 48.3284 335.447 48.3284C336.523 48.3284 337.651 47.9868 338.829 47.2864C340.008 46.5859 340.845 45.7318 341.341 44.7068ZM333.687 51.3863C331.466 51.3863 329.553 50.6518 327.947 49.1655C326.359 47.6793 325.556 45.9026 325.556 43.8014C325.556 41.7001 326.239 40.1626 327.623 38.8814C328.989 37.5831 331.791 36.3531 335.994 35.1743C338.641 34.4397 340.418 33.8077 341.341 33.2952V31.1768C341.341 29.1098 340.76 27.4356 339.615 26.1714C338.471 24.9073 336.916 24.2752 334.986 24.2752C333.226 24.2752 331.671 24.8219 330.322 25.9152C328.955 27.0085 327.999 28.5119 327.452 30.391L326 29.9981C326.581 27.3502 327.828 25.2319 329.741 23.6431C331.671 22.0544 333.926 21.2515 336.506 21.2515C339.564 21.2515 342.041 22.174 343.954 24.019C345.851 25.8639 346.807 28.4264 346.807 31.6893V43.9039C346.807 45.6293 346.927 46.808 347.149 47.423C347.371 48.038 347.798 48.3455 348.43 48.3455C348.84 48.3455 349.182 48.1747 349.455 47.8159C349.711 47.4572 350.019 46.7226 350.361 45.5951H351.727C351.591 47.3718 351.044 48.7897 350.053 49.8318C349.062 50.8738 347.781 51.4034 346.192 51.4034C343.869 51.4034 342.246 50.0538 341.358 47.3547C339.94 48.8922 338.693 49.9513 337.582 50.5322C336.489 51.113 335.191 51.4034 333.704 51.4034" fill="#011F5B"></path>
	<path d="M362.421 21.2344V27.4014C365.035 25.1294 367.068 23.5235 368.52 22.6181C369.972 21.6956 371.185 21.2515 372.142 21.2515C373.953 21.2515 375.695 22.0031 377.369 23.4894L375.217 28.546C372.176 26.8718 369.921 26.0348 368.469 26.0348C366.846 26.0348 364.83 27.1793 362.421 29.4856V45.1338C362.421 46.7055 362.746 47.7647 363.412 48.3284C364.061 48.8751 365.326 49.1484 367.188 49.1484V50.4809H352.154V49.1484C354.136 49.1484 355.451 48.8409 356.066 48.2088C356.681 47.5768 356.989 46.0734 356.989 43.6818V28.1189C356.989 26.1543 356.647 24.8731 355.981 24.2923C355.315 23.7114 353.692 23.421 351.095 23.421V22.0885L361.072 21.2173H362.438L362.421 21.2344Z" fill="#011F5B"></path>
	<path d="M387.141 6.50879C388.115 6.50879 388.918 6.85045 389.601 7.5167C390.284 8.18295 390.609 9.00295 390.609 9.97669C390.609 10.9504 390.267 11.7704 389.584 12.4708C388.9 13.1713 388.098 13.5129 387.158 13.5129C386.218 13.5129 385.347 13.1713 384.647 12.4708C383.946 11.7704 383.588 10.9504 383.588 9.97669C383.588 9.00295 383.929 8.18295 384.63 7.5167C385.33 6.85045 386.167 6.50879 387.158 6.50879M388.405 21.2346H389.772V45.2195C389.772 46.7911 390.113 47.8503 390.797 48.3628C391.48 48.8924 392.727 49.1486 394.521 49.1486V50.4811H378.941V49.1486C381.213 49.1486 382.682 48.8924 383.331 48.3799C383.98 47.8674 384.305 46.8082 384.305 45.2024V27.6749C384.305 25.9495 383.998 24.805 383.4 24.2412C382.802 23.6945 381.298 23.4212 378.924 23.4212V22.0887L388.388 21.2175L388.405 21.2346Z" fill="#011F5B"></path>
	<path d="M399.988 31.7577H415.499V31.211C415.499 28.6656 414.765 26.6498 413.33 25.1635C411.878 23.6773 410.067 22.9256 407.897 22.9256C405.591 22.9256 403.746 23.7114 402.345 25.2831C400.944 26.8548 400.158 29.0073 400.005 31.7577M421.393 43.1864V45.2705C419.667 47.4743 417.908 49.0459 416.114 49.9855C414.32 50.9251 412.168 51.4034 409.657 51.4034C405.198 51.4034 401.542 50.0026 398.638 47.218C395.751 44.4334 394.299 40.8972 394.299 36.5922C394.299 32.2872 395.683 28.6314 398.433 25.676C401.2 22.7206 404.583 21.2344 408.58 21.2344C411.878 21.2344 414.747 22.3448 417.207 24.5656C419.667 26.7864 420.897 29.4514 420.897 32.5435V33.1243H399.97V33.5172C399.97 36.6606 400.449 39.3768 401.405 41.7001C402.362 44.0234 403.746 45.8343 405.591 47.1326C407.419 48.448 409.332 49.0972 411.331 49.0972C413.193 49.0972 414.782 48.7043 416.097 47.9355C417.412 47.1668 419.172 45.578 421.376 43.1693" fill="#011F5B"></path>
	<path d="M442.678 21.2344V29.981H441.072C440.816 27.7772 440.03 26.0348 438.715 24.7364C437.399 23.4381 435.828 22.7889 433.966 22.7889C432.548 22.7889 431.42 23.1477 430.549 23.8481C429.695 24.5485 429.251 25.4881 429.251 26.6668C429.251 27.8456 429.644 28.8364 430.447 29.7077C431.249 30.5789 432.975 31.6381 435.64 32.8681C439.091 34.4397 441.38 35.943 442.49 37.378C443.601 38.813 444.164 40.5384 444.164 42.5543C444.164 44.9288 443.276 46.9959 441.499 48.7384C439.723 50.4809 437.622 51.3521 435.179 51.3521C433.914 51.3521 432.257 50.8909 430.19 49.9855C429.063 49.4901 428.311 49.2338 427.952 49.2338C427.457 49.2338 427.03 49.4217 426.705 49.7805C426.364 50.1392 426.176 50.6005 426.107 51.1471H424.741V41.4439H426.107C426.603 43.9893 427.696 46.0222 429.404 47.5255C431.113 49.0288 433.06 49.7805 435.264 49.7805C436.682 49.7805 437.861 49.3022 438.817 48.3626C439.774 47.423 440.252 46.2613 440.252 44.8605C440.252 43.4597 439.808 42.3664 438.937 41.3755C438.049 40.3847 436.152 39.2572 433.214 37.976C429.917 36.5239 427.747 35.1914 426.705 33.9272C425.663 32.6631 425.134 31.1597 425.134 29.366C425.134 27.1452 425.988 25.2148 427.713 23.6089C429.422 22.0031 431.454 21.2002 433.812 21.2002C434.905 21.2002 436.101 21.4564 437.382 21.986C438.305 22.3448 439.039 22.5327 439.62 22.5327C440.389 22.5327 440.936 22.0885 441.311 21.2002H442.678V21.2344Z" fill="#011F5B"></path>
	</g>
	<defs>
	<clipPath id="clip0_10377_15535">
	<rect width="444.165" height="95" fill="white"></rect>
	</clipPath>
	</defs></svg>
