<svg width="24" height="24" viewBox="0 0 24 24" fill="none" xmlns="http://www.w3.org/2000/svg">
                  <path d="M19.0882 16.2471C22.0827 11.79 21.204 5.7877 17.0575 2.37601C12.9111 -1.03569 6.85194 -0.741858 3.05506 3.05504C-0.741813 6.85194 -1.03571 12.9111 2.37596 17.0576C5.78763 21.204 11.7899 22.0828 16.247 19.0883L20.8389 23.6801C21.2654 24.1066 21.9569 24.1066 22.3834 23.6801L23.6801 22.3835C23.8849 22.1787 24 21.9009 24 21.6113C24 21.3216 23.8849 21.0438 23.6801 20.839L19.0882 16.2471ZM10.4398 18.45C7.19995 18.45 4.27911 16.4985 3.03924 13.5052C1.79939 10.512 2.48462 7.06663 4.77552 4.77569C7.06641 2.48475 10.5117 1.7994 13.505 3.03921C16.4982 4.27903 18.4498 7.19985 18.4498 10.4397C18.4449 14.8616 14.8616 18.445 10.4398 18.45Z" fill="#045EA7"></path>
                  </svg>